SplineFontDB: 3.2
FontName: Inconsolata-ExtraCondensedBold
FullName: Inconsolata Extra Condensed Bold
FamilyName: Inconsolata Extra Condensed Bold
Weight: Bold
Copyright: Copyright 2006 The Inconsolata Project Authors (https://github.com/cyrealtype/Inconsolata)
Version: 3.000; ttfautohint (v1.8.3)
ItalicAngle: 0
UnderlinePosition: -297
UnderlineWidth: 102
Ascent: 1802
Descent: 246
InvalidEm: 0
sfntRevision: 0x00030000
LayerCount: 2
Layer: 0 1 "Back" 1
Layer: 1 1 "Fore" 0
XUID: [1021 614 2031436716 32237]
StyleMap: 0x0040
FSType: 0
OS2Version: 4
OS2_WeightWidthSlopeOnly: 0
OS2_UseTypoMetrics: 1
CreationTime: 1576097233
ModificationTime: 1732392375
PfmFamily: 81
TTFWeight: 700
TTFWidth: 2
LineGap: 0
VLineGap: 0
Panose: 0 0 0 0 0 0 0 0 0 0
OS2TypoAscent: 1759
OS2TypoAOffset: 0
OS2TypoDescent: -389
OS2TypoDOffset: 0
OS2TypoLinegap: 0
OS2WinAscent: 2056
OS2WinAOffset: 0
OS2WinDescent: 930
OS2WinDOffset: 0
HheadAscent: 1759
HheadAOffset: 0
HheadDescent: -389
HheadDOffset: 0
OS2SubXSize: 1331
OS2SubYSize: 1229
OS2SubXOff: 0
OS2SubYOff: 154
OS2SupXSize: 1331
OS2SupYSize: 1229
OS2SupXOff: 0
OS2SupYOff: 717
OS2StrikeYSize: 102
OS2StrikeYPos: 571
OS2CapHeight: 1276
OS2XHeight: 952
OS2Vendor: 'CYRE'
OS2CodePages: 60000193.cdd40000
OS2UnicodeRanges: a00000ff.0000f9eb.00000020.00000000
Lookup: 1 0 0 "'aalt' Access All Alternates in Latin lookup 0" { "'aalt' Access All Alternates in Latin lookup 0 subtable"  } ['aalt' ('DFLT' <'dflt' > 'latn' <'AZE ' 'CAT ' 'CRT ' 'KAZ ' 'MOL ' 'ROM ' 'TAT ' 'TRK ' 'dflt' > ) ]
Lookup: 3 0 0 "'aalt' Access All Alternates in Latin lookup 1" { "'aalt' Access All Alternates in Latin lookup 1 subtable"  } ['aalt' ('DFLT' <'dflt' > 'latn' <'AZE ' 'CAT ' 'CRT ' 'KAZ ' 'MOL ' 'ROM ' 'TAT ' 'TRK ' 'dflt' > ) ]

StartChar: A
Encoding: 65 65 1
Width: 719
VWidth: 2430
GlyphClass: 2
Flags: HW
AnchorPoint: "Anchor-3" 534 0 basechar 0
AnchorPoint: "Anchor-2" 352 0 basechar 0
AnchorPoint: "Anchor-0" 352 1514 basechar 0
LayerCount: 2
Fore
SplineSet
352 997 m 1,0,-1
 277 538 l 1,1,-1
 426 538 l 1,2,-1
 352 997 l 1,0,-1
513 0 m 1,3,-1
 456 362 l 1,4,-1
 249 362 l 1,5,-1
 188 0 l 1,6,-1
 0 0 l 1,7,-1
 300 1533 l 1,8,-1
 406 1533 l 1,9,-1
 704 0 l 1,10,-1
 513 0 l 1,3,-1
EndSplineSet
Substitution2: "Single Substitution lookup 29 subtable" ordfeminine
Substitution2: "'aalt' Access All Alternates in Latin lookup 0 subtable" ordfeminine
EndChar

StartChar: AE
Encoding: 198 198 26
Width: 685
VWidth: 2430
GlyphClass: 1
Flags: HW
LayerCount: 2
Fore
SplineSet
236 589 m 1,0,-1
 324 589 l 1,1,-1
 340 1242 l 1,2,-1
 236 589 l 1,0,-1
-20 0 m 1,3,-1
 257 1516 l 1,4,-1
 684 1516 l 1,5,-1
 684 1312 l 1,6,-1
 485 1312 l 1,7,-1
 485 892 l 1,8,-1
 647 892 l 1,9,-1
 647 686 l 1,10,-1
 485 686 l 1,11,-1
 485 204 l 1,12,-1
 682 204 l 1,13,-1
 680 0 l 1,14,-1
 322 0 l 1,15,-1
 322 389 l 1,16,-1
 210 389 l 1,17,-1
 142 0 l 1,18,-1
 -20 0 l 1,3,-1
EndSplineSet
EndChar

StartChar: B
Encoding: 66 66 28
Width: 768
VWidth: 2430
GlyphClass: 2
Flags: HW
AnchorPoint: "Anchor-2" 378 0 basechar 0
AnchorPoint: "Anchor-0" 378 1514 basechar 0
LayerCount: 2
Fore
SplineSet
235 206 m 1,0,-1
 362 206 l 2,1,2
 440 206 440 206 483.5 261 c 128,-1,3
 527 316 527 316 527 440 c 0,4,5
 527 563 527 563 482 635 c 128,-1,6
 437 707 437 707 333 707 c 2,7,-1
 235 707 l 1,8,-1
 235 206 l 1,0,-1
235 911 m 1,9,-1
 329 911 l 2,10,11
 425 911 425 911 461.5 965.5 c 128,-1,12
 498 1020 498 1020 498 1120 c 0,13,14
 498 1205 498 1205 461.5 1257.5 c 128,-1,15
 425 1310 425 1310 346 1310 c 2,16,-1
 235 1310 l 1,17,-1
 235 911 l 1,9,-1
32 0 m 1,18,-1
 32 1514 l 1,19,-1
 341 1514 l 2,20,21
 502 1514 502 1514 600 1425 c 128,-1,22
 698 1336 698 1336 698 1143 c 0,23,24
 698 874 698 874 551 809 c 1,25,26
 631 767 631 767 683.5 670 c 128,-1,27
 736 573 736 573 736 430 c 0,28,29
 736 221 736 221 638 110.5 c 128,-1,30
 540 0 540 0 339 0 c 2,31,-1
 32 0 l 1,18,-1
EndSplineSet
EndChar

StartChar: C
Encoding: 67 67 29
Width: 785
VWidth: 2430
GlyphClass: 2
Flags: HW
AnchorPoint: "Anchor-2" 419 0 basechar 0
AnchorPoint: "Anchor-0" 410 1514 basechar 0
LayerCount: 2
Fore
SplineSet
425 -24 m 0,0,1
 320 -24 320 -24 231 47.5 c 128,-1,2
 142 119 142 119 88 289 c 128,-1,3
 34 459 34 459 32 749 c 0,4,5
 32 987 32 987 69.5 1138.5 c 128,-1,6
 107 1290 107 1290 167 1376.5 c 128,-1,7
 227 1463 227 1463 299 1495.5 c 128,-1,8
 371 1528 371 1528 439 1528 c 0,9,10
 549 1528 549 1528 623.5 1467.5 c 128,-1,11
 698 1407 698 1407 736 1303 c 1,12,-1
 639 1140 l 1,13,-1
 628 1120 l 1,14,-1
 614 1132 l 1,15,16
 610 1149 610 1149 610 1173.5 c 128,-1,17
 610 1198 610 1198 592 1234 c 1,18,19
 560 1283 560 1283 523.5 1302.5 c 128,-1,20
 487 1322 487 1322 448 1322 c 0,21,22
 392 1322 392 1322 341.5 1266 c 128,-1,23
 291 1210 291 1210 260.5 1086 c 128,-1,24
 230 962 230 962 230 758 c 0,25,26
 230 459 230 459 293 321 c 128,-1,27
 356 183 356 183 446 183 c 0,28,29
 502 183 502 183 547 224 c 128,-1,30
 592 265 592 265 626 338 c 1,31,-1
 721 170 l 1,32,33
 667 68 667 68 596.5 22 c 128,-1,34
 526 -24 526 -24 425 -24 c 0,0,1
EndSplineSet
EndChar

StartChar: D
Encoding: 68 68 36
Width: 768
VWidth: 2430
GlyphClass: 2
Flags: HW
AnchorPoint: "Anchor-4" 372 758 basechar 0
AnchorPoint: "Anchor-2" 368 0 basechar 0
AnchorPoint: "Anchor-0" 324 1514 basechar 0
LayerCount: 2
Fore
SplineSet
237 199 m 1,0,-1
 287 199 l 2,1,2
 417 199 417 199 476 338.5 c 128,-1,3
 535 478 535 478 535 742 c 0,4,5
 535 1009 535 1009 485 1160.5 c 128,-1,6
 435 1312 435 1312 303 1312 c 2,7,-1
 237 1312 l 1,8,-1
 237 199 l 1,0,-1
32 -2 m 1,9,-1
 32 1514 l 1,10,-1
 294 1514 l 2,11,12
 426 1514 426 1514 504.5 1467.5 c 128,-1,13
 583 1421 583 1421 634 1319 c 0,14,15
 683 1219 683 1219 709.5 1084.5 c 128,-1,16
 736 950 736 950 736 749 c 0,17,18
 734 382 734 382 623.5 190 c 128,-1,19
 513 -2 513 -2 275 -2 c 2,20,-1
 32 -2 l 1,9,-1
EndSplineSet
EndChar

StartChar: Eth
Encoding: 208 208 37
Width: 741
VWidth: 2430
GlyphClass: 1
Flags: HW
LayerCount: 2
Fore
SplineSet
255 204 m 1,0,-1
 300 204 l 2,1,2
 425 204 425 204 480 336.5 c 128,-1,3
 535 469 535 469 535 742 c 0,4,5
 535 1022 535 1022 483.5 1162.5 c 128,-1,6
 432 1303 432 1303 309 1303 c 2,7,-1
 255 1303 l 1,8,-1
 255 899 l 1,9,-1
 378 899 l 1,10,-1
 378 702 l 1,11,-1
 255 702 l 1,12,-1
 255 204 l 1,0,-1
70 -2 m 1,13,-1
 70 702 l 1,14,-1
 16 702 l 1,15,-1
 16 899 l 1,16,-1
 70 899 l 1,17,-1
 70 1514 l 1,18,-1
 313 1514 l 2,19,20
 406 1514 406 1514 473.5 1473.5 c 128,-1,21
 541 1433 541 1433 585.5 1371.5 c 128,-1,22
 630 1310 630 1310 656 1242 c 0,23,24
 684 1177 684 1177 702 1055 c 128,-1,25
 720 933 720 933 720 749 c 0,26,27
 720 346 720 346 615 172 c 128,-1,28
 510 -2 510 -2 296 -2 c 2,29,-1
 70 -2 l 1,13,-1
EndSplineSet
EndChar

StartChar: E
Encoding: 69 69 42
Width: 749
VWidth: 2430
GlyphClass: 2
Flags: HW
AnchorPoint: "Anchor-3" 673 19 basechar 0
AnchorPoint: "Anchor-2" 371 0 basechar 0
AnchorPoint: "Anchor-0" 394 1514 basechar 0
LayerCount: 2
Fore
SplineSet
32 0 m 1,0,-1
 32 1516 l 1,1,-1
 717 1516 l 1,2,-1
 717 1312 l 1,3,-1
 243 1312 l 1,4,-1
 243 892 l 1,5,-1
 629 892 l 1,6,-1
 629 688 l 1,7,-1
 243 688 l 1,8,-1
 243 204 l 1,9,-1
 714 204 l 1,10,-1
 714 0 l 1,11,-1
 32 0 l 1,0,-1
EndSplineSet
EndChar

StartChar: uni01B8
Encoding: 440 440 65
Width: 732
VWidth: 2430
GlyphClass: 1
Flags: HW
LayerCount: 2
Fore
SplineSet
399 -34 m 0,0,1
 232 -34 232 -34 132 90 c 128,-1,2
 32 214 32 214 32 418 c 0,3,4
 32 615 32 615 111 744.5 c 128,-1,5
 190 874 190 874 318 916 c 1,6,-1
 68 1322 l 1,7,-1
 68 1514 l 1,8,-1
 640 1514 l 1,9,-1
 640 1305 l 1,10,-1
 304 1305 l 1,11,-1
 515 935 l 1,12,-1
 515 737 l 1,13,14
 498.368421053 737.947368421 498.368421053 737.947368421 482.817174515 737.947368421 c 0,15,16
 350.631578947 737.947368421 350.631578947 737.947368421 296.5 669.5 c 0,17,18
 236 593 236 593 236 433 c 0,19,20
 236 292 236 292 289.5 233 c 128,-1,21
 343 174 343 174 420 174 c 0,22,23
 520 174 520 174 579 234 c 1,24,25
 598 266 598 266 602.5 281.5 c 128,-1,26
 607 297 607 297 603 313 c 1,27,-1
 612 327 l 1,28,-1
 632 316 l 1,29,-1
 700 119 l 1,30,31
 639 36 639 36 565.5 1 c 128,-1,32
 492 -34 492 -34 399 -34 c 0,0,1
EndSplineSet
EndChar

StartChar: F
Encoding: 70 70 66
Width: 723
VWidth: 2430
GlyphClass: 2
Flags: HW
AnchorPoint: "Anchor-2" 345 0 basechar 0
AnchorPoint: "Anchor-0" 345 1514 basechar 0
LayerCount: 2
Fore
SplineSet
32 0 m 1,0,-1
 32 1516 l 1,1,-1
 691 1516 l 1,2,-1
 691 1312 l 1,3,-1
 236 1312 l 1,4,-1
 236 918 l 1,5,-1
 600 918 l 1,6,-1
 600 714 l 1,7,-1
 236 714 l 1,8,-1
 236 0 l 1,9,-1
 32 0 l 1,0,-1
EndSplineSet
EndChar

StartChar: G
Encoding: 71 71 67
Width: 768
VWidth: 2430
GlyphClass: 2
Flags: HW
AnchorPoint: "Anchor-2" 412 0 basechar 0
AnchorPoint: "Anchor-0" 421 1514 basechar 0
LayerCount: 2
Fore
SplineSet
428 -24 m 0,0,1
 239 -24 239 -24 135.5 172.5 c 128,-1,2
 32 369 32 369 32 744 c 0,3,4
 31.8974358974 756.461538462 31.8974358974 756.461538462 31.8974358974 768.690335306 c 0,5,6
 31.8974358974 994.923076923 31.8974358974 994.923076923 67 1141.5 c 0,7,8
 104 1296 104 1296 165 1382 c 128,-1,9
 226 1468 226 1468 296.5 1500.5 c 128,-1,10
 367 1533 367 1533 430 1533 c 0,11,12
 535 1533 535 1533 615 1475 c 128,-1,13
 695 1417 695 1417 734 1317 c 1,14,-1
 634 1164 l 1,15,-1
 621 1145 l 1,16,-1
 606 1157 l 1,17,18
 604 1176 604 1176 601.5 1198 c 128,-1,19
 599 1220 599 1220 578 1254 c 1,20,21
 550 1288 550 1288 519 1307.5 c 128,-1,22
 488 1327 488 1327 437 1327 c 0,23,24
 380 1327 380 1327 333.5 1277 c 128,-1,25
 287 1227 287 1227 259.5 1106.5 c 128,-1,26
 232 986 232 986 232 775 c 0,27,28
 232 469 232 469 285.5 323.5 c 128,-1,29
 339 178 339 178 426 178 c 0,30,31
 504 178 504 178 556 236 c 1,32,-1
 556 564 l 1,33,-1
 412 564 l 1,34,-1
 412 768 l 1,35,-1
 736 768 l 1,36,-1
 736 126 l 1,37,38
 666 43 666 43 587 9.5 c 128,-1,39
 508 -24 508 -24 428 -24 c 0,0,1
EndSplineSet
EndChar

StartChar: H
Encoding: 72 72 74
Width: 768
VWidth: 2430
GlyphClass: 2
Flags: HW
AnchorPoint: "Anchor-4" 559 758 basechar 0
AnchorPoint: "Anchor-2" 559 0 basechar 0
AnchorPoint: "Anchor-0" 453 1514 basechar 0
LayerCount: 2
Fore
SplineSet
32 1514 m 1,0,-1
 257 1514 l 1,1,-1
 257 1495 l 1,2,3
 248 1481 248 1481 245.5 1463.5 c 128,-1,4
 243 1446 243 1446 243 1405 c 2,5,-1
 243 895 l 1,6,-1
 509 895 l 1,7,-1
 509 1514 l 1,8,-1
 736 1514 l 1,9,-1
 736 1495 l 1,10,11
 727 1481 727 1481 724 1463.5 c 128,-1,12
 721 1446 721 1446 721 1405 c 2,13,-1
 721 0 l 1,14,-1
 509 0 l 1,15,-1
 509 691 l 1,16,-1
 243 691 l 1,17,-1
 243 0 l 1,18,-1
 32 0 l 1,19,-1
 32 1514 l 1,0,-1
EndSplineSet
EndChar

StartChar: Hbar
Encoding: 294 294 75
Width: 699
VWidth: 2430
GlyphClass: 2
Flags: HW
AnchorPoint: "Anchor-4" 495 758 basechar 0
AnchorPoint: "Anchor-2" 495 0 basechar 0
AnchorPoint: "Anchor-0" 402 1514 basechar 0
LayerCount: 2
Fore
SplineSet
218 895 m 1,0,-1
 452 895 l 1,1,-1
 452 1181 l 1,2,-1
 218 1181 l 1,3,-1
 218 895 l 1,0,-1
-14 1181 m 1,4,-1
 -14 1380 l 1,5,-1
 33 1380 l 1,6,-1
 33 1514 l 1,7,-1
 230 1514 l 1,8,-1
 230 1495 l 1,9,10
 222 1481 222 1481 220 1463.5 c 128,-1,11
 218 1446 218 1446 218 1405 c 2,12,-1
 218 1380 l 1,13,-1
 452 1380 l 1,14,-1
 452 1514 l 1,15,-1
 651 1514 l 1,16,-1
 651 1495 l 1,17,18
 643 1481 643 1481 640 1463.5 c 128,-1,19
 637 1446 637 1446 637 1405 c 2,20,-1
 637 1380 l 1,21,-1
 690 1380 l 1,22,-1
 690 1181 l 1,23,-1
 637 1181 l 1,24,-1
 637 0 l 1,25,-1
 452 0 l 1,26,-1
 452 691 l 1,27,-1
 218 691 l 1,28,-1
 218 0 l 1,29,-1
 33 0 l 1,30,-1
 33 1181 l 1,31,-1
 -14 1181 l 1,4,-1
EndSplineSet
EndChar

StartChar: I
Encoding: 73 73 79
Width: 674
VWidth: 2430
GlyphClass: 2
Flags: HW
AnchorPoint: "Anchor-3" 521 0 basechar 0
AnchorPoint: "Anchor-2" 345 0 basechar 0
AnchorPoint: "Anchor-0" 331 1514 basechar 0
LayerCount: 2
Fore
SplineSet
32 0 m 1,0,-1
 32 204 l 1,1,-1
 229 204 l 1,2,-1
 229 1308 l 1,3,-1
 39 1308 l 1,4,-1
 39 1514 l 1,5,-1
 632 1514 l 1,6,-1
 632 1308 l 1,7,-1
 435 1308 l 1,8,-1
 435 202 l 1,9,-1
 642 202 l 1,10,-1
 642 0 l 1,11,-1
 32 0 l 1,0,-1
EndSplineSet
EndChar

StartChar: J
Encoding: 74 74 94
Width: 768
VWidth: 2430
GlyphClass: 2
Flags: HW
AnchorPoint: "Anchor-2" 346 0 basechar 0
AnchorPoint: "Anchor-0" 496 1514 basechar 0
LayerCount: 2
Fore
SplineSet
288 -30 m 0,0,1
 214 -30 214 -30 146 4.5 c 128,-1,2
 78 39 78 39 32 112 c 1,3,-1
 111 318 l 1,4,-1
 120 341 l 1,5,-1
 136 333 l 1,6,7
 145 314 145 314 147.5 289.5 c 128,-1,8
 150 265 150 265 175 234 c 1,9,10
 219 190 219 190 274 190 c 128,-1,11
 329 190 329 190 360.5 264 c 128,-1,12
 392 338 392 338 392 517 c 2,13,-1
 392 1310 l 1,14,-1
 205 1310 l 1,15,-1
 205 1514 l 1,16,-1
 736 1514 l 1,17,-1
 736 1310 l 1,18,-1
 595 1310 l 1,19,-1
 595 510 l 2,20,21
 595 311 595 311 555.5 191.5 c 128,-1,22
 516 72 516 72 446 20 c 0,23,24
 378.592592593 -30.0740740741 378.592592593 -30.0740740741 294.49382716 -30.0740740741 c 0,25,26
 291.259259259 -30.0740740741 291.259259259 -30.0740740741 288 -30 c 0,0,1
EndSplineSet
EndChar

StartChar: K
Encoding: 75 75 96
Width: 796
VWidth: 2430
GlyphClass: 1
Flags: HW
LayerCount: 2
Fore
SplineSet
279 656 m 1,0,-1
 226 559 l 1,1,-1
 230 0 l 1,2,-1
 32 0 l 1,3,-1
 32 1514 l 1,4,-1
 247 1514 l 1,5,-1
 247 1495 l 1,6,7
 236 1481 236 1481 233 1463.5 c 128,-1,8
 230 1446 230 1446 230 1405 c 2,9,-1
 230 918 l 1,10,-1
 511 1526 l 1,11,12
 540 1521 540 1521 583.5 1517.5 c 128,-1,13
 627 1514 627 1514 652 1514 c 2,14,-1
 716 1514 l 1,15,-1
 407 848 l 1,16,-1
 736 0 l 1,17,-1
 524 -9 l 1,18,-1
 279 656 l 1,0,-1
EndSplineSet
EndChar

StartChar: uni0198
Encoding: 408 408 98
Width: 800
VWidth: 2430
GlyphClass: 1
Flags: HW
LayerCount: 2
Fore
SplineSet
32 1514 m 1,0,-1
 256 1514 l 1,1,-1
 256 1495 l 1,2,3
 243 1481 243 1481 239.5 1463.5 c 128,-1,4
 236 1446 236 1446 236 1405 c 2,5,-1
 236 958 l 1,6,7
 321 1181 321 1181 388 1305 c 128,-1,8
 455 1429 455 1429 517 1477.5 c 128,-1,9
 579 1526 579 1526 647 1526 c 0,10,11
 669 1526 669 1526 692.5 1521 c 128,-1,12
 716 1516 716 1516 729 1507 c 1,13,-1
 729 1276 l 1,14,-1
 729 1252 l 1,15,-1
 716 1252 l 1,16,17
 707 1266 707 1266 696.5 1278 c 128,-1,18
 686 1290 686 1290 661 1298 c 0,19,20
 657 1298 657 1298 645 1298 c 0,21,22
 615 1298 615 1298 582 1263.5 c 128,-1,23
 549 1229 549 1229 499.5 1139.5 c 128,-1,24
 450 1050 450 1050 380 882 c 1,25,-1
 736 0 l 1,26,-1
 522 -12 l 1,27,-1
 274 619 l 1,28,29
 256 573 256 573 236 520 c 1,30,-1
 236 0 l 1,31,-1
 32 0 l 1,32,-1
 32 1514 l 1,0,-1
EndSplineSet
EndChar

StartChar: L
Encoding: 76 76 99
Width: 746
VWidth: 2430
GlyphClass: 2
Flags: HW
AnchorPoint: "Anchor-4" 134 758 basechar 0
AnchorPoint: "Anchor-2" 364 0 basechar 0
AnchorPoint: "Anchor-1" 265 1115 basechar 0
AnchorPoint: "Anchor-0" 308 1514 basechar 0
LayerCount: 2
Fore
SplineSet
32 1514 m 1,0,-1
 270 1514 l 1,1,-1
 270 1495 l 1,2,3
 256 1481 256 1481 252 1463.5 c 128,-1,4
 248 1446 248 1446 248 1405 c 2,5,-1
 248 209 l 1,6,-1
 714 209 l 1,7,-1
 714 0 l 1,8,-1
 32 0 l 1,9,-1
 32 1514 l 1,0,-1
EndSplineSet
EndChar

StartChar: uni01C7
Encoding: 455 455 100
Width: 717
VWidth: 2350
GlyphClass: 1
Flags: HW
LayerCount: 2
Fore
SplineSet
32 129 m 1,0,-1
 32 1514 l 1,1,-1
 240 1514 l 1,2,3
 240 1499 240 1499 237 1495 c 128,-1,4
 234 1491 234 1491 229.5 1481.5 c 128,-1,5
 225 1472 225 1472 225 1438 c 2,6,-1
 225 314 l 1,7,-1
 396 314 l 1,8,-1
 396 129 l 1,9,-1
 32 129 l 1,0,-1
407 -246 m 0,10,11
 265 -246 265 -246 172 -133 c 1,12,-1
 278 30 l 1,13,14
 295 13 295 13 291 3.5 c 128,-1,15
 287 -6 287 -6 308 -28 c 0,16,17
 319 -41 319 -41 339 -54.5 c 128,-1,18
 359 -68 359 -68 391 -68 c 0,19,20
 442 -68 442 -68 468 3 c 128,-1,21
 494 74 494 74 494 267 c 2,22,-1
 494 1330 l 1,23,-1
 359 1330 l 1,24,-1
 359 1514 l 1,25,-1
 685 1514 l 1,26,-1
 685 256 l 2,27,28
 685.106666667 246.026666667 685.106666667 246.026666667 685.106666667 236.272355556 c 0,0,0
 685.106666667 63.1333333333 685.106666667 63.1333333333 651.5 -41 c 128,-1,29
 616 -151 616 -151 552.5 -198.5 c 128,-1,30
 489 -246 489 -246 407 -246 c 0,10,11
EndSplineSet
EndChar

StartChar: Lcaron
Encoding: 317 317 102
Width: 746
VWidth: 2430
GlyphClass: 2
Flags: HW
AnchorPoint: "Anchor-4" 134 758 basechar 0
AnchorPoint: "Anchor-2" 364 0 basechar 0
AnchorPoint: "Anchor-1" 265 1115 basechar 0
AnchorPoint: "Anchor-0" 308 1514 basechar 0
LayerCount: 2
Fore
SplineSet
32 1514 m 1,0,-1
 270 1514 l 1,1,-1
 270 1495 l 1,2,3
 256 1481 256 1481 252 1463.5 c 128,-1,4
 248 1446 248 1446 248 1405 c 2,5,-1
 248 209 l 1,6,-1
 714 209 l 1,7,-1
 714 0 l 1,8,-1
 32 0 l 1,9,-1
 32 1514 l 1,0,-1
526 990 m 1,10,-1
 426 1067 l 1,11,12
 470 1118 470 1118 493.5 1167.5 c 128,-1,13
 517 1217 517 1217 517 1257 c 0,14,15
 517 1284 517 1284 501.5 1306.5 c 128,-1,16
 486 1329 486 1329 469 1354.5 c 128,-1,17
 452 1380 452 1380 452 1419 c 0,18,19
 452 1477 452 1477 489 1508.5 c 128,-1,20
 526 1540 526 1540 568 1540 c 0,21,22
 621 1540 621 1540 657 1500.5 c 128,-1,23
 693 1461 693 1461 693 1382 c 0,24,25
 693 1196 693 1196 526 990 c 1,10,-1
EndSplineSet
EndChar

StartChar: uni01C8
Encoding: 456 456 106
Width: 705
VWidth: 2355
GlyphClass: 1
Flags: HW
LayerCount: 2
Fore
SplineSet
351 -246 m 0,0,1
 296 -246 296 -246 241 -217.5 c 128,-1,2
 186 -189 186 -189 149 -140 c 1,3,-1
 251 48 l 1,4,5
 264 33 264 33 261 13 c 128,-1,6
 258 -7 258 -7 295 -37 c 0,7,8
 317 -52 317 -52 351 -52 c 0,9,10
 402 -52 402 -52 434.5 2 c 128,-1,11
 467 56 467 56 467 187 c 2,12,-1
 467 992 l 1,13,-1
 311 992 l 1,14,-1
 311 1175 l 1,15,-1
 646 1175 l 1,16,-1
 646 196 l 2,17,18
 646 -40 646 -40 565 -143 c 128,-1,19
 484 -246 484 -246 351 -246 c 0,0,1
32 145 m 1,20,-1
 32 1523 l 1,21,-1
 233 1523 l 1,22,23
 233 1501 233 1501 227.5 1487.5 c 128,-1,24
 222 1474 222 1474 222 1445 c 2,25,-1
 222 335 l 1,26,-1
 376 335 l 1,27,-1
 374 145 l 1,28,-1
 32 145 l 1,20,-1
547 1359 m 0,29,30
 494 1359 494 1359 457.5 1395.5 c 128,-1,31
 421 1432 421 1432 421 1485 c 128,-1,32
 421 1538 421 1538 457.5 1574.5 c 128,-1,33
 494 1611 494 1611 547 1611 c 0,34,35
 598 1611 598 1611 635.5 1573.5 c 128,-1,36
 673 1536 673 1536 673 1485 c 0,37,38
 673 1432 673 1432 635.5 1395.5 c 128,-1,39
 598 1359 598 1359 547 1359 c 0,29,30
EndSplineSet
EndChar

StartChar: Lslash
Encoding: 321 321 108
Width: 776
VWidth: 2430
GlyphClass: 1
Flags: HW
LayerCount: 2
Fore
SplineSet
99 0 m 1,0,-1
 99 540 l 1,1,-1
 20 503 l 1,2,-1
 20 726 l 1,3,-1
 99 768 l 1,4,-1
 99 1514 l 1,5,-1
 313 1514 l 2,6,7
 320 1512 320 1512 319 1507 c 0,8,9
 319 1498 319 1498 310 1483 c 128,-1,10
 301 1468 301 1468 298 1431 c 2,11,-1
 298 867 l 1,12,-1
 509 974 l 2,13,14
 543 988 543 988 561 1006 c 1,15,-1
 561 761 l 1,16,-1
 301 635 l 1,17,-1
 301 209 l 1,18,-1
 724 209 l 1,19,-1
 724 0 l 1,20,-1
 99 0 l 1,0,-1
EndSplineSet
EndChar

StartChar: M
Encoding: 77 77 109
Width: 768
VWidth: 2430
GlyphClass: 2
Flags: HW
AnchorPoint: "Anchor-2" 382 0 basechar 0
AnchorPoint: "Anchor-0" 382 1514 basechar 0
LayerCount: 2
Fore
SplineSet
32 0 m 1,0,-1
 32 1514 l 1,1,-1
 199 1514 l 1,2,-1
 382 904 l 1,3,-1
 571 1516 l 1,4,-1
 736 1516 l 1,5,-1
 736 0 l 1,6,-1
 563 0 l 1,7,-1
 565 1037 l 1,8,-1
 412 538 l 1,9,-1
 345 538 l 1,10,-1
 201 1032 l 1,11,-1
 203 0 l 1,12,-1
 32 0 l 1,0,-1
EndSplineSet
EndChar

StartChar: N
Encoding: 78 78 111
Width: 768
VWidth: 2430
GlyphClass: 2
Flags: HW
AnchorPoint: "Anchor-2" 376 0 basechar 0
AnchorPoint: "Anchor-0" 376 1514 basechar 0
LayerCount: 2
Fore
SplineSet
32 1514 m 1,0,-1
 228 1514 l 1,1,-1
 545 580 l 1,2,-1
 538 1514 l 1,3,-1
 736 1514 l 1,4,-1
 736 1495 l 1,5,6
 722 1481 722 1481 720 1463.5 c 128,-1,7
 718 1446 718 1446 718 1405 c 2,8,-1
 718 0 l 1,9,-1
 547 0 l 1,10,-1
 214 999 l 1,11,-1
 214 0 l 1,12,-1
 32 0 l 1,13,-1
 32 1514 l 1,0,-1
EndSplineSet
EndChar

StartChar: Eng
Encoding: 330 330 117
Width: 722
VWidth: 2328
GlyphClass: 2
Flags: HW
AnchorPoint: "Anchor-2" 354 167 basechar 0
AnchorPoint: "Anchor-0" 358 1514 basechar 0
LayerCount: 2
Fore
SplineSet
517 1514 m 1,0,-1
 690 1514 l 1,1,2
 690 1495 690 1495 685.5 1481 c 128,-1,3
 681 1467 681 1467 681 1442 c 2,4,-1
 681 167 l 2,5,6
 681 -58 681 -58 607.5 -152 c 128,-1,7
 534 -246 534 -246 426 -246 c 0,8,9
 387 -246 387 -246 345.5 -229.5 c 128,-1,10
 304 -213 304 -213 263 -182 c 1,11,-1
 337 -2 l 1,12,13
 352 -6 352 -6 359 -20 c 128,-1,14
 366 -34 366 -34 377.5 -47 c 128,-1,15
 389 -60 389 -60 422 -60 c 0,16,17
 470 -60 470 -60 491 -0.5 c 128,-1,18
 512 59 512 59 512 197 c 1,19,-1
 203 1056 l 1,20,-1
 203 167 l 1,21,-1
 32 167 l 1,22,-1
 32 1514 l 1,23,-1
 201 1514 l 1,24,-1
 517 683 l 1,25,-1
 517 1514 l 1,0,-1
EndSplineSet
EndChar

StartChar: O
Encoding: 79 79 120
Width: 757
VWidth: 2430
GlyphClass: 2
Flags: HW
AnchorPoint: "Anchor-4" 376 758 basechar 0
AnchorPoint: "Anchor-3" 424 30 basechar 0
AnchorPoint: "Anchor-2" 379 0 basechar 0
AnchorPoint: "Anchor-1" 597 1414 basechar 0
AnchorPoint: "Anchor-0" 376 1516 basechar 0
LayerCount: 2
Fore
SplineSet
379 174 m 0,0,1
 429 174 429 174 465 227 c 128,-1,2
 501 280 501 280 519.5 406.5 c 128,-1,3
 538 533 538 533 538 753 c 0,4,5
 538 1064 538 1064 496.5 1195.5 c 128,-1,6
 455 1327 455 1327 379 1327 c 0,7,8
 300 1327 300 1327 259 1195.5 c 128,-1,9
 218 1064 218 1064 218 753 c 0,10,11
 218 532 218 532 236.5 406 c 128,-1,12
 255 280 255 280 291 227 c 128,-1,13
 327 174 327 174 379 174 c 0,0,1
379 -27 m 128,-1,15
 261 -27 261 -27 182.5 49.5 c 128,-1,16
 104 126 104 126 65 297.5 c 128,-1,17
 26 469 26 469 26 751 c 0,18,19
 26 1164 26 1164 114.5 1346 c 128,-1,20
 203 1528 203 1528 379 1528 c 0,21,22
 556 1528 556 1528 643 1346 c 128,-1,23
 730 1164 730 1164 730 751 c 0,24,25
 730 469 730 469 690.5 297.5 c 128,-1,26
 651 126 651 126 574 49.5 c 128,-1,14
 497 -27 497 -27 379 -27 c 128,-1,15
EndSplineSet
Substitution2: "Single Substitution lookup 29 subtable" ordmasculine
Substitution2: "'aalt' Access All Alternates in Latin lookup 0 subtable" ordmasculine
EndChar

StartChar: Oslash
Encoding: 216 216 148
Width: 757
VWidth: 2430
GlyphClass: 2
Flags: HW
AnchorPoint: "Anchor-4" 376 758 basechar 0
AnchorPoint: "Anchor-3" 424 30 basechar 0
AnchorPoint: "Anchor-2" 379 0 basechar 0
AnchorPoint: "Anchor-1" 597 1414 basechar 0
AnchorPoint: "Anchor-0" 376 1516 basechar 0
LayerCount: 2
Fore
SplineSet
379 174 m 0,0,1
 429 174 429 174 465 227 c 128,-1,2
 501 280 501 280 519.5 406.5 c 128,-1,3
 538 533 538 533 538 753 c 0,4,5
 538 936 538 936 526 1057 c 1,6,-1
 272 262 l 1,7,8
 309 174 309 174 379 174 c 0,0,1
218 753 m 0,9,10
 218 595 218 595 226 486 c 1,11,-1
 473 1259 l 1,12,13
 436 1327 436 1327 379 1327 c 0,14,15
 300 1327 300 1327 259 1195.5 c 128,-1,16
 218 1064 218 1064 218 753 c 0,9,10
150 -116 m 1,17,-1
 49 -65 l 1,18,-1
 118 144 l 1,19,20
 72 237 72 237 49 387.5 c 128,-1,21
 26 538 26 538 26 751 c 0,22,23
 26 1164 26 1164 114.5 1346 c 128,-1,24
 203 1528 203 1528 379 1528 c 0,25,26
 475 1528 475 1528 543 1477 c 1,27,-1
 599 1658 l 1,28,-1
 700 1604 l 1,29,-1
 628 1378 l 1,30,31
 730 1193 730 1193 730 751 c 0,32,33
 730 469 730 469 690.5 297.5 c 128,-1,34
 651 126 651 126 574 49.5 c 128,-1,35
 497 -27 497 -27 379 -27 c 0,36,37
 270 -27 270 -27 197 34 c 1,38,-1
 150 -116 l 1,17,-1
EndSplineSet
EndChar

StartChar: OE
Encoding: 338 338 154
Width: 709
VWidth: 2430
GlyphClass: 1
Flags: HW
LayerCount: 2
Fore
SplineSet
262 190 m 128,-1,1
 314 190 314 190 325 338 c 1,2,-1
 325 1162 l 1,3,4
 313 1336 313 1336 251 1336 c 0,5,6
 226 1336 226 1336 206.5 1289 c 128,-1,7
 187 1242 187 1242 175.5 1117 c 128,-1,8
 165.703703704 1010.51851852 165.703703704 1010.51851852 165.703703704 827.117969822 c 0,0,0
 165.703703704 795.222222222 165.703703704 795.222222222 166 761 c 0,9,10
 166 464 166 464 188 327 c 128,-1,0
 210 190 210 190 262 190 c 128,-1,1
231 -17 m 0,11,12
 160 -17 160 -17 106 54.5 c 128,-1,13
 52 126 52 126 21.5 295 c 128,-1,14
 -9 464 -9 464 -9 758 c 0,15,16
 -9 1178 -9 1178 54.5 1356.5 c 128,-1,17
 118 1535 118 1535 233 1535 c 0,18,19
 291 1535 291 1535 331 1465 c 1,20,-1
 331 1516 l 1,21,-1
 695 1516 l 1,22,-1
 695 1312 l 1,23,-1
 498 1312 l 1,24,-1
 498 892 l 1,25,-1
 667 892 l 1,26,-1
 667 686 l 1,27,-1
 498 686 l 1,28,-1
 498 202 l 1,29,-1
 693 202 l 1,30,-1
 693 0 l 1,31,-1
 329 0 l 1,32,-1
 329 49 l 1,33,34
 313 15 313 15 285.5 -1 c 128,-1,35
 258 -17 258 -17 231 -17 c 0,11,12
EndSplineSet
EndChar

StartChar: P
Encoding: 80 80 155
Width: 768
VWidth: 2430
GlyphClass: 2
Flags: HW
AnchorPoint: "Anchor-2" 211 0 basechar 0
AnchorPoint: "Anchor-0" 370 1514 basechar 0
LayerCount: 2
Fore
SplineSet
245 839 m 1,0,-1
 370 839 l 2,1,2
 441 839 441 839 483 900.5 c 128,-1,3
 525 962 525 962 525 1069 c 0,4,5
 525 1185 525 1185 483.5 1245 c 128,-1,6
 442 1305 442 1305 370 1305 c 2,7,-1
 245 1305 l 1,8,-1
 245 839 l 1,0,-1
32 0 m 1,9,-1
 32 1514 l 1,10,-1
 378 1514 l 2,11,12
 559 1514 559 1514 647.5 1398.5 c 128,-1,13
 736 1283 736 1283 736 1071 c 0,14,15
 736 874 736 874 643.5 752.5 c 128,-1,16
 551 631 551 631 385 631 c 2,17,-1
 245 631 l 1,18,-1
 245 0 l 1,19,-1
 32 0 l 1,9,-1
EndSplineSet
EndChar

StartChar: Thorn
Encoding: 222 222 156
Width: 768
VWidth: 2430
GlyphClass: 1
Flags: HW
LayerCount: 2
Fore
SplineSet
240 561 m 1,0,-1
 374 561 l 2,1,2
 459 561 459 561 494.5 627 c 128,-1,3
 530 693 530 693 530 795 c 128,-1,4
 530 897 530 897 491.5 967 c 128,-1,5
 453 1037 453 1037 368 1037 c 2,6,-1
 240 1037 l 1,7,-1
 240 561 l 1,0,-1
32 0 m 1,8,-1
 32 1514 l 1,9,-1
 254 1514 l 2,10,11
 256 1512 256 1512 256 1505 c 128,-1,12
 256 1498 256 1498 249 1484 c 128,-1,13
 242 1470 242 1470 240 1440 c 2,14,-1
 240 1249 l 1,15,-1
 385 1249 l 2,16,17
 563 1249 563 1249 649.5 1123 c 128,-1,18
 736 997 736 997 736 802 c 0,19,20
 736 600 736 600 648 481 c 128,-1,21
 560 362 560 362 381 362 c 2,22,-1
 240 362 l 1,23,-1
 240 0 l 1,24,-1
 32 0 l 1,8,-1
EndSplineSet
EndChar

StartChar: Q
Encoding: 81 81 157
Width: 762
VWidth: 2380
GlyphClass: 2
Flags: HW
AnchorPoint: "Anchor-2" 380 84 basechar 0
AnchorPoint: "Anchor-0" 380 1515 basechar 0
LayerCount: 2
Fore
SplineSet
388 254 m 0,0,1
 456 254 456 254 499.5 372 c 128,-1,2
 543 490 543 490 543 768 c 0,3,4
 543 989 543 989 522 1114 c 128,-1,5
 501 1239 501 1239 463.5 1289.5 c 128,-1,6
 426 1340 426 1340 383 1340 c 0,7,8
 306 1340 306 1340 263.5 1217 c 128,-1,9
 221 1094 221 1094 221 823 c 0,10,11
 221 518 221 518 265 386 c 128,-1,12
 309 254 309 254 388 254 c 0,0,1
591 -245 m 1,13,14
 574.253164557 -246.025316456 574.253164557 -246.025316456 558.492709502 -246.025316456 c 0,15,16
 435.911392405 -246.025316456 435.911392405 -246.025316456 373 -184 c 0,17,18
 302 -114 302 -114 302 70 c 1,19,20
 174 109 174 109 102 278 c 128,-1,21
 30 447 30 447 30 794 c 0,22,23
 30 1013 30 1013 58.5 1156 c 128,-1,24
 87 1299 87 1299 136 1382 c 128,-1,25
 185 1465 185 1465 249 1499 c 128,-1,26
 313 1533 313 1533 383 1533 c 0,27,28
 479 1533 479 1533 559.5 1468 c 128,-1,29
 640 1403 640 1403 687 1242 c 128,-1,30
 734 1081 734 1081 734 798 c 0,31,32
 734 557 734 557 703.5 405.5 c 128,-1,33
 673 254 673 254 615.5 174.5 c 128,-1,34
 558 95 558 95 475 70 c 1,35,36
 479 4 479 4 499 -32 c 128,-1,37
 519 -68 519 -68 567 -68 c 2,38,-1
 677 -61 l 1,39,-1
 675 -245 l 1,40,-1
 591 -245 l 1,13,14
EndSplineSet
EndChar

StartChar: R
Encoding: 82 82 158
Width: 768
VWidth: 2430
GlyphClass: 2
Flags: HW
AnchorPoint: "Anchor-2" 366 0 basechar 0
AnchorPoint: "Anchor-0" 366 1514 basechar 0
LayerCount: 2
Fore
SplineSet
239 839 m 1,0,-1
 359 839 l 2,1,2
 425 839 425 839 462.5 894.5 c 128,-1,3
 500 950 500 950 500 1074 c 0,4,5
 500 1190 500 1190 462.5 1247.5 c 128,-1,6
 425 1305 425 1305 359 1305 c 2,7,-1
 239 1305 l 1,8,-1
 239 839 l 1,0,-1
32 0 m 1,9,-1
 32 1514 l 1,10,-1
 343 1514 l 2,11,12
 529 1514 529 1514 618 1399.5 c 128,-1,13
 707 1285 707 1285 707 1076 c 0,14,15
 707 913 707 913 659 811.5 c 128,-1,16
 611 710 611 710 522 666 c 1,17,-1
 736 0 l 1,18,-1
 531 0 l 1,19,-1
 329 640 l 1,20,-1
 239 640 l 1,21,-1
 239 0 l 1,22,-1
 32 0 l 1,9,-1
EndSplineSet
EndChar

StartChar: S
Encoding: 83 83 166
Width: 768
VWidth: 2430
GlyphClass: 2
Flags: HW
AnchorPoint: "Anchor-2" 385 0 basechar 0
AnchorPoint: "Anchor-0" 397 1514 basechar 0
LayerCount: 2
Fore
SplineSet
371 -24 m 0,0,1
 153 -24 153 -24 32 126 c 1,2,-1
 119 350 l 1,3,-1
 126 374 l 1,4,-1
 142 364 l 1,5,6
 151 347 151 347 154 323 c 128,-1,7
 157 299 157 299 180 265 c 1,8,9
 218 226 218 226 264 203 c 128,-1,10
 310 180 310 180 364 180 c 0,11,12
 442 180 442 180 485 237 c 128,-1,13
 528 294 528 294 528 401 c 0,14,15
 528 454 528 454 516.5 500.5 c 128,-1,16
 505 547 505 547 466 592 c 128,-1,17
 427 637 427 637 348 693 c 1,18,19
 198 786 198 786 135 891.5 c 128,-1,20
 72 997 72 997 72 1147 c 0,21,22
 72 1332 72 1332 164 1433.5 c 128,-1,23
 256 1535 256 1535 400 1535 c 0,24,25
 598 1535 598 1535 710 1375 c 1,26,-1
 622 1181 l 1,27,-1
 613 1159 l 1,28,-1
 597 1169 l 1,29,30
 590 1186 590 1186 587 1211 c 128,-1,31
 584 1236 584 1236 561 1268 c 1,32,33
 528 1305 528 1305 493 1318 c 128,-1,34
 458 1331 458 1331 416 1331 c 0,35,36
 353 1331 353 1331 315 1286.5 c 128,-1,37
 277 1242 277 1242 277 1159 c 0,38,39
 277 1101 277 1101 292.5 1055 c 128,-1,40
 308 1009 308 1009 351.5 962.5 c 128,-1,41
 395 916 395 916 481 860 c 0,42,43
 625 767 625 767 680.5 664 c 128,-1,44
 736 561 736 561 736 422 c 0,45,46
 736 225 736 225 639.5 100.5 c 128,-1,47
 543 -24 543 -24 371 -24 c 0,0,1
EndSplineSet
EndChar

StartChar: uni1E9E
Encoding: 7838 7838 177
Width: 768
VWidth: 2430
GlyphClass: 1
Flags: HW
LayerCount: 2
Fore
SplineSet
449 -24 m 0,0,1
 351 -24 351 -24 284 34 c 1,2,-1
 331 225 l 1,3,4
 367.347826087 182.913043478 367.347826087 182.913043478 410.100189036 182.913043478 c 0,0,0
 412.043478261 182.913043478 412.043478261 182.913043478 414 183 c 0,5,6
 470 183 470 183 502 253 c 128,-1,7
 534 323 534 323 534 459 c 0,8,9
 534 585 534 585 497.5 667 c 128,-1,10
 461 749 461 749 358 749 c 2,11,-1
 319 749 l 1,12,-1
 319 955 l 1,13,-1
 482 1213 l 1,14,15
 482 1306 482 1306 455.5 1366 c 128,-1,16
 429 1426 429 1426 365 1426 c 0,17,18
 307 1426 307 1426 270 1359.5 c 128,-1,19
 233 1293 233 1293 233 1143 c 2,20,-1
 233 0 l 1,21,-1
 32 0 l 1,22,-1
 32 1108 l 2,23,24
 32 1310 32 1310 77.5 1422.5 c 128,-1,25
 123 1535 123 1535 198.5 1581.5 c 128,-1,26
 274 1628 274 1628 363 1628 c 0,27,28
 512 1628 512 1628 591.5 1511.5 c 128,-1,29
 671 1395 671 1395 671 1178 c 1,30,-1
 496 928 l 1,31,32
 620 884 620 884 678 756.5 c 128,-1,33
 736 629 736 629 736 440 c 0,34,35
 736 206 736 206 659 91 c 128,-1,36
 582 -24 582 -24 449 -24 c 0,0,1
EndSplineSet
EndChar

StartChar: T
Encoding: 84 84 179
Width: 768
VWidth: 2430
GlyphClass: 2
Flags: HW
AnchorPoint: "Anchor-4" 376 758 basechar 0
AnchorPoint: "Anchor-2" 385 0 basechar 0
AnchorPoint: "Anchor-0" 385 1514 basechar 0
LayerCount: 2
Fore
SplineSet
280 0 m 1,0,-1
 280 1308 l 1,1,-1
 32 1308 l 1,2,-1
 32 1516 l 1,3,-1
 736 1516 l 1,4,-1
 736 1308 l 1,5,-1
 474 1308 l 1,6,-1
 474 0 l 1,7,-1
 280 0 l 1,0,-1
EndSplineSet
EndChar

StartChar: Tbar
Encoding: 358 358 180
Width: 768
VWidth: 2430
GlyphClass: 2
Flags: HW
AnchorPoint: "Anchor-4" 376 758 basechar 0
AnchorPoint: "Anchor-2" 385 0 basechar 0
AnchorPoint: "Anchor-0" 385 1514 basechar 0
LayerCount: 2
Fore
SplineSet
280 0 m 1,0,-1
 280 675 l 1,1,-1
 109 675 l 1,2,-1
 109 860 l 1,3,-1
 280 860 l 1,4,-1
 280 1308 l 1,5,-1
 32 1308 l 1,6,-1
 32 1516 l 1,7,-1
 736 1516 l 1,8,-1
 736 1308 l 1,9,-1
 474 1308 l 1,10,-1
 474 860 l 1,11,-1
 642 860 l 1,12,-1
 642 675 l 1,13,-1
 474 675 l 1,14,-1
 474 0 l 1,15,-1
 280 0 l 1,0,-1
EndSplineSet
EndChar

StartChar: U
Encoding: 85 85 186
Width: 768
VWidth: 2430
GlyphClass: 2
Flags: HW
AnchorPoint: "Anchor-3" 448 24 basechar 0
AnchorPoint: "Anchor-2" 381 0 basechar 0
AnchorPoint: "Anchor-1" 723 1514 basechar 0
AnchorPoint: "Anchor-0" 381 1514 basechar 0
LayerCount: 2
Fore
SplineSet
383 -30 m 0,0,1
 194 -30 194 -30 113 104 c 128,-1,2
 32 238 32 238 32 496 c 2,3,-1
 32 1514 l 1,4,-1
 261 1514 l 1,5,-1
 261 1495 l 1,6,7
 249 1481 249 1481 246 1463.5 c 128,-1,8
 243 1446 243 1446 243 1405 c 2,9,-1
 243 494 l 2,10,11
 243 334 243 334 272.5 253 c 0,12,13
 301.289156627 173.951807229 301.289156627 173.951807229 379.126288286 173.951807229 c 0,14,15
 381.048192771 173.951807229 381.048192771 173.951807229 383 174 c 0,16,17
 466 174 466 174 496.5 259.5 c 128,-1,18
 527 345 527 345 527 501 c 2,19,-1
 527 1514 l 1,20,-1
 736 1514 l 1,21,-1
 736 503 l 2,22,23
 736 218 736 218 646 95 c 128,-1,24
 556 -28 556 -28 383 -30 c 0,0,1
EndSplineSet
EndChar

StartChar: V
Encoding: 86 86 209
Width: 735
VWidth: 2430
GlyphClass: 2
Flags: HW
AnchorPoint: "Anchor-2" 363 0 basechar 0
AnchorPoint: "Anchor-0" 363 1514 basechar 0
LayerCount: 2
Fore
SplineSet
299 -7 m 1,0,-1
 14 1516 l 1,1,-1
 201 1516 l 1,2,-1
 375 494 l 1,3,-1
 535 1514 l 1,4,-1
 718 1514 l 1,5,-1
 439 -7 l 1,6,-1
 299 -7 l 1,0,-1
EndSplineSet
EndChar

StartChar: W
Encoding: 87 87 210
Width: 699
VWidth: 2430
GlyphClass: 2
Flags: HW
AnchorPoint: "Anchor-2" 341 0 basechar 0
AnchorPoint: "Anchor-0" 351 1514 basechar 0
LayerCount: 2
Fore
SplineSet
115 0 m 1,0,-1
 -10 1514 l 1,1,-1
 146 1514 l 1,2,-1
 202 629 l 1,3,-1
 309 1347 l 1,4,-1
 398 1347 l 1,5,-1
 504 629 l 1,6,-1
 548 1514 l 1,7,-1
 694 1514 l 1,8,-1
 571 0 l 1,9,-1
 464 0 l 1,10,-1
 347 839 l 1,11,-1
 226 0 l 1,12,-1
 115 0 l 1,0,-1
EndSplineSet
EndChar

StartChar: X
Encoding: 88 88 215
Width: 788
VWidth: 2430
GlyphClass: 2
Flags: HW
AnchorPoint: "Anchor-2" 376 0 basechar 0
AnchorPoint: "Anchor-0" 376 1514 basechar 0
LayerCount: 2
Fore
SplineSet
32 0 m 1,0,-1
 268 772 l 1,1,-1
 36 1516 l 1,2,-1
 227 1516 l 1,3,-1
 376 1020 l 1,4,-1
 525 1516 l 1,5,-1
 704 1516 l 1,6,-1
 487 775 l 1,7,-1
 736 0 l 1,8,-1
 543 0 l 1,9,-1
 378 520 l 1,10,-1
 219 0 l 1,11,-1
 32 0 l 1,0,-1
EndSplineSet
EndChar

StartChar: Y
Encoding: 89 89 216
Width: 747
VWidth: 2430
GlyphClass: 2
Flags: HW
AnchorPoint: "Anchor-2" 385 0 basechar 0
AnchorPoint: "Anchor-0" 369 1514 basechar 0
LayerCount: 2
Fore
SplineSet
288 0 m 1,0,-1
 288 566 l 1,1,-1
 21 1514 l 1,2,-1
 212 1514 l 1,3,-1
 385 874 l 1,4,-1
 541 1514 l 1,5,-1
 725 1514 l 1,6,-1
 476 566 l 1,7,-1
 476 0 l 1,8,-1
 288 0 l 1,0,-1
EndSplineSet
EndChar

StartChar: Z
Encoding: 90 90 226
Width: 768
VWidth: 2430
GlyphClass: 2
Flags: HW
AnchorPoint: "Anchor-2" 403 0 basechar 0
AnchorPoint: "Anchor-0" 389 1514 basechar 0
LayerCount: 2
Fore
SplineSet
32 136 m 1,0,-1
 477 1308 l 1,1,-1
 51 1308 l 1,2,-1
 51 1514 l 1,3,-1
 716 1514 l 1,4,-1
 716 1378 l 1,5,-1
 275 206 l 1,6,-1
 632 206 l 2,7,8
 672 206 672 206 687.5 211 c 128,-1,9
 703 216 703 216 718 231 c 1,10,-1
 736 231 l 1,11,-1
 736 0 l 1,12,-1
 32 0 l 1,13,-1
 32 136 l 1,0,-1
EndSplineSet
EndChar

StartChar: a
Encoding: 97 97 232
Width: 768
VWidth: 2430
GlyphClass: 2
Flags: HW
AnchorPoint: "Anchor-3" 630 0 basechar 0
AnchorPoint: "Anchor-2" 370 0 basechar 0
AnchorPoint: "Anchor-0" 393 1106 basechar 0
LayerCount: 2
Fore
SplineSet
237 331 m 0,0,1
 237 256 237 256 268.5 211.5 c 128,-1,2
 300 167 300 167 351 167 c 0,3,4
 438 167 438 167 481 250 c 128,-1,5
 524 333 524 333 529 517 c 1,6,7
 513 519 513 519 494.5 519.5 c 128,-1,8
 476 520 476 520 459 520 c 0,9,10
 344 520 344 520 290.5 474 c 128,-1,11
 237 428 237 428 237 331 c 0,0,1
305 -27 m 0,12,13
 174 -27 174 -27 103 66.5 c 128,-1,14
 32 160 32 160 32 301 c 0,15,16
 32 505 32 505 145.5 607.5 c 128,-1,17
 259 710 259 710 457 710 c 0,18,19
 486 710 486 710 526 705 c 1,20,21
 519 865 519 865 480.5 915 c 128,-1,22
 442 965 442 965 368 965 c 0,23,24
 313 965 313 965 269 943 c 128,-1,25
 225 921 225 921 179 865 c 1,26,-1
 71 1009 l 1,27,28
 131 1077 131 1077 209 1117 c 128,-1,29
 287 1157 287 1157 389 1157 c 0,30,31
 497 1157 497 1157 574.5 1113 c 128,-1,32
 652 1069 652 1069 694 951 c 128,-1,33
 736 833 736 833 736 615 c 2,34,-1
 736 0 l 1,35,-1
 526 0 l 1,36,-1
 526 116 l 1,37,38
 485 33 485 33 429.5 3 c 128,-1,39
 374 -27 374 -27 305 -27 c 0,12,13
EndSplineSet
Substitution2: "Single Substitution lookup 29 subtable" ordfeminine
Substitution2: "'aalt' Access All Alternates in Latin lookup 0 subtable" ordfeminine
EndChar

StartChar: ae
Encoding: 230 230 257
Width: 684
VWidth: 2430
GlyphClass: 1
Flags: HW
LayerCount: 2
Fore
SplineSet
189 153 m 0,0,1
 236 153 236 153 247.5 247 c 128,-1,2
 259 341 259 341 259 515 c 1,3,4
 185 510 185 510 156.5 455.5 c 128,-1,5
 128 401 128 401 128 304 c 0,6,7
 128 153 128 153 189 153 c 0,0,1
399 702 m 1,8,-1
 540 710 l 1,9,10
 540 842 540 842 523 903.5 c 128,-1,11
 506 965 506 965 473 965 c 0,12,13
 399 964 399 964 399 702 c 1,8,-1
177 -27 m 0,14,15
 85 -27 85 -27 31.5 64 c 128,-1,16
 -22 155 -22 155 -22 304 c 0,17,18
 -22 491 -22 491 45.5 583 c 128,-1,19
 113 675 113 675 257 693 c 1,20,21
 257 834 257 834 235.5 899.5 c 128,-1,22
 214 965 214 965 171 965 c 0,23,24
 114 965 114 965 72 882 c 1,25,-1
 5 1023 l 1,26,27
 71 1144 71 1144 185 1145 c 0,28,29
 234 1145 234 1145 277 1106 c 128,-1,30
 320 1067 320 1067 338 1013 c 1,31,32
 358 1069 358 1069 399 1107 c 128,-1,33
 440 1145 440 1145 481 1145 c 0,34,35
 583 1145 583 1145 629.5 1017.5 c 128,-1,36
 676 890 676 890 676 647 c 2,37,-1
 676 547 l 1,38,-1
 399 533 l 1,39,-1
 399 427 l 2,40,41
 399 295 399 295 428.5 221.5 c 128,-1,42
 458 148 458 148 514 148 c 0,43,44
 575 148 575 148 614 225 c 1,45,-1
 682 90 l 1,46,47
 612 -26 612 -26 506 -27 c 0,48,49
 459 -27 459 -27 409.5 6 c 128,-1,50
 360 39 360 39 331 102 c 1,51,52
 306 41 306 41 266 7 c 128,-1,53
 226 -27 226 -27 177 -27 c 0,14,15
EndSplineSet
EndChar

StartChar: b
Encoding: 98 98 259
Width: 768
VWidth: 2430
GlyphClass: 2
Flags: HW
AnchorPoint: "Anchor-2" 548 0 basechar 0
AnchorPoint: "Anchor-0" 548 1115 basechar 0
LayerCount: 2
Fore
SplineSet
383 170 m 0,0,1
 429 170 429 170 463 199.5 c 128,-1,2
 497 229 497 229 516.5 311.5 c 128,-1,3
 536 394 536 394 536 556 c 0,4,5
 536 785 536 785 497.5 875 c 128,-1,6
 459 965 459 965 386 965 c 0,7,8
 321 965 321 965 278 866.5 c 128,-1,9
 235 768 235 768 235 559 c 0,10,11
 235 353 235 353 271.5 261.5 c 128,-1,12
 308 170 308 170 383 170 c 0,0,1
423 -27 m 0,13,14
 361 -27 361 -27 306 11 c 128,-1,15
 251 49 251 49 220 129 c 1,16,-1
 198 0 l 1,17,-1
 32 0 l 1,18,-1
 32 1621 l 1,19,-1
 253 1621 l 1,20,-1
 253 1602 l 1,21,22
 242 1588 242 1588 238.5 1570.5 c 128,-1,23
 235 1553 235 1553 235 1512 c 2,24,-1
 235 992 l 1,25,26
 268 1077 268 1077 325.5 1118 c 0,27,28
 380.325581395 1157.09302326 380.325581395 1157.09302326 435.605732829 1157.09302326 c 0,29,30
 438.302325581 1157.09302326 438.302325581 1157.09302326 441 1157 c 0,31,32
 532 1157 532 1157 597.5 1104.5 c 128,-1,33
 663 1052 663 1052 699.5 924.5 c 128,-1,34
 736 797 736 797 736 573 c 0,35,36
 736 337 736 337 693 207.5 c 128,-1,37
 650 78 650 78 579.5 25.5 c 128,-1,38
 509 -27 509 -27 423 -27 c 0,13,14
EndSplineSet
EndChar

StartChar: c
Encoding: 99 99 261
Width: 768
VWidth: 2430
GlyphClass: 2
Flags: HW
AnchorPoint: "Anchor-2" 425 0 basechar 0
AnchorPoint: "Anchor-0" 425 1132 basechar 0
LayerCount: 2
Fore
SplineSet
438 -27 m 0,0,1
 252 -27 252 -27 142 121 c 128,-1,2
 32 269 32 269 32 561 c 0,3,4
 32 760 32 760 85 892.5 c 128,-1,5
 138 1025 138 1025 228 1091 c 128,-1,6
 318 1157 318 1157 428 1157 c 0,7,8
 535 1157 535 1157 613 1109.5 c 128,-1,9
 691 1062 691 1062 736 977 c 1,10,-1
 643 814 l 1,11,-1
 634 795 l 1,12,-1
 616 802 l 1,13,14
 611 821 611 821 609 843 c 128,-1,15
 607 865 607 865 584 895 c 1,16,17
 529 948 529 948 445 948 c 0,18,19
 393 948 393 948 346.5 912.5 c 128,-1,20
 300 877 300 877 270 792 c 128,-1,21
 240 707 240 707 240 561 c 0,22,23
 240 352 240 352 300.5 262 c 128,-1,24
 361 172 361 172 447 172 c 0,25,26
 556 172 556 172 631 287 c 1,27,-1
 721 112 l 1,28,29
 669 42 669 42 594 7.5 c 128,-1,30
 519 -27 519 -27 438 -27 c 0,0,1
EndSplineSet
EndChar

StartChar: d
Encoding: 100 100 268
Width: 768
VWidth: 2430
GlyphClass: 2
Flags: HW
AnchorPoint: "Anchor-4" 564 1344 basechar 0
AnchorPoint: "Anchor-2" 386 0 basechar 0
AnchorPoint: "Anchor-1" 743 1115 basechar 0
AnchorPoint: "Anchor-0" 386 1115 basechar 0
LayerCount: 2
Fore
SplineSet
370 174 m 0,0,1
 513.006896552 174 513.006896552 174 513.006896552 558.639239001 c 0,2,3
 513.006896552 561.310344828 513.006896552 561.310344828 513 564 c 0,4,5
 513 773 513 773 477.5 869 c 128,-1,6
 442 965 442 965 372 965 c 0,7,8
 303 965 303 965 266 879 c 128,-1,9
 229 793 229 793 229 586 c 0,10,11
 229 361 229 361 270.5 267.5 c 128,-1,12
 312 174 312 174 370 174 c 0,0,1
328 -24 m 0,13,14
 247 -24 247 -24 180 28.5 c 128,-1,15
 113 81 113 81 72.5 211 c 128,-1,16
 32 341 32 341 32 568 c 0,17,18
 32 789 32 789 70.5 918.5 c 128,-1,19
 109 1048 109 1048 175.5 1103.5 c 128,-1,20
 242 1159 242 1159 333 1159 c 0,21,22
 400 1159 400 1159 447.5 1122.5 c 128,-1,23
 495 1086 495 1086 516 1006 c 1,24,-1
 516 1621 l 1,25,-1
 736 1621 l 1,26,-1
 736 1602 l 1,27,28
 722 1588 722 1588 718.5 1570.5 c 128,-1,29
 715 1553 715 1553 715 1512 c 2,30,-1
 715 163 l 2,31,32
 715 121 715 121 717 81.5 c 128,-1,33
 719 42 719 42 731 0 c 1,34,-1
 537 0 l 1,35,36
 526 34 526 34 521 61 c 128,-1,37
 516 88 516 88 516 129 c 1,38,39
 485 57 485 57 434 16.5 c 128,-1,40
 383 -24 383 -24 328 -24 c 0,13,14
EndSplineSet
EndChar

StartChar: eth
Encoding: 240 240 269
Width: 768
VWidth: 2430
GlyphClass: 1
Flags: HW
LayerCount: 2
Fore
SplineSet
394 167 m 0,0,1
 456 167 456 167 497.5 252.5 c 128,-1,2
 539 338 539 338 539 561 c 0,3,4
 539 753 539 753 494 848 c 128,-1,5
 449 943 449 943 389 943 c 0,6,7
 325 941 325 941 278 852 c 128,-1,8
 231 763 231 763 231 561 c 0,9,10
 231 362 231 362 278 264.5 c 128,-1,11
 325 167 325 167 394 167 c 0,0,1
391 -32 m 0,12,13
 292 -32 292 -32 210.5 25.5 c 128,-1,14
 129 83 129 83 80.5 208 c 128,-1,15
 32 333 32 333 32 540 c 0,16,17
 32 846 32 846 124.5 991.5 c 128,-1,18
 217 1137 217 1137 347 1137 c 0,19,20
 453 1137 453 1137 507 1060 c 1,21,22
 489 1125 489 1125 460.5 1187 c 128,-1,23
 432 1249 432 1249 398 1298 c 1,24,-1
 235 1234 l 1,25,-1
 176 1387 l 1,26,-1
 308 1440 l 1,27,28
 273 1484 273 1484 240.5 1522 c 128,-1,29
 208 1560 208 1560 162 1589 c 1,30,-1
 356 1640 l 1,31,32
 391 1608 391 1608 420 1579.5 c 128,-1,33
 449 1551 449 1551 481 1507 c 1,34,-1
 646 1572 l 1,35,-1
 701 1417 l 1,36,-1
 578 1363 l 1,37,38
 655 1224 655 1224 695.5 1047 c 128,-1,39
 736 870 736 870 736 615 c 0,40,41
 736 260 736 260 645.5 114 c 128,-1,42
 555 -32 555 -32 391 -32 c 0,12,13
EndSplineSet
EndChar

StartChar: dcaron
Encoding: 271 271 270
Width: 727
VWidth: 2430
GlyphClass: 1
Flags: HW
LayerCount: 2
Fore
SplineSet
262 172 m 0,0,1
 365 172 365 172 366 561 c 0,2,3
 366 777 366 777 341.5 873 c 128,-1,4
 317 969 317 969 271 969 c 0,5,6
 243 969 243 969 221.5 936.5 c 128,-1,7
 200 904 200 904 188 821.5 c 128,-1,8
 176 739 176 739 176 591 c 0,9,10
 176 428 176 428 188 337 c 128,-1,11
 200 246 200 246 219 209 c 128,-1,12
 238 172 238 172 262 172 c 0,0,1
226 -24 m 0,13,14
 166 -24 166 -24 118.5 22 c 128,-1,15
 71 68 71 68 43 196.5 c 128,-1,16
 15 325 15 325 15 566 c 0,17,18
 15 800 15 800 39.5 928.5 c 128,-1,19
 64 1057 64 1057 112.5 1108 c 128,-1,20
 161 1159 161 1159 228 1159 c 0,21,22
 286 1159 286 1159 319 1122.5 c 128,-1,23
 352 1086 352 1086 366 1001 c 1,24,-1
 366 1618 l 1,25,-1
 549 1618 l 1,26,-1
 549 1599 l 1,27,28
 538 1585 538 1585 533.5 1568 c 128,-1,29
 529 1551 529 1551 531 1509 c 2,30,-1
 529 170 l 2,31,32
 529 126 529 126 531 85 c 128,-1,33
 533 44 533 44 542 0 c 1,34,-1
 383 0 l 1,35,36
 372 30 372 30 367 57.5 c 128,-1,37
 362 85 362 85 362 129 c 1,38,39
 343 57 343 57 303 16.5 c 128,-1,40
 263 -24 263 -24 226 -24 c 0,13,14
637 1623 m 0,41,42
 674 1623 674 1623 696.5 1588 c 128,-1,43
 719 1553 719 1553 719 1487 c 0,44,45
 719 1324 719 1324 621 1103 c 1,46,-1
 535 1162 l 1,47,48
 563 1218 563 1218 580.5 1268.5 c 128,-1,49
 598 1319 598 1319 598 1363 c 0,50,51
 598 1390 598 1390 587 1409.5 c 128,-1,52
 576 1429 576 1429 566.5 1453 c 128,-1,53
 558.652173913 1472.82608696 558.652173913 1472.82608696 558.652173913 1506.30056711 c 0,0,0
 558.652173913 1513.34782609 558.652173913 1513.34782609 559 1521 c 0,54,55
 559 1565 559 1565 581.5 1594 c 128,-1,56
 604 1623 604 1623 637 1623 c 0,41,42
EndSplineSet
EndChar

StartChar: e
Encoding: 101 101 274
Width: 768
VWidth: 2430
GlyphClass: 2
Flags: HW
AnchorPoint: "Anchor-3" 504 24 basechar 0
AnchorPoint: "Anchor-2" 438 0 basechar 0
AnchorPoint: "Anchor-0" 403 1115 basechar 0
LayerCount: 2
Fore
SplineSet
241 688 m 1,0,-1
 532 688 l 1,1,2
 532 829 532 829 501 894.5 c 128,-1,3
 470 960 470 960 395 960 c 0,4,5
 333 960 333 960 293 897 c 128,-1,6
 253 834 253 834 241 688 c 1,0,-1
424 -24 m 0,7,8
 246 -24 246 -24 139 114.5 c 128,-1,9
 32 253 32 253 32 554 c 0,10,11
 32 870 32 870 133 1013.5 c 128,-1,12
 234 1157 234 1157 403 1157 c 0,13,14
 557 1157 557 1157 646.5 1026 c 128,-1,15
 736 895 736 895 736 589 c 0,16,17
 736 565 736 565 736 541 c 128,-1,18
 736 517 736 517 734 496 c 1,19,-1
 239 496 l 1,20,21
 244 313 244 313 298 243.5 c 128,-1,22
 352 174 352 174 433 172 c 0,23,24
 488 172 488 172 531.5 198.5 c 128,-1,25
 575 225 575 225 609 274 c 1,26,-1
 715 139 l 1,27,28
 665 64 665 64 590.5 20 c 128,-1,29
 516 -24 516 -24 424 -24 c 0,7,8
EndSplineSet
EndChar

StartChar: uni029A
Encoding: 666 666 296
Width: 768
VWidth: 2430
GlyphClass: 1
Flags: HW
LayerCount: 2
Fore
SplineSet
364 170 m 0,0,1
 454 170 454 170 496 257.5 c 128,-1,2
 538 345 538 345 538 561 c 0,3,4
 538 770 538 770 500.5 864 c 128,-1,5
 463 958 463 958 378 958 c 0,6,7
 321 958 321 958 294 914 c 128,-1,8
 267 870 267 870 267 816 c 0,9,10
 267 755 267 755 290.5 720.5 c 128,-1,11
 314 686 314 686 364 686 c 0,12,13
 380 686 380 686 392 686 c 128,-1,14
 404 686 404 686 419 688 c 1,15,-1
 419 489 l 1,16,17
 393 491 393 491 383 493.5 c 128,-1,18
 373 496 373 496 353 496 c 0,19,20
 230 496 230 496 230 338 c 0,21,22
 230 266 230 266 265 218 c 128,-1,23
 300 170 300 170 364 170 c 0,0,1
358 -30 m 0,24,25
 201 -28 201 -28 116.5 68.5 c 128,-1,26
 32 165 32 165 32 333 c 0,27,28
 32 437 32 437 71.5 507.5 c 128,-1,29
 111 578 111 578 173 608 c 1,30,31
 122 650 122 650 95.5 711 c 128,-1,32
 69 772 69 772 69 846 c 0,33,34
 69 982 69 982 152 1064.5 c 128,-1,35
 235 1147 235 1147 362 1147 c 0,36,37
 736 1147 736 1147 736 561 c 0,38,39
 736 257 736 257 638 113.5 c 128,-1,40
 540 -30 540 -30 358 -30 c 0,24,25
EndSplineSet
EndChar

StartChar: f
Encoding: 102 102 300
Width: 787
VWidth: 2430
GlyphClass: 1
Flags: HW
LayerCount: 2
Fore
SplineSet
183 935 m 1,0,-1
 32 935 l 1,1,-1
 32 1130 l 1,2,-1
 183 1130 l 1,3,-1
 183 1201 l 2,4,5
 183 1352 183 1352 226.5 1449 c 128,-1,6
 270 1546 270 1546 340.5 1591.5 c 128,-1,7
 411 1637 411 1637 489 1637 c 0,8,9
 558 1637 558 1637 627 1602 c 128,-1,10
 696 1567 696 1567 736 1497 c 1,11,-1
 672 1327 l 1,12,-1
 663 1305 l 1,13,-1
 647 1312 l 1,14,15
 640 1331 640 1331 634.5 1352 c 128,-1,16
 629 1373 629 1373 602 1403 c 0,17,18
 564.051282051 1438.1025641 564.051282051 1438.1025641 511.701512163 1438.1025641 c 0,0,0
 508.871794872 1438.1025641 508.871794872 1438.1025641 506 1438 c 0,19,20
 448 1438 448 1438 413 1381 c 128,-1,21
 378 1324 378 1324 378 1203 c 2,22,-1
 378 1130 l 1,23,-1
 587 1130 l 1,24,-1
 587 935 l 1,25,-1
 378 935 l 1,26,-1
 378 0 l 1,27,-1
 183 0 l 1,28,-1
 183 935 l 1,0,-1
EndSplineSet
EndChar

StartChar: g
Encoding: 103 103 301
Width: 743
VWidth: 2286
GlyphClass: 2
Flags: HW
AnchorPoint: "Anchor-2" 367 -221 basechar 0
AnchorPoint: "Anchor-0" 342 1121 basechar 0
LayerCount: 2
Fore
SplineSet
190 43 m 0,0,1
 190 -19 190 -19 239 -50 c 128,-1,2
 288 -81 288 -81 365 -81 c 0,3,4
 443 -81 443 -81 484 -43 c 128,-1,5
 525 -5 525 -5 525 49 c 0,6,7
 525 111 525 111 495 135 c 128,-1,8
 465 159 465 159 394 159 c 0,9,10
 353 159 353 159 314 162.5 c 128,-1,11
 275 166 275 166 241 174 c 1,12,13
 217 146 217 146 203.5 115 c 128,-1,14
 190 84 190 84 190 43 c 0,0,1
342 625 m 0,15,16
 441 625 441 625 441 812 c 0,17,18
 441 995 441 995 342 996 c 0,19,20
 245 996 245 996 245 812 c 0,21,22
 245 625 245 625 342 625 c 0,15,16
342 467 m 0,23,24
 297 467 297 467 258 478 c 1,25,26
 245 463 245 463 236 447 c 128,-1,27
 227 431 227 431 227 413 c 0,28,29
 227 374 227 374 274.5 356 c 128,-1,30
 322 338 322 338 443 338 c 0,31,32
 577 338 577 338 632 266.5 c 128,-1,33
 687 195 687 195 687 71 c 0,34,35
 687 -15 687 -15 651.5 -86.5 c 128,-1,36
 616 -158 616 -158 542.5 -202 c 128,-1,37
 469 -246 469 -246 357 -246 c 0,38,39
 199 -246 199 -246 115 -180 c 128,-1,40
 31 -114 31 -114 31 16 c 0,41,42
 31 86 31 86 59 139.5 c 128,-1,43
 87 193 87 193 128 226 c 1,44,45
 102 250 102 250 88 284 c 128,-1,46
 74 318 74 318 74 366 c 0,47,48
 76 415 76 415 99 459.5 c 128,-1,49
 122 504 122 504 157 543 c 1,50,51
 73 634 73 634 72 812 c 0,52,53
 72 978 72 978 147.5 1071 c 128,-1,54
 223 1164 223 1164 342 1164 c 0,55,56
 459 1164 459 1164 529 1080 c 1,57,58
 568 1121 568 1121 611.5 1140.5 c 0,59,60
 647.595744681 1156.68085106 647.595744681 1156.68085106 690.232684473 1156.68085106 c 0,61,62
 698.978723404 1156.68085106 698.978723404 1156.68085106 708 1156 c 1,63,-1
 721 998 l 1,64,65
 705.4 1000.81666667 705.4 1000.81666667 690.457222222 1000.81666667 c 0,66,67
 636.433333333 1000.81666667 636.433333333 1000.81666667 591 964 c 1,68,69
 610 898 610 898 611 812 c 0,70,71
 611 639 611 639 534 553 c 128,-1,72
 457 467 457 467 342 467 c 0,23,24
EndSplineSet
EndChar

StartChar: h
Encoding: 104 104 308
Width: 746
VWidth: 2430
GlyphClass: 2
Flags: HW
AnchorPoint: "Anchor-4" 167 1336 basechar 0
AnchorPoint: "Anchor-2" 367 0 basechar 0
AnchorPoint: "Anchor-0" 144 1621 basechar 0
LayerCount: 2
Fore
SplineSet
32 1621 m 1,0,-1
 265 1621 l 1,1,-1
 265 1602 l 1,2,3
 251 1588 251 1588 247 1570.5 c 128,-1,4
 243 1553 243 1553 243 1512 c 2,5,-1
 243 972 l 1,6,7
 282 1067 282 1067 344 1112 c 128,-1,8
 406 1157 406 1157 479 1157 c 0,9,10
 595 1157 595 1157 654.5 1053.5 c 128,-1,11
 714 950 714 950 714 695 c 2,12,-1
 714 0 l 1,13,-1
 503 0 l 1,14,-1
 503 691 l 2,15,16
 503 842 503 842 478.5 898.5 c 128,-1,17
 454 955 454 955 406 955 c 0,18,19
 341 955 341 955 292 876 c 128,-1,20
 243 797 243 797 243 644 c 2,21,-1
 243 0 l 1,22,-1
 32 0 l 1,23,-1
 32 1621 l 1,0,-1
EndSplineSet
EndChar

StartChar: i
Encoding: 105 105 313
Width: 649
VWidth: 2430
GlyphClass: 2
Flags: HW
AnchorPoint: "Anchor-3" 484 0 basechar 0
AnchorPoint: "Anchor-2" 325 0 basechar 0
AnchorPoint: "Anchor-0" 325 1492 basechar 0
LayerCount: 2
Fore
SplineSet
32 0 m 1,0,-1
 32 197 l 1,1,-1
 229 197 l 1,2,-1
 229 933 l 1,3,-1
 39 933 l 1,4,-1
 39 1130 l 1,5,-1
 438 1130 l 1,6,-1
 438 197 l 1,7,-1
 617 197 l 1,8,-1
 617 0 l 1,9,-1
 32 0 l 1,0,-1
323 1347 m 0,10,11
 265 1347 265 1347 225 1388 c 128,-1,12
 185 1429 185 1429 185 1484 c 0,13,14
 185 1542 185 1542 225 1584 c 128,-1,15
 265 1626 265 1626 323 1626 c 0,16,17
 379 1626 379 1626 420.5 1584.5 c 128,-1,18
 462 1543 462 1543 462 1484 c 0,19,20
 462 1428 462 1428 420.5 1387.5 c 128,-1,21
 379 1347 379 1347 323 1347 c 0,10,11
EndSplineSet
Substitution2: "'locl' Localized Forms in Latin lookup 18 subtable" i.loclTRK
Substitution2: "'locl' Localized Forms in Latin lookup 17 subtable" i.loclTRK
Substitution2: "'locl' Localized Forms in Latin lookup 16 subtable" i.loclTRK
Substitution2: "'locl' Localized Forms in Latin lookup 15 subtable" i.loclTRK
Substitution2: "'locl' Localized Forms in Latin lookup 14 subtable" i.loclTRK
Substitution2: "Single Substitution lookup 4 subtable" dotlessi
Substitution2: "Single Substitution lookup 3 subtable" dotlessi
AlternateSubs2: "'aalt' Access All Alternates in Latin lookup 1 subtable" dotlessi i.loclTRK
EndChar

StartChar: dotlessi
Encoding: 305 305 314
Width: 649
VWidth: 2430
GlyphClass: 2
Flags: HW
AnchorPoint: "Anchor-3" 484 0 basechar 0
AnchorPoint: "Anchor-2" 325 0 basechar 0
AnchorPoint: "Anchor-0" 325 1127 basechar 0
LayerCount: 2
Fore
SplineSet
32 0 m 1,0,-1
 32 197 l 1,1,-1
 229 197 l 1,2,-1
 229 933 l 1,3,-1
 39 933 l 1,4,-1
 39 1130 l 1,5,-1
 438 1130 l 1,6,-1
 438 197 l 1,7,-1
 617 197 l 1,8,-1
 617 0 l 1,9,-1
 32 0 l 1,0,-1
EndSplineSet
EndChar

StartChar: j
Encoding: 106 106 329
Width: 643
VWidth: 2358
GlyphClass: 2
Flags: HW
AnchorPoint: "Anchor-2" 383 -280 basechar 0
AnchorPoint: "Anchor-0" 487 1503 basechar 0
LayerCount: 2
Fore
SplineSet
278 -246 m 0,0,1
 130 -246 130 -246 32 -133 c 1,2,-1
 119 38 l 1,3,-1
 127 55 l 1,4,-1
 142 49 l 1,5,6
 148 32 148 32 153.5 14 c 128,-1,7
 159 -4 159 -4 180 -29 c 1,8,9
 222 -60 222 -60 278 -60 c 0,10,11
 338 -60 338 -60 365 -1.5 c 128,-1,12
 392 57 392 57 392 182 c 2,13,-1
 392 991 l 1,14,-1
 136 991 l 1,15,-1
 136 1173 l 1,16,-1
 587 1173 l 1,17,-1
 587 197 l 2,18,19
 587 30 587 30 544.5 -66.5 c 128,-1,20
 502 -163 502 -163 432 -204.5 c 128,-1,21
 362 -246 362 -246 278 -246 c 0,0,1
485 1371 m 0,22,23
 432 1371 432 1371 395 1408.5 c 128,-1,24
 358 1446 358 1446 358 1497 c 0,25,26
 358 1550 358 1550 395 1588 c 128,-1,27
 432 1626 432 1626 485 1626 c 0,28,29
 536 1626 536 1626 573.5 1588 c 128,-1,30
 611 1550 611 1550 611 1497 c 0,31,32
 611 1446 611 1446 573.5 1408.5 c 128,-1,33
 536 1371 536 1371 485 1371 c 0,22,23
EndSplineSet
Substitution2: "Single Substitution lookup 4 subtable" uni0237
Substitution2: "Single Substitution lookup 3 subtable" uni0237
Substitution2: "'aalt' Access All Alternates in Latin lookup 0 subtable" uni0237
EndChar

StartChar: uni0237
Encoding: 567 567 330
Width: 602
VWidth: 2279
GlyphClass: 2
Flags: HW
AnchorPoint: "Anchor-2" 372 -279 basechar 0
AnchorPoint: "Anchor-0" 473 1128 basechar 0
LayerCount: 2
Fore
SplineSet
270 -246 m 0,0,1
 126 -246 126 -246 32 -137 c 1,2,-1
 116 29 l 1,3,-1
 124 46 l 1,4,-1
 139 40 l 1,5,6
 145 23 145 23 150 5.5 c 128,-1,7
 155 -12 155 -12 176 -36 c 1,8,9
 215.677419355 -65.0322580645 215.677419355 -65.0322580645 266.593132154 -65.0322580645 c 0,10,11
 268.290322581 -65.0322580645 268.290322581 -65.0322580645 270 -65 c 0,12,13
 328 -65 328 -65 354.5 -8.5 c 128,-1,14
 381 48 381 48 381 169 c 2,15,-1
 381 953 l 1,16,-1
 133 953 l 1,17,-1
 133 1130 l 1,18,-1
 570 1130 l 1,19,-1
 570 183 l 2,20,21
 570 21 570 21 529 -72 c 128,-1,22
 488 -165 488 -165 420 -205.5 c 128,-1,23
 352 -246 352 -246 270 -246 c 0,0,1
EndSplineSet
EndChar

StartChar: k
Encoding: 107 107 332
Width: 812
VWidth: 2430
GlyphClass: 2
Flags: HW
AnchorPoint: "Anchor-2" 355 0 basechar 0
AnchorPoint: "Anchor-0" 128 1621 basechar 0
LayerCount: 2
Fore
SplineSet
285 482 m 1,0,-1
 233 394 l 1,1,-1
 230 0 l 1,2,-1
 32 0 l 1,3,-1
 32 1621 l 1,4,-1
 250 1621 l 1,5,-1
 250 1602 l 1,6,7
 237 1588 237 1588 233.5 1570.5 c 128,-1,8
 230 1553 230 1553 230 1512 c 2,9,-1
 230 670 l 1,10,-1
 509 1140 l 1,11,12
 535 1133 535 1133 568.5 1127.5 c 128,-1,13
 602 1122 602 1122 627 1122 c 2,14,-1
 703 1122 l 1,15,-1
 420 644 l 1,16,-1
 736 0 l 1,17,-1
 522 -9 l 1,18,-1
 285 482 l 1,0,-1
EndSplineSet
EndChar

StartChar: kgreenlandic
Encoding: 312 312 334
Width: 812
VWidth: 2430
GlyphClass: 2
Flags: HW
AnchorPoint: "Anchor-2" 355 0 basechar 0
AnchorPoint: "Anchor-0" 132 1115 basechar 0
LayerCount: 2
Fore
SplineSet
285 482 m 1,0,-1
 233 394 l 1,1,-1
 230 0 l 1,2,-1
 32 0 l 1,3,-1
 32 1130 l 1,4,-1
 250 1130 l 1,5,-1
 250 1111 l 1,6,7
 237 1097 237 1097 233.5 1079.5 c 128,-1,8
 230 1062 230 1062 230 1020 c 2,9,-1
 230 670 l 1,10,-1
 509 1140 l 1,11,12
 535 1133 535 1133 568.5 1127.5 c 128,-1,13
 602 1122 602 1122 627 1122 c 2,14,-1
 703 1122 l 1,15,-1
 420 644 l 1,16,-1
 736 0 l 1,17,-1
 522 -9 l 1,18,-1
 285 482 l 1,0,-1
EndSplineSet
EndChar

StartChar: l
Encoding: 108 108 335
Width: 713
VWidth: 2430
GlyphClass: 2
Flags: HW
AnchorPoint: "Anchor-4" 357 559 basechar 0
AnchorPoint: "Anchor-2" 357 0 basechar 0
AnchorPoint: "Anchor-1" 749 1115 basechar 0
AnchorPoint: "Anchor-0" 357 1621 basechar 0
LayerCount: 2
Fore
SplineSet
32 0 m 1,0,-1
 32 199 l 1,1,-1
 253 199 l 1,2,-1
 253 1424 l 1,3,-1
 41 1424 l 1,4,-1
 41 1621 l 1,5,-1
 465 1621 l 1,6,-1
 465 199 l 1,7,-1
 681 199 l 1,8,-1
 681 0 l 1,9,-1
 32 0 l 1,0,-1
EndSplineSet
EndChar

StartChar: ldot
Encoding: 320 320 339
Width: 831
VWidth: 2430
GlyphClass: 1
Flags: HW
LayerCount: 2
Fore
SplineSet
593 663 m 128,-1,1
 534 663 534 663 492 707 c 128,-1,2
 450 751 450 751 450 812 c 128,-1,3
 450 873 450 873 493 916.5 c 128,-1,4
 536 960 536 960 593 960 c 0,5,6
 652 960 652 960 694 916 c 128,-1,7
 736 872 736 872 736 812 c 0,8,9
 736 751 736 751 694 707 c 128,-1,0
 652 663 652 663 593 663 c 128,-1,1
32 0 m 1,10,-1
 32 199 l 1,11,-1
 203 199 l 1,12,-1
 203 1426 l 1,13,-1
 41 1426 l 1,14,-1
 41 1626 l 1,15,-1
 411 1626 l 1,16,-1
 411 199 l 1,17,-1
 643 199 l 1,18,-1
 643 0 l 1,19,-1
 32 0 l 1,10,-1
EndSplineSet
EndChar

StartChar: uni01C9
Encoding: 457 457 341
Width: 793
VWidth: 2358
GlyphClass: 1
Flags: HW
LayerCount: 2
Fore
SplineSet
404 -246 m 0,0,1
 344 -246 344 -246 291.5 -219.5 c 128,-1,2
 239 -193 239 -193 204 -151 c 1,3,-1
 286 40 l 1,4,5
 299 34 299 34 299 23.5 c 128,-1,6
 299 13 299 13 306 -2 c 128,-1,7
 313 -17 313 -17 343 -38 c 0,8,9
 368 -55 368 -55 404 -55 c 0,10,11
 459 -55 459 -55 491 -3 c 128,-1,12
 523 49 523 49 523 182 c 2,13,-1
 523 991 l 1,14,-1
 366 991 l 1,15,-1
 366 1173 l 1,16,-1
 707 1173 l 1,17,-1
 707 190 l 2,18,19
 707 28 707 28 667.5 -68.5 c 128,-1,20
 628 -165 628 -165 559.5 -205.5 c 128,-1,21
 491 -246 491 -246 404 -246 c 0,0,1
603 1359 m 128,-1,23
 552 1359 552 1359 515.5 1397 c 128,-1,24
 479 1435 479 1435 479 1486 c 0,25,26
 479 1539 479 1539 514.5 1577 c 128,-1,27
 550 1615 550 1615 603 1615 c 0,28,29
 654 1615 654 1615 692 1577 c 128,-1,30
 730 1539 730 1539 730 1486 c 0,31,32
 730 1435 730 1435 692 1397 c 128,-1,22
 654 1359 654 1359 603 1359 c 128,-1,23
31 142 m 1,33,-1
 34 324 l 1,34,-1
 113 324 l 1,35,-1
 113 1444 l 1,36,-1
 42 1444 l 1,37,-1
 42 1626 l 1,38,-1
 292 1626 l 1,39,-1
 292 324 l 1,40,-1
 436 324 l 1,41,-1
 436 142 l 1,42,-1
 31 142 l 1,33,-1
EndSplineSet
EndChar

StartChar: lslash
Encoding: 322 322 343
Width: 689
VWidth: 2430
GlyphClass: 1
Flags: HW
LayerCount: 2
Fore
SplineSet
32 0 m 1,0,-1
 32 199 l 1,1,-1
 238 199 l 1,2,-1
 238 615 l 1,3,-1
 125 554 l 1,4,-1
 125 807 l 1,5,-1
 238 865 l 1,6,-1
 238 1424 l 1,7,-1
 41 1424 l 1,8,-1
 41 1621 l 1,9,-1
 451 1621 l 1,10,-1
 451 962 l 1,11,-1
 584 1028 l 1,12,-1
 584 775 l 1,13,-1
 451 705 l 1,14,-1
 451 199 l 1,15,-1
 657 199 l 1,16,-1
 657 0 l 1,17,-1
 32 0 l 1,0,-1
EndSplineSet
EndChar

StartChar: m
Encoding: 109 109 344
Width: 768
VWidth: 2430
GlyphClass: 2
Flags: HW
AnchorPoint: "Anchor-2" 387 0 basechar 0
AnchorPoint: "Anchor-0" 545 1115 basechar 0
LayerCount: 2
Fore
SplineSet
32 0 m 1,0,-1
 32 1130 l 1,1,-1
 188 1130 l 1,2,-1
 188 1032 l 1,3,4
 210 1090 210 1090 242 1123.5 c 128,-1,5
 274 1157 274 1157 312 1157 c 0,6,7
 400 1157 400 1157 428 1004 c 1,8,9
 450 1076 450 1076 490 1116.5 c 128,-1,10
 530 1157 530 1157 581 1157 c 0,11,12
 658 1157 658 1157 699 1075.5 c 0,13,14
 736.355555556 1001.24444444 736.355555556 1001.24444444 736.355555556 871.785679012 c 0,15,16
 736.355555556 859.155555556 736.355555556 859.155555556 736 846 c 1,17,-1
 736 0 l 1,18,-1
 569 0 l 1,19,-1
 569 800 l 2,20,21
 569 912 569 912 560.5 945.5 c 128,-1,22
 552 979 552 979 532 979 c 0,23,24
 500 979 500 979 481 916 c 128,-1,25
 462 853 462 853 462 749 c 2,26,-1
 462 0 l 1,27,-1
 308 0 l 1,28,-1
 308 788 l 2,29,30
 308 904 308 904 298.5 941.5 c 128,-1,31
 289 979 289 979 265 979 c 0,32,33
 238 979 238 979 219.5 924.5 c 128,-1,34
 201 870 201 870 201 758 c 2,35,-1
 201 0 l 1,36,-1
 32 0 l 1,0,-1
EndSplineSet
EndChar

StartChar: n
Encoding: 110 110 346
Width: 744
VWidth: 2430
GlyphClass: 2
Flags: HW
AnchorPoint: "Anchor-2" 384 0 basechar 0
AnchorPoint: "Anchor-0" 392 1115 basechar 0
LayerCount: 2
Fore
SplineSet
32 0 m 1,0,-1
 32 1130 l 1,1,-1
 243 1130 l 1,2,-1
 243 969 l 1,3,4
 282 1054 282 1054 338 1105.5 c 128,-1,5
 394 1157 394 1157 469 1157 c 0,6,7
 539 1157 539 1157 595 1119 c 128,-1,8
 651 1081 651 1081 681.5 982.5 c 128,-1,9
 712 884 712 884 712 710 c 2,10,-1
 712 0 l 1,11,-1
 503 0 l 1,12,-1
 503 705 l 2,13,14
 503 846 503 846 477.5 900.5 c 128,-1,15
 452 955 452 955 403 955 c 0,16,17
 345 955 345 955 294 881 c 128,-1,18
 243 807 243 807 243 668 c 2,19,-1
 243 0 l 1,20,-1
 32 0 l 1,0,-1
EndSplineSet
EndChar

StartChar: eng
Encoding: 331 331 352
Width: 667
VWidth: 2281
GlyphClass: 1
Flags: HW
LayerCount: 2
Fore
SplineSet
354 -246 m 0,0,1
 313 -246 313 -246 262.5 -229 c 128,-1,2
 212 -212 212 -212 176 -174 c 1,3,-1
 238 1 l 1,4,5
 251 -3 251 -3 255.5 -19.5 c 128,-1,6
 260 -36 260 -36 276 -51 c 128,-1,7
 292 -66 292 -66 337 -66 c 0,8,9
 401 -66 401 -66 427 5 c 128,-1,10
 453 76 453 76 453 228 c 2,11,-1
 453 731 l 2,12,13
 453 873 453 873 427 923.5 c 128,-1,14
 401 974 401 974 360 974 c 0,15,16
 300 974 300 974 259.5 903.5 c 128,-1,17
 219 833 219 833 219 706 c 2,18,-1
 219 134 l 1,19,-1
 32 134 l 1,20,-1
 32 1133 l 1,21,-1
 219 1133 l 1,22,-1
 219 991 l 1,23,24
 288 1157 288 1157 416 1157 c 0,25,26
 478 1157 478 1157 529 1118 c 128,-1,27
 580 1079 580 1079 607.5 988 c 128,-1,28
 635 897 635 897 635 733 c 2,29,-1
 635 252 l 2,30,31
 635 -21 635 -21 558 -133.5 c 128,-1,32
 481 -246 481 -246 354 -246 c 0,0,1
EndSplineSet
EndChar

StartChar: o
Encoding: 111 111 355
Width: 768
VWidth: 2430
GlyphClass: 2
Flags: HW
AnchorPoint: "Anchor-4" 386 559 basechar 0
AnchorPoint: "Anchor-3" 443 39 basechar 0
AnchorPoint: "Anchor-2" 386 0 basechar 0
AnchorPoint: "Anchor-1" 558 1067 basechar 0
AnchorPoint: "Anchor-0" 386 1115 basechar 0
LayerCount: 2
Fore
SplineSet
383 178 m 0,0,1
 538 178 538 178 540 564 c 0,2,3
 540 766 540 766 499 860.5 c 128,-1,4
 458 955 458 955 383 955 c 0,5,6
 314 955 314 955 271 860 c 128,-1,7
 228 765 228 765 228 564 c 0,8,9
 228 367 228 367 269 272.5 c 128,-1,10
 310 178 310 178 383 178 c 0,0,1
383 -21 m 128,-1,12
 230 -21 230 -21 131 116 c 128,-1,13
 32 253 32 253 32 559 c 0,14,15
 32 872 32 872 131 1014.5 c 128,-1,16
 230 1157 230 1157 383 1157 c 128,-1,17
 536 1157 536 1157 636 1014.5 c 128,-1,18
 736 872 736 872 736 559 c 0,19,20
 736 255 736 255 636 117 c 128,-1,11
 536 -21 536 -21 383 -21 c 128,-1,12
EndSplineSet
Substitution2: "Single Substitution lookup 29 subtable" ordmasculine
Substitution2: "'aalt' Access All Alternates in Latin lookup 0 subtable" ordmasculine
EndChar

StartChar: oslash
Encoding: 248 248 383
Width: 768
VWidth: 2430
GlyphClass: 2
Flags: HW
AnchorPoint: "Anchor-4" 386 559 basechar 0
AnchorPoint: "Anchor-3" 443 39 basechar 0
AnchorPoint: "Anchor-2" 386 0 basechar 0
AnchorPoint: "Anchor-1" 558 1067 basechar 0
AnchorPoint: "Anchor-0" 386 1115 basechar 0
LayerCount: 2
Fore
SplineSet
383 178 m 0,0,1
 538 178 538 178 540 564 c 0,2,3
 540 668 540 668 528 746 c 1,4,-1
 332 192 l 1,5,6
 353 178 353 178 383 178 c 0,0,1
228 564 m 0,7,8
 228 464 228 464 239 389 c 1,9,-1
 436 943 l 1,10,11
 414 955 414 955 383 955 c 0,12,13
 314 955 314 955 271 860.5 c 128,-1,14
 228 766 228 766 228 564 c 0,7,8
215 -136 m 1,15,-1
 77 -70 l 1,16,-1
 140 104 l 1,17,18
 88 174 88 174 60 287.5 c 128,-1,19
 32 401 32 401 32 559 c 0,20,21
 32 872 32 872 131 1014.5 c 128,-1,22
 230 1157 230 1157 383 1157 c 0,23,24
 448 1157 448 1157 504 1132 c 1,25,-1
 549 1261 l 1,26,-1
 686 1194 l 1,27,-1
 628 1028 l 1,28,29
 680 956 680 956 708 840 c 128,-1,30
 736 724 736 724 736 559 c 0,31,32
 736 255 736 255 637 117 c 128,-1,33
 538 -21 538 -21 383 -21 c 0,34,35
 318 -21 318 -21 264 2 c 1,36,-1
 215 -136 l 1,15,-1
EndSplineSet
EndChar

StartChar: oe
Encoding: 339 339 389
Width: 695
VWidth: 2430
GlyphClass: 1
Flags: HW
LayerCount: 2
Fore
SplineSet
218 155 m 0,0,1
 241 155 241 155 256 175 c 128,-1,2
 271 195 271 195 271 234 c 0,3,4
 271 241 271 241 270 253 c 128,-1,5
 269 265 269 265 267 287 c 0,6,7
 261 365 261 365 256.5 433 c 128,-1,8
 252 501 252 501 252 580 c 0,9,10
 252 716 252 716 260.5 786 c 128,-1,11
 269 856 269 856 269 872 c 0,12,13
 269 911 269 911 256.5 936.5 c 128,-1,14
 244 962 244 962 216 962 c 0,15,16
 181 962 181 962 155 882 c 128,-1,17
 129 802 129 802 129 586 c 0,18,19
 129 348 129 348 150 251.5 c 128,-1,20
 171 155 171 155 218 155 c 0,0,1
395 693 m 1,21,-1
 555 693 l 1,22,23
 555 846 555 846 539 907.5 c 128,-1,24
 523 969 523 969 478 969 c 0,25,26
 435 969 435 969 415 899 c 128,-1,27
 395 829 395 829 395 693 c 1,21,-1
504 -30 m 0,28,29
 405 -30 405 -30 346 53 c 1,30,31
 289.695121951 -27.012195122 289.695121951 -27.012195122 207.044765021 -27.012195122 c 0,0,0
 206.024390244 -27.012195122 206.024390244 -27.012195122 205 -27 c 0,32,33
 152 -27 152 -27 101 19 c 128,-1,34
 50 65 50 65 17 191.5 c 128,-1,35
 -16 318 -16 318 -16 559 c 0,36,37
 -16 780 -16 780 14 907.5 c 128,-1,38
 44 1035 44 1035 96.5 1090 c 128,-1,39
 149 1145 149 1145 216 1145 c 0,40,41
 299 1145 299 1145 348 1055 c 1,42,43
 397 1145 397 1145 484 1145 c 0,44,45
 579 1145 579 1145 633.5 1037.5 c 128,-1,46
 688 930 688 930 688 688 c 2,47,-1
 688 520 l 1,48,-1
 391 520 l 1,49,50
 393 365 393 365 407 284.5 c 128,-1,51
 421 204 421 204 447 176 c 128,-1,52
 473 148 473 148 510 148 c 0,53,54
 585 148 585 148 628 238 c 1,55,-1
 686 93 l 1,56,57
 611 -30 611 -30 504 -30 c 0,28,29
EndSplineSet
EndChar

StartChar: p
Encoding: 112 112 390
Width: 723
VWidth: 2298
GlyphClass: 2
Flags: HW
AnchorPoint: "Anchor-2" 373 118 basechar 0
AnchorPoint: "Anchor-0" 373 1130 basechar 0
LayerCount: 2
Fore
SplineSet
362 266 m 0,0,1
 404 266 404 266 435.5 293.5 c 128,-1,2
 467 321 467 321 485.5 398.5 c 128,-1,3
 504 476 504 476 504 624 c 0,4,5
 504 824 504 824 470 902 c 128,-1,6
 436 980 436 980 369 982 c 0,7,8
 302 982 302 982 261.5 887.5 c 128,-1,9
 221 793 221 793 221 593 c 0,10,11
 223 408 223 408 261 337 c 128,-1,12
 299 266 299 266 362 266 c 0,0,1
32 -246 m 1,13,-1
 32 1135 l 1,14,-1
 221 1135 l 1,15,-1
 221 997 l 1,16,17
 252 1074 252 1074 300 1115.5 c 128,-1,18
 348 1157 348 1157 414 1157 c 0,19,20
 491 1157 491 1157 553 1111 c 128,-1,21
 615 1065 615 1065 653 949.5 c 128,-1,22
 691 834 691 834 691 624 c 0,23,24
 691 426 691 426 655 309.5 c 128,-1,25
 619 193 619 193 556 142.5 c 128,-1,26
 493 92 493 92 412 92 c 0,27,28
 279 92 279 92 223 223 c 1,29,-1
 223 -246 l 1,30,-1
 32 -246 l 1,13,-1
EndSplineSet
EndChar

StartChar: thorn
Encoding: 254 254 391
Width: 741
VWidth: 2365
GlyphClass: 1
Flags: HW
LayerCount: 2
Fore
SplineSet
371 280 m 0,0,1
 414 280 414 280 446 307.5 c 128,-1,2
 478 335 478 335 497 415 c 128,-1,3
 516 495 516 495 516 647 c 0,4,5
 516 852 516 852 481 932 c 128,-1,6
 446 1012 446 1012 377 1014 c 0,7,8
 308 1014 308 1014 266.5 917 c 128,-1,9
 225 820 225 820 225 615 c 0,10,11
 227 425 227 425 267 352.5 c 128,-1,12
 307 280 307 280 371 280 c 0,0,1
32 1621 m 1,13,-1
 245 1621 l 1,14,-1
 245 1603 l 1,15,16
 232 1590 232 1590 228.5 1574.5 c 128,-1,17
 225 1559 225 1559 225 1520 c 2,18,-1
 225 1030 l 1,19,20
 257 1109 257 1109 307 1151 c 128,-1,21
 357 1193 357 1193 424 1193 c 0,22,23
 503 1193 503 1193 566.5 1146 c 128,-1,24
 630 1099 630 1099 669.5 980.5 c 128,-1,25
 709 862 709 862 709 647 c 0,26,27
 709 444 709 444 671.5 324 c 128,-1,28
 634 204 634 204 569.5 152 c 128,-1,29
 505 100 505 100 422 100 c 0,30,31
 285 100 285 100 228 235 c 1,32,-1
 228 -246 l 1,33,-1
 32 -246 l 1,34,-1
 32 1621 l 1,13,-1
EndSplineSet
EndChar

StartChar: q
Encoding: 113 113 392
Width: 722
VWidth: 2299
GlyphClass: 1
Flags: HW
LayerCount: 2
Fore
SplineSet
365 271 m 0,0,1
 426 271 426 271 463.5 352 c 128,-1,2
 501 433 501 433 501 643 c 0,3,4
 501 839 501 839 464 913 c 128,-1,5
 427 987 427 987 365 987 c 0,6,7
 300 987 300 987 261 910.5 c 128,-1,8
 222 834 222 834 222 629 c 0,9,10
 222 431 222 431 260 351 c 128,-1,11
 298 271 298 271 365 271 c 0,0,1
501 -246 m 1,12,-1
 501 227 l 1,13,14
 472 152 472 152 429 123 c 128,-1,15
 390.03125 96.71875 390.03125 96.71875 337.100585938 96.71875 c 0,0,0
 331.625 96.71875 331.625 96.71875 326 97 c 0,16,17
 178 97 178 97 105 232 c 128,-1,18
 32 367 32 367 32 622 c 0,19,20
 32 820 32 820 69.5 938.5 c 128,-1,21
 107 1057 107 1057 174.5 1108 c 128,-1,22
 242 1159 242 1159 330 1159 c 0,23,24
 397 1159 397 1159 439.5 1122 c 128,-1,25
 482 1085 482 1085 505 1015 c 1,26,-1
 505 1133 l 1,27,-1
 690 1133 l 1,28,-1
 690 -246 l 1,29,-1
 501 -246 l 1,12,-1
EndSplineSet
EndChar

StartChar: r
Encoding: 114 114 393
Width: 750
VWidth: 2430
GlyphClass: 2
Flags: HW
AnchorPoint: "Anchor-2" 380 0 basechar 0
AnchorPoint: "Anchor-0" 395 1118 basechar 0
LayerCount: 2
Fore
SplineSet
32 1130 m 1,0,-1
 249 1130 l 1,1,-1
 247 967 l 1,2,3
 281 1060 281 1060 348.5 1109.5 c 0,4,5
 413.378640777 1157.0776699 413.378640777 1157.0776699 483.338391931 1157.0776699 c 0,6,7
 486.165048544 1157.0776699 486.165048544 1157.0776699 489 1157 c 0,8,9
 567 1157 567 1157 621.5 1121.5 c 128,-1,10
 676 1086 676 1086 718 1020 c 1,11,-1
 630 839 l 1,12,-1
 623 816 l 1,13,-1
 604 823 l 1,14,15
 597 842 597 842 590.5 865 c 128,-1,16
 584 888 584 888 558 916 c 1,17,18
 509 953 509 953 460 953 c 0,19,20
 407 953 407 953 358.5 922.5 c 128,-1,21
 310 892 310 892 278.5 815.5 c 128,-1,22
 247 739 247 739 247 598 c 2,23,-1
 247 -2 l 1,24,-1
 32 -2 l 1,25,-1
 32 1130 l 1,0,-1
EndSplineSet
EndChar

StartChar: uni027B
Encoding: 635 635 399
Width: 713
VWidth: 2276
GlyphClass: 1
Flags: HW
LayerCount: 2
Fore
SplineSet
572 -246 m 0,0,1
 467 -246 467 -246 407.5 -171 c 128,-1,2
 348 -96 348 -96 346 88 c 1,3,-1
 348 249 l 1,4,5
 322 180 322 180 273.5 144.5 c 128,-1,6
 225 109 225 109 174 109 c 0,7,8
 126 109 126 109 82.5 128.5 c 128,-1,9
 39 148 39 148 -1 202 c 1,10,-1
 57 377 l 1,11,-1
 61 399 l 1,12,-1
 73 395 l 1,13,14
 79 380 79 380 82 363 c 128,-1,15
 85 346 85 346 103 326 c 0,16,17
 141 287 141 287 187 287 c 0,18,19
 248 287 248 287 297 361.5 c 128,-1,20
 346 436 346 436 346 600 c 2,21,-1
 346 1132 l 1,22,-1
 530 1132 l 1,23,-1
 528 88 l 2,24,25
 528 4 528 4 543.5 -38 c 128,-1,26
 559 -80 559 -80 595 -80 c 0,27,28
 607 -80 607 -80 619 -76.5 c 128,-1,29
 631 -73 631 -73 641 -64 c 0,30,31
 651 -56 651 -56 655 -44 c 128,-1,32
 659 -32 659 -32 669 -28 c 1,33,-1
 703 -193 l 1,34,35
 650 -246 650 -246 572 -246 c 0,0,1
EndSplineSet
EndChar

StartChar: uni024D
Encoding: 589 589 402
Width: 768
VWidth: 2430
GlyphClass: 2
Flags: HW
AnchorPoint: "Anchor-2" 422 0 basechar 0
AnchorPoint: "Anchor-0" 436 1118 basechar 0
LayerCount: 2
Fore
SplineSet
32 396 m 1,0,-1
 32 596 l 1,1,-1
 99 596 l 1,2,-1
 99 1130 l 1,3,-1
 301 1130 l 1,4,-1
 299 967 l 1,5,6
 331 1060 331 1060 393.5 1109.5 c 0,7,8
 453.572815534 1157.0776699 453.572815534 1157.0776699 517.802903195 1157.0776699 c 0,9,10
 520.398058252 1157.0776699 520.398058252 1157.0776699 523 1157 c 0,11,12
 596 1157 596 1157 646.5 1121.5 c 128,-1,13
 697 1086 697 1086 736 1020 c 1,14,-1
 654 839 l 1,15,-1
 648 816 l 1,16,-1
 630 823 l 1,17,18
 623 842 623 842 617.5 865 c 128,-1,19
 612 888 612 888 587 916 c 1,20,21
 542 953 542 953 497 953 c 0,22,23
 447 953 447 953 402 922.5 c 128,-1,24
 357 892 357 892 328 815.5 c 128,-1,25
 299 739 299 739 299 598 c 2,26,-1
 299 596 l 1,27,-1
 497 596 l 1,28,-1
 497 396 l 1,29,-1
 299 396 l 1,30,-1
 299 -2 l 1,31,-1
 99 -2 l 1,32,-1
 99 396 l 1,33,-1
 32 396 l 1,0,-1
EndSplineSet
EndChar

StartChar: s
Encoding: 115 115 403
Width: 745
VWidth: 2430
GlyphClass: 1
Flags: HW
LayerCount: 2
Fore
SplineSet
377 -24 m 0,0,1
 265 -24 265 -24 178 9 c 128,-1,2
 91 42 91 42 32 100 c 1,3,-1
 115 287 l 1,4,-1
 122 309 l 1,5,-1
 140 301 l 1,6,7
 149 282 149 282 157.5 264 c 128,-1,8
 166 246 166 246 196 223 c 0,9,10
 233 193 233 193 275 179 c 128,-1,11
 317 165 317 165 370 165 c 0,12,13
 438 165 438 165 476 207.5 c 128,-1,14
 514 250 514 250 514 313 c 0,15,16
 514 366 514 366 477.5 408 c 128,-1,17
 441 450 441 450 349 494 c 0,18,19
 230 547 230 547 150.5 624.5 c 128,-1,20
 71 702 71 702 71 844 c 0,21,22
 71 973 71 973 155.5 1065 c 128,-1,23
 240 1157 240 1157 389 1157 c 0,24,25
 605 1157 605 1157 713 1004 c 1,26,-1
 616 846 l 1,27,-1
 604 826 l 1,28,-1
 588 837 l 1,29,30
 583 856 583 856 576.5 875.5 c 128,-1,31
 570 895 570 895 543 923 c 1,32,33
 513 944 513 944 477 955.5 c 128,-1,34
 441 967 441 967 405 967 c 0,35,36
 344 967 344 967 306 934.5 c 128,-1,37
 268 902 268 902 268 848 c 0,38,39
 268 790 268 790 311 751 c 128,-1,40
 354 712 354 712 456 666 c 0,41,42
 592 605 592 605 652.5 532 c 128,-1,43
 713 459 713 459 713 325 c 0,44,45
 713 158 713 158 621.5 67 c 128,-1,46
 530 -24 530 -24 377 -24 c 0,0,1
EndSplineSet
EndChar

StartChar: germandbls
Encoding: 223 223 414
Width: 768
VWidth: 2430
GlyphClass: 1
Flags: HW
LayerCount: 2
Fore
SplineSet
447 -27 m 0,0,1
 396 -27 396 -27 358.5 -13.5 c 128,-1,2
 321 0 321 0 285 27 c 1,3,-1
 338 216 l 1,4,5
 375 172 375 172 425 172 c 0,6,7
 480 172 480 172 509.5 257.5 c 128,-1,8
 539 343 539 343 539 471 c 0,9,10
 539 597 539 597 502 676.5 c 128,-1,11
 465 756 465 756 363 756 c 2,12,-1
 310 756 l 1,13,-1
 310 953 l 1,14,-1
 370 953 l 2,15,16
 421 953 421 953 450 1013.5 c 128,-1,17
 479 1074 479 1074 479 1188 c 128,-1,18
 479 1302 479 1302 448.5 1365.5 c 128,-1,19
 418 1429 418 1429 359 1429 c 0,20,21
 297 1429 297 1429 264 1330.5 c 128,-1,22
 231 1232 231 1232 231 1048 c 2,23,-1
 231 0 l 1,24,-1
 32 0 l 1,25,-1
 32 1035 l 2,26,27
 32 1253 32 1253 71.5 1383.5 c 128,-1,28
 111 1514 111 1514 181.5 1571 c 128,-1,29
 252 1628 252 1628 347 1628 c 0,30,31
 488 1628 488 1628 580 1514 c 128,-1,32
 672 1400 672 1400 672 1201 c 0,33,34
 672 1099 672 1099 643.5 1012.5 c 128,-1,35
 615 926 615 926 553 877 c 1,36,37
 637 838 637 838 686.5 733.5 c 128,-1,38
 736 629 736 629 736 443 c 0,39,40
 736 200 736 200 655.5 86.5 c 128,-1,41
 575 -27 575 -27 447 -27 c 0,0,1
EndSplineSet
EndChar

StartChar: t
Encoding: 116 116 415
Width: 753
VWidth: 2430
GlyphClass: 2
Flags: HW
AnchorPoint: "Anchor-4" 294 746 basechar 0
AnchorPoint: "Anchor-2" 413 0 basechar 0
AnchorPoint: "Anchor-1" 457 1127 basechar 0
AnchorPoint: "Anchor-0" 341 1424 basechar 0
LayerCount: 2
Fore
SplineSet
457 -27 m 0,0,1
 355 -27 355 -27 293 27 c 128,-1,2
 231 81 231 81 203.5 215.5 c 0,3,4
 181.579710145 322.710144928 181.579710145 322.710144928 181.579710145 500.764125184 c 0,5,6
 181.579710145 546.086956522 181.579710145 546.086956522 183 596 c 2,7,-1
 190 904 l 1,8,-1
 32 904 l 1,9,-1
 34 1103 l 1,10,-1
 197 1103 l 1,11,-1
 204 1395 l 1,12,-1
 428 1424 l 1,13,-1
 450 1426 l 1,14,-1
 452 1407 l 1,15,16
 440 1390 440 1390 433 1372 c 128,-1,17
 426 1354 426 1354 424 1315 c 2,18,-1
 411 1103 l 1,19,-1
 654 1103 l 1,20,-1
 651 904 l 1,21,-1
 411 904 l 1,22,-1
 399 591 l 2,23,24
 397.638888889 543.75 397.638888889 543.75 397.638888889 502.322530864 c 0,25,26
 397.638888889 330.694444444 397.638888889 330.694444444 421 259 c 0,27,28
 450 170 450 170 513 170 c 0,29,30
 566 170 566 170 608.5 195.5 c 128,-1,31
 651 221 651 221 683 253 c 1,32,-1
 721 72 l 1,33,34
 665 19 665 19 596 -4 c 128,-1,35
 527 -27 527 -27 457 -27 c 0,0,1
EndSplineSet
EndChar

StartChar: tbar
Encoding: 359 359 416
Width: 758
VWidth: 2430
GlyphClass: 2
Flags: HW
AnchorPoint: "Anchor-4" 299 746 basechar 0
AnchorPoint: "Anchor-2" 418 0 basechar 0
AnchorPoint: "Anchor-1" 462 1127 basechar 0
AnchorPoint: "Anchor-0" 345 1424 basechar 0
LayerCount: 2
Fore
SplineSet
32 508 m 1,0,-1
 32 717 l 1,1,-1
 190 717 l 1,2,-1
 195 904 l 1,3,-1
 37 904 l 1,4,-1
 39 1103 l 1,5,-1
 202 1103 l 1,6,-1
 209 1395 l 1,7,-1
 433 1424 l 1,8,-1
 454 1426 l 1,9,-1
 457 1407 l 1,10,11
 445 1390 445 1390 438 1372 c 128,-1,12
 431 1354 431 1354 428 1315 c 2,13,-1
 415 1103 l 1,14,-1
 659 1103 l 1,15,-1
 656 904 l 1,16,-1
 415 904 l 1,17,-1
 408 717 l 1,18,-1
 644 717 l 1,19,-1
 644 508 l 1,20,-1
 401 508 l 1,21,22
 401 316 401 316 431.5 243 c 128,-1,23
 462 170 462 170 517 170 c 0,24,25
 570 170 570 170 613 195.5 c 128,-1,26
 656 221 656 221 688 253 c 1,27,-1
 726 72 l 1,28,29
 670 19 670 19 601.5 -4 c 128,-1,30
 533 -27 533 -27 462 -27 c 0,31,32
 367 -27 367 -27 305 19 c 128,-1,33
 243 65 243 65 214 182 c 128,-1,34
 185 299 185 299 185 508 c 1,35,-1
 32 508 l 1,0,-1
EndSplineSet
EndChar

StartChar: u
Encoding: 117 117 423
Width: 749
VWidth: 2430
GlyphClass: 2
Flags: HW
AnchorPoint: "Anchor-3" 550 0 basechar 0
AnchorPoint: "Anchor-2" 326 0 basechar 0
AnchorPoint: "Anchor-1" 681 1115 basechar 0
AnchorPoint: "Anchor-0" 364 1115 basechar 0
LayerCount: 2
Fore
SplineSet
302 -27 m 0,0,1
 217 -27 217 -27 156 17 c 128,-1,2
 95 61 95 61 62.5 171.5 c 0,3,4
 31.884057971 275.594202899 31.884057971 275.594202899 31.884057971 459.112371351 c 0,5,6
 31.884057971 470.405797101 31.884057971 470.405797101 32 482 c 2,7,-1
 35 1130 l 1,8,-1
 243 1130 l 1,9,-1
 243 464 l 2,10,11
 243 343 243 343 256 280.5 c 128,-1,12
 269 218 269 218 293.5 195 c 128,-1,13
 318 172 318 172 353 172 c 0,14,15
 416 172 416 172 452.5 251.5 c 128,-1,16
 489 331 489 331 489 484 c 2,17,-1
 489 1130 l 1,18,-1
 700 1130 l 1,19,-1
 700 174 l 2,20,21
 700 128 700 128 702.5 86 c 128,-1,22
 705 44 705 44 717 0 c 1,23,-1
 522 0 l 1,24,25
 503 56 503 56 503 129 c 1,26,27
 473 57 473 57 421.5 15 c 128,-1,28
 370 -27 370 -27 302 -27 c 0,0,1
EndSplineSet
EndChar

StartChar: v
Encoding: 118 118 446
Width: 768
VWidth: 2430
GlyphClass: 2
Flags: HW
AnchorPoint: "Anchor-2" 388 0 basechar 0
AnchorPoint: "Anchor-0" 388 1127 basechar 0
LayerCount: 2
Fore
SplineSet
298 0 m 1,0,-1
 32 1130 l 1,1,-1
 232 1130 l 1,2,-1
 403 341 l 1,3,-1
 481 666 l 2,4,5
 512 795 512 795 530.5 913.5 c 128,-1,6
 549 1032 549 1032 554 1130 c 1,7,-1
 736 1130 l 1,8,9
 727 1026 727 1026 703 899 c 128,-1,10
 679 772 679 772 645 640 c 2,11,-1
 477 0 l 1,12,-1
 298 0 l 1,0,-1
EndSplineSet
EndChar

StartChar: w
Encoding: 119 119 447
Width: 721
VWidth: 2430
GlyphClass: 2
Flags: HW
AnchorPoint: "Anchor-2" 354 0 basechar 0
AnchorPoint: "Anchor-0" 354 1115 basechar 0
LayerCount: 2
Fore
SplineSet
120 -2 m 1,0,-1
 0 1130 l 1,1,-1
 156 1130 l 1,2,-1
 225 367 l 1,3,-1
 310 948 l 1,4,-1
 416 948 l 1,5,-1
 515 369 l 1,6,7
 539 656 539 656 544 828.5 c 128,-1,8
 549 1001 549 1001 549 1083 c 2,9,-1
 549 1130 l 1,10,-1
 704 1130 l 1,11,12
 688 854 688 854 662.5 561.5 c 128,-1,13
 637 269 637 269 605 -2 c 1,14,-1
 443 -2 l 1,15,-1
 361 549 l 1,16,-1
 283 -2 l 1,17,-1
 120 -2 l 1,0,-1
EndSplineSet
EndChar

StartChar: x
Encoding: 120 120 452
Width: 768
VWidth: 2430
GlyphClass: 2
Flags: HW
AnchorPoint: "Anchor-2" 381 0 basechar 0
AnchorPoint: "Anchor-0" 381 1127 basechar 0
LayerCount: 2
Fore
SplineSet
32 0 m 1,0,-1
 279 571 l 1,1,-1
 36 1130 l 1,2,-1
 232 1130 l 1,3,-1
 379 788 l 1,4,-1
 518 1130 l 1,5,-1
 704 1130 l 1,6,-1
 477 578 l 1,7,-1
 736 0 l 1,8,-1
 536 0 l 1,9,-1
 379 360 l 1,10,-1
 232 0 l 1,11,-1
 32 0 l 1,0,-1
EndSplineSet
EndChar

StartChar: y
Encoding: 121 121 453
Width: 758
VWidth: 2279
GlyphClass: 2
Flags: HW
AnchorPoint: "Anchor-2" 585 130 basechar 0
AnchorPoint: "Anchor-0" 392 1128 basechar 0
LayerCount: 2
Fore
SplineSet
197 -246 m 0,0,1
 98 -246 98 -246 30 -167 c 1,2,-1
 90 -6 l 1,3,-1
 97 13 l 1,4,-1
 111 7 l 1,5,6
 117 -8 117 -8 125 -25 c 128,-1,7
 133 -42 133 -42 160 -61 c 0,8,9
 177 -69 177 -69 200 -70 c 0,10,11
 245 -70 245 -70 269 -14 c 128,-1,12
 293 42 293 42 318 151 c 2,13,-1
 322 167 l 1,14,-1
 51 1130 l 1,15,-1
 234 1130 l 1,16,-1
 402 495 l 1,17,-1
 462 743 l 2,18,19
 486 840 486 840 503.5 937.5 c 128,-1,20
 521 1035 521 1035 527 1130 c 1,21,-1
 695 1130 l 1,22,23
 689 1031 689 1031 663.5 922.5 c 128,-1,24
 638 814 638 814 613 715 c 2,25,-1
 441 29 l 2,26,27
 402 -117 402 -117 337.5 -181.5 c 128,-1,28
 273 -246 273 -246 197 -246 c 0,0,1
EndSplineSet
EndChar

StartChar: z
Encoding: 122 122 463
Width: 768
VWidth: 2430
GlyphClass: 2
Flags: HW
AnchorPoint: "Anchor-2" 419 0 basechar 0
AnchorPoint: "Anchor-0" 422 1127 basechar 0
LayerCount: 2
Fore
SplineSet
32 155 m 1,0,-1
 453 928 l 1,1,-1
 68 928 l 1,2,-1
 68 1130 l 1,3,-1
 695 1130 l 1,4,-1
 695 972 l 1,5,-1
 286 199 l 1,6,-1
 628 199 l 2,7,8
 666 199 666 199 684 204 c 128,-1,9
 702 209 702 209 716 223 c 1,10,-1
 736 223 l 1,11,-1
 736 0 l 1,12,-1
 32 0 l 1,13,-1
 32 155 l 1,0,-1
EndSplineSet
EndChar

StartChar: u.i
Encoding: 65539 -1 468
Width: 704
VWidth: 2430
GlyphClass: 2
Flags: HW
AnchorPoint: "Anchor-3" 554 0 basechar 0
AnchorPoint: "Anchor-2" 317 0 basechar 0
AnchorPoint: "Anchor-1" 633 1127 basechar 0
AnchorPoint: "Anchor-0" 336 1127 basechar 0
LayerCount: 2
Fore
SplineSet
283 -27 m 0,0,1
 205 -27 205 -27 147.5 17 c 128,-1,2
 90 61 90 61 60 171.5 c 0,3,4
 31.875 275.09375 31.875 275.09375 31.875 457.349609375 c 0,5,6
 31.875 469.5 31.875 469.5 32 482 c 2,7,-1
 35 1130 l 1,8,-1
 229 1130 l 1,9,-1
 229 464 l 2,10,11
 229 343 229 343 241 280.5 c 128,-1,12
 253 218 253 218 276 195 c 128,-1,13
 299 172 299 172 331 172 c 0,14,15
 389 172 389 172 424 251.5 c 128,-1,16
 459 331 459 331 459 484 c 2,17,-1
 459 1130 l 1,18,-1
 654 1130 l 1,19,-1
 654 174 l 2,20,21
 654 128 654 128 656.5 86 c 128,-1,22
 659 44 659 44 672 0 c 1,23,-1
 491 0 l 1,24,25
 472 56 472 56 472 129 c 1,26,27
 445 57 445 57 395.5 15 c 128,-1,28
 346 -27 346 -27 283 -27 c 0,0,1
EndSplineSet
EndChar

StartChar: r.serif
Encoding: 65540 -1 469
Width: 823
VWidth: 2430
GlyphClass: 1
Flags: HW
LayerCount: 2
Fore
SplineSet
32 -2 m 1,0,-1
 32 197 l 1,1,-1
 119 197 l 1,2,-1
 119 933 l 1,3,-1
 37 933 l 1,4,-1
 37 1130 l 1,5,-1
 326 1130 l 1,6,-1
 326 965 l 1,7,8
 359 1050 359 1050 418 1103.5 c 128,-1,9
 477 1157 477 1157 542 1157 c 0,10,11
 658 1157 658 1157 736 1035 c 1,12,-1
 667 823 l 1,13,14
 649 828 649 828 641 847.5 c 128,-1,15
 633 867 633 867 622 890.5 c 128,-1,16
 611 914 611 914 587.5 931 c 128,-1,17
 564 948 564 948 515 948 c 0,18,19
 443 948 443 948 383.5 853 c 128,-1,20
 324 758 324 758 324 600 c 2,21,-1
 324 197 l 1,22,-1
 444 197 l 1,23,-1
 444 -2 l 1,24,-1
 32 -2 l 1,0,-1
EndSplineSet
EndChar

StartChar: ordfeminine
Encoding: 170 170 470
Width: 694
VWidth: 2430
GlyphClass: 1
Flags: HW
LayerCount: 2
Fore
SplineSet
32 533 m 1,0,-1
 662 533 l 1,1,-1
 662 338 l 1,2,-1
 32 338 l 1,3,-1
 32 533 l 1,0,-1
243 911 m 0,4,5
 243 860 243 860 264 825 c 128,-1,6
 285 790 285 790 319 790 c 0,7,8
 375 790 375 790 400.5 847 c 128,-1,9
 426 904 426 904 428 1045 c 1,10,11
 414 1045 414 1045 394 1045 c 0,12,13
 313 1045 313 1045 278 1012 c 128,-1,14
 243 979 243 979 243 911 c 0,4,5
275 629 m 0,15,16
 178 629 178 629 126 702 c 128,-1,17
 74 775 74 775 74 884 c 0,18,19
 74 1044 74 1044 158.5 1123.5 c 128,-1,20
 243 1203 243 1203 392 1203 c 0,21,22
 406 1203 406 1203 426 1203 c 1,23,24
 421 1319 421 1319 395.5 1353 c 128,-1,25
 370 1387 370 1387 324 1387 c 0,26,27
 282 1387 282 1387 252 1371.5 c 128,-1,28
 222 1356 222 1356 190 1315 c 1,29,-1
 101 1426 l 1,30,31
 145 1479 145 1479 204 1511 c 128,-1,32
 263 1543 263 1543 343 1543 c 0,33,34
 426 1543 426 1543 483 1510 c 128,-1,35
 540 1477 540 1477 570 1386.5 c 128,-1,36
 600 1296 600 1296 600 1122 c 2,37,-1
 600 649 l 1,38,-1
 428 649 l 1,39,-1
 428 726 l 1,40,41
 401 670 401 670 363.5 649.5 c 128,-1,42
 326 629 326 629 275 629 c 0,15,16
EndSplineSet
EndChar

StartChar: ordmasculine
Encoding: 186 186 471
Width: 694
VWidth: 2430
GlyphClass: 1
Flags: HW
LayerCount: 2
Fore
SplineSet
32 533 m 1,0,-1
 662 533 l 1,1,-1
 662 338 l 1,2,-1
 32 338 l 1,3,-1
 32 533 l 1,0,-1
345 797 m 128,-1,5
 454 797 454 797 456 1081 c 0,6,7
 456 1236 456 1236 429 1307 c 128,-1,8
 402 1378 402 1378 345 1378 c 0,9,10
 294 1378 294 1378 265 1307 c 128,-1,11
 236 1236 236 1236 236 1081 c 0,12,4
 236 797 236 797 345 797 c 128,-1,5
345 631 m 128,-1,14
 222 631 222 631 143 734 c 128,-1,15
 64 837 64 837 64 1079 c 0,16,17
 64 1332 64 1332 143 1437.5 c 128,-1,18
 222 1543 222 1543 345 1543 c 128,-1,19
 468 1543 468 1543 548 1437 c 128,-1,20
 628 1331 628 1331 628 1079 c 0,21,22
 628 838 628 838 548 734.5 c 128,-1,13
 468 631 468 631 345 631 c 128,-1,14
EndSplineSet
EndChar

StartChar: uni2124
Encoding: 8484 8484 473
Width: 768
VWidth: 2430
GlyphClass: 1
Flags: HW
LayerCount: 2
Fore
SplineSet
604 1351 m 1,0,-1
 512 1351 l 1,1,-1
 162 160 l 1,2,-1
 257 160 l 1,3,-1
 604 1351 l 1,0,-1
736 1514 m 1,4,-1
 736 1351 l 1,5,-1
 382 160 l 1,6,-1
 623 160 l 2,7,8
 664 160 664 160 681.5 163.5 c 128,-1,9
 699 167 699 167 713 183 c 1,10,-1
 734 183 l 1,11,-1
 734 0 l 1,12,-1
 32 0 l 1,13,-1
 32 163 l 1,14,-1
 386 1351 l 1,15,-1
 34 1351 l 1,16,-1
 34 1514 l 1,17,-1
 736 1514 l 1,4,-1
EndSplineSet
EndChar

StartChar: zero
Encoding: 48 48 474
Width: 768
VWidth: 2430
GlyphClass: 1
Flags: HW
LayerCount: 2
Fore
SplineSet
383 172 m 0,0,1
 461 172 461 172 497.5 311 c 128,-1,2
 534 450 534 450 534 749 c 0,3,4
 534 819 534 819 534 879 c 1,5,-1
 252 396 l 1,6,7
 289 172 289 172 383 172 c 0,0,1
230 749 m 0,8,9
 230 668 230 668 232 603 c 1,10,-1
 514 1103 l 1,11,12
 478 1324 478 1324 383 1324 c 0,13,14
 230 1324 230 1324 230 749 c 0,8,9
383 -27 m 128,-1,16
 225 -27 225 -27 128.5 157 c 128,-1,17
 32 341 32 341 32 749 c 0,18,19
 32 1150 32 1150 129 1339 c 128,-1,20
 226 1528 226 1528 383 1528 c 0,21,22
 541 1528 541 1528 638.5 1339 c 128,-1,23
 736 1150 736 1150 736 749 c 0,24,25
 736 338 736 338 638.5 155.5 c 128,-1,15
 541 -27 541 -27 383 -27 c 128,-1,16
EndSplineSet
Substitution2: "'ss02' Style Set 2 in Latin lookup 36 subtable" zero.ss02
Substitution2: "'zero' Slashed Zero in Latin lookup 33 subtable" zero.zero
Substitution2: "'frac' Diagonal Fractions in Latin lookup 24 subtable" zero.numr
Substitution2: "'dnom' Denominators in Latin lookup 22 subtable" zero.dnom
Substitution2: "'numr' Numerators in Latin lookup 21 subtable" zero.numr
Substitution2: "'sups' Superscript in Latin lookup 20 subtable" uni2070
Substitution2: "'subs' Subscript in Latin lookup 19 subtable" uni2080
AlternateSubs2: "'aalt' Access All Alternates in Latin lookup 1 subtable" zero.zero zero.ss02 uni2080 zero.dnom zero.numr uni2070
EndChar

StartChar: one
Encoding: 49 49 475
Width: 502
VWidth: 2430
GlyphClass: 1
Flags: HW
LayerCount: 2
Fore
SplineSet
256 0 m 1,0,-1
 256 1220 l 1,1,-1
 74 1127 l 1,2,-1
 32 1305 l 1,3,-1
 319 1516 l 1,4,-1
 470 1516 l 1,5,-1
 470 0 l 1,6,-1
 256 0 l 1,0,-1
EndSplineSet
Substitution2: "'frac' Diagonal Fractions in Latin lookup 24 subtable" one.numr
Substitution2: "'dnom' Denominators in Latin lookup 22 subtable" one.dnom
Substitution2: "'numr' Numerators in Latin lookup 21 subtable" one.numr
Substitution2: "'sups' Superscript in Latin lookup 20 subtable" uni00B9
Substitution2: "'subs' Subscript in Latin lookup 19 subtable" uni2081
AlternateSubs2: "'aalt' Access All Alternates in Latin lookup 1 subtable" uni2081 one.dnom one.numr uni00B9
EndChar

StartChar: two
Encoding: 50 50 476
Width: 757
VWidth: 2430
GlyphClass: 1
Flags: HW
LayerCount: 2
Fore
SplineSet
62 170 m 1,0,1
 176 342 176 342 260 471 c 128,-1,2
 344 600 344 600 400 704.5 c 128,-1,3
 456 809 456 809 482.5 903 c 128,-1,4
 509 997 509 997 511 1096 c 0,5,6
 511.112676056 1102.02816901 511.112676056 1102.02816901 511.112676056 1107.90557429 c 0,0,0
 511.112676056 1206.35211268 511.112676056 1206.35211268 479.5 1262.5 c 128,-1,7
 446 1322 446 1322 384 1322 c 0,8,9
 340 1322 340 1322 305 1303.5 c 128,-1,10
 270 1285 270 1285 240 1239 c 1,11,12
 223 1205 223 1205 219 1188 c 128,-1,13
 215 1171 215 1171 219 1152 c 1,14,-1
 210 1134 l 1,15,-1
 191 1145 l 1,16,-1
 32 1225 l 1,17,18
 85 1366 85 1366 173 1447 c 128,-1,19
 261 1528 261 1528 393 1528 c 0,20,21
 541 1528 541 1528 630.5 1416.5 c 128,-1,22
 720 1305 720 1305 720 1094 c 0,23,24
 720 939 720 939 671.5 803.5 c 128,-1,25
 623 668 623 668 537 526 c 128,-1,26
 451 384 451 384 333 204 c 1,27,-1
 616 204 l 2,28,29
 655 204 655 204 673 209 c 128,-1,30
 691 214 691 214 706 229 c 1,31,-1
 725 229 l 1,32,-1
 725 0 l 1,33,-1
 62 0 l 1,34,-1
 62 170 l 1,0,1
EndSplineSet
Substitution2: "'frac' Diagonal Fractions in Latin lookup 24 subtable" two.numr
Substitution2: "'dnom' Denominators in Latin lookup 22 subtable" two.dnom
Substitution2: "'numr' Numerators in Latin lookup 21 subtable" two.numr
Substitution2: "'sups' Superscript in Latin lookup 20 subtable" uni00B2
Substitution2: "'subs' Subscript in Latin lookup 19 subtable" uni2082
AlternateSubs2: "'aalt' Access All Alternates in Latin lookup 1 subtable" uni2082 two.dnom two.numr uni00B2
EndChar

StartChar: three
Encoding: 51 51 477
Width: 747
VWidth: 2430
GlyphClass: 1
Flags: HW
LayerCount: 2
Fore
SplineSet
363 -27 m 0,0,1
 259 -27 259 -27 172 24 c 128,-1,2
 85 75 85 75 32 165 c 1,3,-1
 159 294 l 1,4,-1
 176 309 l 1,5,-1
 189 297 l 1,6,7
 189 280 189 280 193.5 263 c 128,-1,8
 198 246 198 246 219 216 c 1,9,10
 272 163 272 163 349 163 c 0,11,12
 421 163 421 163 462.5 227.5 c 128,-1,13
 504 292 504 292 504 425 c 0,14,15
 504 590 504 590 438.5 651 c 128,-1,16
 388.55625 697.5125 388.55625 697.5125 299.367578125 697.5125 c 0,0,0
 271.5875 697.5125 271.5875 697.5125 240 693 c 1,17,-1
 240 882 l 1,18,19
 245.666666667 881.888888889 245.666666667 881.888888889 251.171296296 881.888888889 c 0,0,0
 344.75 881.888888889 344.75 881.888888889 391.5 914 c 128,-1,20
 441 948 441 948 458 1007.5 c 128,-1,21
 475 1067 475 1067 475 1140 c 0,22,23
 475 1235 475 1235 443.5 1286.5 c 128,-1,24
 412 1338 412 1338 356 1338 c 0,25,26
 266 1338 266 1338 200 1227 c 1,27,-1
 59 1334 l 1,28,29
 115 1431 115 1431 196.5 1479.5 c 128,-1,30
 278 1528 278 1528 368 1528 c 0,31,32
 504 1528 504 1528 592.5 1431 c 128,-1,33
 681 1334 681 1334 681 1147 c 0,34,35
 681 1026 681 1026 640 936 c 128,-1,36
 599 846 599 846 523 807 c 1,37,38
 606 763 606 763 660.5 669 c 128,-1,39
 715 575 715 575 715 418 c 0,40,41
 715 212 715 212 619 92.5 c 128,-1,42
 523 -27 523 -27 363 -27 c 0,0,1
EndSplineSet
Substitution2: "'frac' Diagonal Fractions in Latin lookup 24 subtable" three.numr
Substitution2: "'dnom' Denominators in Latin lookup 22 subtable" three.dnom
Substitution2: "'numr' Numerators in Latin lookup 21 subtable" three.numr
Substitution2: "'sups' Superscript in Latin lookup 20 subtable" uni00B3
Substitution2: "'subs' Subscript in Latin lookup 19 subtable" uni2083
AlternateSubs2: "'aalt' Access All Alternates in Latin lookup 1 subtable" uni2083 three.dnom three.numr uni00B3
EndChar

StartChar: four
Encoding: 52 52 478
Width: 813
VWidth: 2430
GlyphClass: 1
Flags: HW
LayerCount: 2
Fore
SplineSet
226 556 m 1,0,-1
 431 556 l 1,1,-1
 431 1025 l 1,2,-1
 226 556 l 1,0,-1
429 0 m 1,3,-1
 429 355 l 1,4,-1
 32 355 l 1,5,-1
 32 529 l 1,6,-1
 478 1516 l 1,7,-1
 628 1516 l 1,8,-1
 628 556 l 1,9,-1
 736 556 l 1,10,-1
 736 352 l 1,11,-1
 628 352 l 1,12,-1
 628 0 l 1,13,-1
 429 0 l 1,3,-1
EndSplineSet
Substitution2: "'frac' Diagonal Fractions in Latin lookup 24 subtable" four.numr
Substitution2: "'dnom' Denominators in Latin lookup 22 subtable" four.dnom
Substitution2: "'numr' Numerators in Latin lookup 21 subtable" four.numr
Substitution2: "'sups' Superscript in Latin lookup 20 subtable" uni2074
Substitution2: "'subs' Subscript in Latin lookup 19 subtable" uni2084
AlternateSubs2: "'aalt' Access All Alternates in Latin lookup 1 subtable" uni2084 four.dnom four.numr uni2074
EndChar

StartChar: five
Encoding: 53 53 479
Width: 763
VWidth: 2430
GlyphClass: 1
Flags: HW
LayerCount: 2
Fore
SplineSet
376 -27 m 0,0,1
 264 -27 264 -27 174.5 28 c 128,-1,2
 85 83 85 83 32 204 c 1,3,-1
 185 313 l 1,4,-1
 202 325 l 1,5,-1
 211 311 l 1,6,7
 209 294 209 294 212.5 278 c 128,-1,8
 216 262 216 262 236 231 c 1,9,10
 287 173 287 173 367 172 c 0,11,12
 439 172 439 172 480.5 257.5 c 128,-1,13
 522 343 522 343 522 482 c 0,14,15
 522 640 522 640 483.5 723.5 c 128,-1,16
 445 807 445 807 371 807 c 0,17,18
 276 807 276 807 214 698 c 1,19,-1
 81 729 l 1,20,-1
 114 1514 l 1,21,-1
 677 1514 l 1,22,-1
 677 1312 l 1,23,-1
 304 1312 l 1,24,-1
 289 941 l 1,25,26
 350 997 350 997 440 997 c 0,27,28
 574 997 574 997 652.5 870.5 c 128,-1,29
 731 744 731 744 731 486 c 0,30,31
 731 236 731 236 633.5 104.5 c 128,-1,32
 536 -27 536 -27 376 -27 c 0,0,1
EndSplineSet
Substitution2: "'frac' Diagonal Fractions in Latin lookup 24 subtable" five.numr
Substitution2: "'dnom' Denominators in Latin lookup 22 subtable" five.dnom
Substitution2: "'numr' Numerators in Latin lookup 21 subtable" five.numr
Substitution2: "'sups' Superscript in Latin lookup 20 subtable" uni2075
Substitution2: "'subs' Subscript in Latin lookup 19 subtable" uni2085
AlternateSubs2: "'aalt' Access All Alternates in Latin lookup 1 subtable" uni2085 five.dnom five.numr uni2075
EndChar

StartChar: six
Encoding: 54 54 480
Width: 744
VWidth: 2430
GlyphClass: 1
Flags: HW
LayerCount: 2
Fore
SplineSet
389 178 m 0,0,1
 442 178 442 178 476 252.5 c 128,-1,2
 510 327 510 327 510 489 c 0,3,4
 510 642 510 642 475 712 c 128,-1,5
 440 782 440 782 389 782 c 0,6,7
 340 782 340 782 306.5 744.5 c 128,-1,8
 273 707 273 707 248 644 c 1,9,10
 246.346938776 605.612244898 246.346938776 605.612244898 246.346938776 569.940233236 c 0,0,0
 246.346938776 411.397959184 246.346938776 411.397959184 279 306.5 c 128,-1,11
 319 178 319 178 389 178 c 0,0,1
387 -24 m 0,12,13
 215 -24 215 -24 123.5 156 c 128,-1,14
 32 336 32 336 32 693 c 0,15,16
 32 1118 32 1118 141 1325.5 c 128,-1,17
 250 1533 250 1533 438 1533 c 0,18,19
 516 1533 516 1533 586 1494.5 c 128,-1,20
 656 1456 656 1456 702 1378 c 1,21,-1
 593 1229 l 1,22,-1
 581 1213 l 1,23,-1
 566 1222 l 1,24,25
 564 1239 564 1239 558 1256 c 128,-1,26
 552 1273 552 1273 530 1298 c 1,27,28
 494.193548387 1327.03225806 494.193548387 1327.03225806 449.958376691 1327.03225806 c 0,0,0
 448.483870968 1327.03225806 448.483870968 1327.03225806 447 1327 c 0,29,30
 405 1327 405 1327 360.5 1294 c 128,-1,31
 316 1261 316 1261 283 1165 c 128,-1,32
 250 1069 250 1069 243 879 c 1,33,34
 315 983 315 983 433 984 c 0,35,36
 554 984 554 984 633 860.5 c 128,-1,37
 712 737 712 737 712 489 c 0,38,39
 712 255 712 255 626 115.5 c 128,-1,40
 540 -24 540 -24 387 -24 c 0,12,13
EndSplineSet
Substitution2: "'frac' Diagonal Fractions in Latin lookup 24 subtable" six.numr
Substitution2: "'dnom' Denominators in Latin lookup 22 subtable" six.dnom
Substitution2: "'numr' Numerators in Latin lookup 21 subtable" six.numr
Substitution2: "'sups' Superscript in Latin lookup 20 subtable" uni2076
Substitution2: "'subs' Subscript in Latin lookup 19 subtable" uni2086
AlternateSubs2: "'aalt' Access All Alternates in Latin lookup 1 subtable" uni2086 six.dnom six.numr uni2076
EndChar

StartChar: seven
Encoding: 55 55 481
Width: 708
VWidth: 2430
GlyphClass: 1
Flags: HW
LayerCount: 2
Fore
SplineSet
125 0 m 1,0,1
 200 343 200 343 270.5 660 c 128,-1,2
 341 977 341 977 431 1308 c 1,3,-1
 32 1308 l 1,4,-1
 32 1514 l 1,5,-1
 676 1514 l 1,6,-1
 676 1375 l 1,7,8
 576 1030 576 1030 500 696 c 128,-1,9
 424 362 424 362 350 0 c 1,10,-1
 125 0 l 1,0,1
EndSplineSet
Substitution2: "'frac' Diagonal Fractions in Latin lookup 24 subtable" seven.numr
Substitution2: "'dnom' Denominators in Latin lookup 22 subtable" seven.dnom
Substitution2: "'numr' Numerators in Latin lookup 21 subtable" seven.numr
Substitution2: "'sups' Superscript in Latin lookup 20 subtable" uni2077
Substitution2: "'subs' Subscript in Latin lookup 19 subtable" uni2087
AlternateSubs2: "'aalt' Access All Alternates in Latin lookup 1 subtable" uni2087 seven.dnom seven.numr uni2077
EndChar

StartChar: eight
Encoding: 56 56 482
Width: 761
VWidth: 2430
GlyphClass: 1
Flags: HW
LayerCount: 2
Fore
SplineSet
381 178 m 0,0,1
 522 178 522 178 522 401 c 0,2,3
 522 510 522 510 481 583 c 128,-1,4
 440 656 440 656 364 700 c 1,5,6
 306 658 306 658 272 586.5 c 128,-1,7
 238 515 238 515 238 408 c 0,8,9
 238 292 238 292 279 235 c 128,-1,10
 320 178 320 178 381 178 c 0,0,1
408 899 m 1,11,12
 454 941 454 941 475 1012 c 128,-1,13
 496 1083 496 1083 496 1159 c 0,14,15
 496 1237 496 1237 467 1285.5 c 128,-1,16
 438 1334 438 1334 383 1334 c 0,17,18
 330 1334 330 1334 304.5 1286.5 c 128,-1,19
 279 1239 279 1239 279 1166 c 0,20,21
 279 1066 279 1066 313 1005.5 c 128,-1,22
 347 945 347 945 408 899 c 1,11,12
378 -24 m 0,23,24
 218 -24 218 -24 125 89 c 128,-1,25
 32 202 32 202 32 384 c 0,26,27
 32 532 32 532 84 640.5 c 128,-1,28
 136 749 136 749 228 814 c 1,29,30
 80 935 80 935 79 1157 c 0,31,32
 79 1324 79 1324 163.5 1429.5 c 128,-1,33
 248 1535 248 1535 389 1535 c 0,34,35
 537 1535 537 1535 615 1433 c 128,-1,36
 693 1331 693 1331 693 1171 c 0,37,38
 693 1057 693 1057 658.5 960 c 128,-1,39
 624 863 624 863 554 802 c 1,40,41
 728 670 728 670 729 394 c 0,42,43
 729 202 729 202 635 89 c 128,-1,44
 541 -24 541 -24 378 -24 c 0,23,24
EndSplineSet
Substitution2: "'frac' Diagonal Fractions in Latin lookup 24 subtable" eight.numr
Substitution2: "'dnom' Denominators in Latin lookup 22 subtable" eight.dnom
Substitution2: "'numr' Numerators in Latin lookup 21 subtable" eight.numr
Substitution2: "'sups' Superscript in Latin lookup 20 subtable" uni2078
Substitution2: "'subs' Subscript in Latin lookup 19 subtable" uni2088
AlternateSubs2: "'aalt' Access All Alternates in Latin lookup 1 subtable" uni2088 eight.dnom eight.numr uni2078
EndChar

StartChar: nine
Encoding: 57 57 483
Width: 744
VWidth: 2430
GlyphClass: 1
Flags: HW
LayerCount: 2
Fore
SplineSet
234 1025 m 0,0,1
 234 886 234 886 273.5 816 c 128,-1,2
 313 746 313 746 376 746 c 0,3,4
 464 746 464 746 513 802 c 1,5,6
 513 1006 513 1006 497.5 1120 c 128,-1,7
 482 1234 482 1234 450 1281.5 c 128,-1,8
 418 1329 418 1329 369 1329 c 0,9,10
 306 1329 306 1329 270 1257 c 128,-1,11
 234 1185 234 1185 234 1025 c 0,0,1
331 -24 m 0,12,13
 144 -24 144 -24 37 119 c 1,14,-1
 141 276 l 1,15,-1
 155 297 l 1,16,-1
 170 290 l 1,17,18
 175 271 175 271 181 252.5 c 128,-1,19
 187 234 187 234 211 206 c 1,20,21
 257 174 257 174 316 174 c 0,22,23
 404 174 404 174 449 296 c 128,-1,24
 494 418 494 418 505 600 c 1,25,26
 444 549 444 549 359 549 c 0,27,28
 223 549 223 549 127.5 673 c 128,-1,29
 32 797 32 797 32 1028 c 0,30,31
 32 1271 32 1271 130.5 1399.5 c 128,-1,32
 229 1528 229 1528 369 1528 c 0,33,34
 547 1528 547 1528 629.5 1363 c 128,-1,35
 712 1198 712 1198 712 863 c 0,36,37
 712 399 712 399 616.5 188.5 c 128,-1,38
 521 -22 521 -22 331 -24 c 0,12,13
EndSplineSet
Substitution2: "'frac' Diagonal Fractions in Latin lookup 24 subtable" nine.numr
Substitution2: "'dnom' Denominators in Latin lookup 22 subtable" nine.dnom
Substitution2: "'numr' Numerators in Latin lookup 21 subtable" nine.numr
Substitution2: "'sups' Superscript in Latin lookup 20 subtable" uni2079
Substitution2: "'subs' Subscript in Latin lookup 19 subtable" uni2089
AlternateSubs2: "'aalt' Access All Alternates in Latin lookup 1 subtable" uni2089 nine.dnom nine.numr uni2079
EndChar

StartChar: zero.zero
Encoding: 65541 -1 484
Width: 768
VWidth: 2430
GlyphClass: 1
Flags: HW
LayerCount: 2
Fore
SplineSet
383 654 m 128,-1,1
 338 654 338 654 306.5 686.5 c 128,-1,2
 275 719 275 719 275 768 c 0,3,4
 275 814 275 814 306.5 848 c 128,-1,5
 338 882 338 882 383 882 c 128,-1,6
 428 882 428 882 460.5 848 c 128,-1,7
 493 814 493 814 493 768 c 128,-1,8
 493 722 493 722 460.5 688 c 128,-1,0
 428 654 428 654 383 654 c 128,-1,1
383 172 m 0,9,10
 461 172 461 172 497.5 311 c 128,-1,11
 534 450 534 450 534 749 c 0,12,13
 534 1324 534 1324 383 1324 c 0,14,15
 230 1324 230 1324 230 749 c 0,16,17
 230 450 230 450 270 311 c 128,-1,18
 310 172 310 172 383 172 c 0,9,10
383 -27 m 128,-1,20
 225 -27 225 -27 128.5 157 c 128,-1,21
 32 341 32 341 32 749 c 0,22,23
 32 1150 32 1150 129 1339 c 128,-1,24
 226 1528 226 1528 383 1528 c 0,25,26
 541 1528 541 1528 638.5 1339 c 128,-1,27
 736 1150 736 1150 736 749 c 0,28,29
 736 338 736 338 638.5 155.5 c 128,-1,19
 541 -27 541 -27 383 -27 c 128,-1,20
EndSplineSet
EndChar

StartChar: zero.ss02
Encoding: 65542 -1 485
Width: 768
VWidth: 2430
GlyphClass: 1
Flags: HW
LayerCount: 2
Fore
SplineSet
383 172 m 0,0,1
 461 172 461 172 497.5 311 c 128,-1,2
 534 450 534 450 534 749 c 0,3,4
 534 1324 534 1324 383 1324 c 0,5,6
 230 1324 230 1324 230 749 c 0,7,8
 230 450 230 450 270 311 c 128,-1,9
 310 172 310 172 383 172 c 0,0,1
383 -27 m 128,-1,11
 225 -27 225 -27 128.5 157 c 128,-1,12
 32 341 32 341 32 749 c 0,13,14
 32 1150 32 1150 129 1339 c 128,-1,15
 226 1528 226 1528 383 1528 c 0,16,17
 541 1528 541 1528 638.5 1339 c 128,-1,18
 736 1150 736 1150 736 749 c 0,19,20
 736 338 736 338 638.5 155.5 c 128,-1,10
 541 -27 541 -27 383 -27 c 128,-1,11
EndSplineSet
EndChar

StartChar: uni2070
Encoding: 8304 8304 516
Width: 565
VWidth: 2430
GlyphClass: 1
Flags: HW
LayerCount: 2
Fore
SplineSet
282 719 m 0,0,1
 338 719 338 719 362.5 801.5 c 128,-1,2
 387 884 387 884 387 1062 c 0,3,4
 387 1101 387 1101 387 1134 c 1,5,-1
 193 848 l 1,6,7
 217 719 217 719 282 719 c 0,0,1
178 1062 m 0,8,9
 178 1020 178 1020 178 986 c 1,10,-1
 373 1283 l 1,11,12
 346 1404 346 1404 282 1405 c 0,13,14
 178 1405 178 1405 178 1062 c 0,8,9
282 580 m 128,-1,16
 170 580 170 580 101 694.5 c 128,-1,17
 32 809 32 809 32 1062 c 0,18,19
 32 1312 32 1312 101.5 1429 c 128,-1,20
 171 1546 171 1546 282 1546 c 0,21,22
 394 1546 394 1546 463.5 1429 c 128,-1,23
 533 1312 533 1312 533 1062 c 0,24,25
 533 807 533 807 463.5 693.5 c 128,-1,15
 394 580 394 580 282 580 c 128,-1,16
EndSplineSet
Substitution2: "'ss02' Style Set 2 in Latin lookup 36 subtable" uni2070.ss02
Substitution2: "'zero' Slashed Zero in Latin lookup 33 subtable" uni2070.zero
AlternateSubs2: "'aalt' Access All Alternates in Latin lookup 1 subtable" uni2070.ss02 uni2070.zero
EndChar

StartChar: uni00B9
Encoding: 185 185 517
Width: 370
VWidth: 2430
GlyphClass: 1
Flags: HW
LayerCount: 2
Fore
SplineSet
183 598 m 1,0,-1
 183 1338 l 1,1,-1
 64 1278 l 1,2,-1
 32 1407 l 1,3,-1
 227 1538 l 1,4,-1
 338 1538 l 1,5,-1
 338 598 l 1,6,-1
 183 598 l 1,0,-1
EndSplineSet
EndChar

StartChar: uni00B2
Encoding: 178 178 518
Width: 545
VWidth: 2430
GlyphClass: 1
Flags: HW
LayerCount: 2
Fore
SplineSet
51 712 m 1,0,1
 158 858 158 858 225 953 c 128,-1,2
 292 1048 292 1048 324.5 1122 c 128,-1,3
 357 1196 357 1196 359 1278 c 0,4,5
 359 1331 359 1331 338.5 1367 c 128,-1,6
 318 1403 318 1403 274 1403 c 0,7,8
 232 1403 232 1403 209 1385 c 1,9,10
 185 1353 185 1353 178.5 1336 c 128,-1,11
 172 1319 172 1319 172 1300 c 1,12,-1
 160 1285 l 1,13,-1
 144 1300 l 1,14,-1
 32 1361 l 1,15,16
 71 1449 71 1449 130.5 1497.5 c 128,-1,17
 190 1546 190 1546 281 1546 c 0,18,19
 381 1546 381 1546 444.5 1476.5 c 128,-1,20
 508 1407 508 1407 508 1276 c 0,21,22
 508 1181 508 1181 479 1102 c 128,-1,23
 450 1023 450 1023 394 938 c 128,-1,24
 338 853 338 853 260 742 c 1,25,-1
 403 742 l 2,26,27
 442 742 442 742 460 746.5 c 128,-1,28
 478 751 478 751 494 763 c 1,29,-1
 513 763 l 1,30,-1
 513 598 l 1,31,-1
 51 598 l 1,32,-1
 51 712 l 1,0,1
EndSplineSet
EndChar

StartChar: uni00B3
Encoding: 179 179 519
Width: 537
VWidth: 2430
GlyphClass: 1
Flags: HW
LayerCount: 2
Fore
SplineSet
260 580 m 0,0,1
 109 580 109 580 32 700 c 1,2,-1
 119 790 l 1,3,-1
 136 807 l 1,4,-1
 148 795 l 1,5,6
 148 776 148 776 156.5 762.5 c 128,-1,7
 165 749 165 749 192 724 c 1,8,9
 219 715 219 715 250 714 c 0,10,11
 299 714 299 714 327 750 c 128,-1,12
 355 786 355 786 355 863 c 0,13,14
 355 963 355 963 311 996.5 c 0,15,16
 278.604395604 1021.16483516 278.604395604 1021.16483516 219.646661031 1021.16483516 c 0,17,18
 198.527472527 1021.16483516 198.527472527 1021.16483516 174 1018 c 1,19,-1
 174 1152 l 1,20,21
 178.636363636 1151.90909091 178.636363636 1151.90909091 183.123966942 1151.90909091 c 0,22,23
 277.363636364 1151.90909091 277.363636364 1151.90909091 306 1192 c 0,24,25
 336 1234 336 1234 336 1300 c 0,26,27
 336 1353 336 1353 315 1383.5 c 128,-1,28
 294 1414 294 1414 255 1414 c 0,29,30
 192 1414 192 1414 148 1347 c 1,31,-1
 49 1426 l 1,32,33
 88 1487 88 1487 145 1516.5 c 128,-1,34
 202 1546 202 1546 262 1546 c 0,35,36
 357 1546 357 1546 420 1486 c 128,-1,37
 483 1426 483 1426 483 1310 c 0,38,39
 483 1232 483 1232 455 1177 c 128,-1,40
 427 1122 427 1122 378 1099 c 1,41,42
 431 1072 431 1072 468 1013.5 c 128,-1,43
 505 955 505 955 505 858 c 0,44,45
 505 726 505 726 438.5 653 c 128,-1,46
 372 580 372 580 260 580 c 0,0,1
EndSplineSet
EndChar

StartChar: uni2074
Encoding: 8308 8308 520
Width: 574
VWidth: 2430
GlyphClass: 1
Flags: HW
LayerCount: 2
Fore
SplineSet
180 953 m 1,0,-1
 316 953 l 1,1,-1
 316 1213 l 1,2,-1
 180 953 l 1,0,-1
313 598 m 1,3,-1
 313 812 l 1,4,-1
 32 812 l 1,5,-1
 32 933 l 1,6,-1
 350 1538 l 1,7,-1
 462 1538 l 1,8,-1
 462 955 l 1,9,-1
 542 955 l 1,10,-1
 542 812 l 1,11,-1
 462 812 l 1,12,-1
 462 598 l 1,13,-1
 313 598 l 1,3,-1
EndSplineSet
EndChar

StartChar: uni2075
Encoding: 8309 8309 521
Width: 547
VWidth: 2430
GlyphClass: 1
Flags: HW
LayerCount: 2
Fore
SplineSet
269 580 m 0,0,1
 191 580 191 580 129.5 614.5 c 128,-1,2
 68 649 68 649 32 726 c 1,3,-1
 139 804 l 1,4,-1
 155 816 l 1,5,-1
 165 802 l 1,6,7
 163 785 163 785 171.5 771.5 c 128,-1,8
 180 758 180 758 204 731 c 1,9,10
 231 722 231 722 260 721 c 0,11,12
 311 721 311 721 337.5 770 c 128,-1,13
 364 819 364 819 364 897 c 0,14,15
 364 1086.0052356 364 1086.0052356 266.033935473 1086.0052356 c 0,16,17
 265.518324607 1086.0052356 265.518324607 1086.0052356 265 1086 c 0,18,19
 202 1086 202 1086 163 1023 c 1,20,-1
 63 1045 l 1,21,-1
 88 1535 l 1,22,-1
 477 1535 l 1,23,-1
 477 1398 l 1,24,-1
 224 1398 l 1,25,-1
 214 1183 l 1,26,27
 256 1220 256 1220 316 1220 c 0,28,29
 406 1220 406 1220 460.5 1142 c 128,-1,30
 515 1064 515 1064 515 902 c 0,31,32
 515 747 515 747 448 663.5 c 128,-1,33
 381 580 381 580 269 580 c 0,0,1
EndSplineSet
EndChar

StartChar: uni2076
Encoding: 8310 8310 522
Width: 535
VWidth: 2430
GlyphClass: 1
Flags: HW
LayerCount: 2
Fore
SplineSet
280 724 m 0,0,1
 317 724 317 724 338 766.5 c 128,-1,2
 359 809 359 809 359 902 c 0,3,4
 359 992 359 992 336 1031.5 c 128,-1,5
 313 1071 313 1071 280 1071 c 0,6,7
 248 1071 248 1071 226 1050.5 c 128,-1,8
 204 1030 204 1030 187 997 c 1,9,10
 186.193548387 975.709677419 186.193548387 975.709677419 186.193548387 955.993236212 c 0,11,12
 186.193548387 853.467741935 186.193548387 853.467741935 208 793.5 c 0,13,14
 233.292517007 723.945578231 233.292517007 723.945578231 277.511407284 723.945578231 c 0,15,16
 278.74829932 723.945578231 278.74829932 723.945578231 280 724 c 0,0,1
278 584 m 0,17,18
 32 584 32 584 32 1025 c 0,19,20
 32 1290 32 1290 108.5 1420.5 c 128,-1,21
 185 1551 185 1551 311 1551 c 0,22,23
 364 1551 364 1551 414 1526.5 c 128,-1,24
 464 1502 464 1502 501 1451 c 1,25,-1
 420 1351 l 1,26,-1
 408 1334 l 1,27,-1
 394 1344 l 1,28,29
 392 1363 392 1363 382.5 1372.5 c 128,-1,30
 373 1382 373 1382 343 1405 c 0,31,32
 338 1405 338 1405 332 1405 c 128,-1,33
 326 1405 326 1405 322 1405 c 0,34,35
 295 1405 295 1405 264.5 1386.5 c 128,-1,36
 234 1368 234 1368 212 1312.5 c 128,-1,37
 190 1257 190 1257 185 1150 c 1,38,39
 230.258064516 1210.01612903 230.258064516 1210.01612903 305.524193548 1210.01612903 c 0,40,41
 306.758064516 1210.01612903 306.758064516 1210.01612903 308 1210 c 0,42,43
 396 1210 396 1210 449.5 1136 c 128,-1,44
 503 1062 503 1062 503 904 c 0,45,46
 503 758 503 758 444 671 c 128,-1,47
 385 584 385 584 278 584 c 0,17,18
EndSplineSet
EndChar

StartChar: uni2077
Encoding: 8311 8311 523
Width: 511
VWidth: 2430
GlyphClass: 1
Flags: HW
LayerCount: 2
Fore
SplineSet
95 598 m 1,0,1
 146 807 146 807 194.5 999 c 128,-1,2
 243 1191 243 1191 304 1389 c 1,3,-1
 32 1389 l 1,4,-1
 32 1535 l 1,5,-1
 479 1535 l 1,6,-1
 479 1436 l 1,7,8
 414 1225 414 1225 360.5 1023 c 128,-1,9
 307 821 307 821 255 598 c 1,10,-1
 95 598 l 1,0,1
EndSplineSet
EndChar

StartChar: uni2078
Encoding: 8312 8312 524
Width: 549
VWidth: 2430
GlyphClass: 1
Flags: HW
LayerCount: 2
Fore
SplineSet
276 724 m 0,0,1
 322 724 322 724 345.5 753 c 128,-1,2
 369 782 369 782 369 848 c 0,3,4
 369 913 369 913 340 956 c 128,-1,5
 311 999 311 999 260 1023 c 1,6,7
 223 999 223 999 203 957.5 c 128,-1,8
 183 916 183 916 183 853 c 0,9,10
 183 785 183 785 208.5 754.5 c 128,-1,11
 234 724 234 724 276 724 c 0,0,1
297 1159 m 1,12,13
 327 1180 327 1180 339.5 1224 c 128,-1,14
 352 1268 352 1268 352 1312 c 128,-1,15
 352 1356 352 1356 332.5 1383 c 128,-1,16
 313 1410 313 1410 276 1410 c 0,17,18
 242 1410 242 1410 225.5 1383 c 128,-1,19
 209 1356 209 1356 209 1317 c 0,20,21
 209 1259 209 1259 232 1221 c 128,-1,22
 255 1183 255 1183 297 1159 c 1,12,13
274 584 m 128,-1,24
 162 584 162 584 97 652.5 c 128,-1,25
 32 721 32 721 32 837 c 0,26,27
 32 932 32 932 67 997 c 128,-1,28
 102 1062 102 1062 163 1103 c 1,29,30
 68 1181 68 1181 68 1312 c 0,31,32
 68 1416 68 1416 126.5 1483.5 c 128,-1,33
 185 1551 185 1551 282 1551 c 0,34,35
 382 1551 382 1551 438 1486 c 128,-1,36
 494 1421 494 1421 494 1322 c 0,37,38
 494 1250 494 1250 472 1191 c 128,-1,39
 450 1132 450 1132 406 1094 c 1,40,41
 517.008849558 1013.71681416 517.008849558 1013.71681416 517.008849558 846.984258752 c 0,42,43
 517.008849558 725.009525096 517.008849558 725.009525096 451.5 654.5 c 128,-1,23
 386 584 386 584 274 584 c 128,-1,24
EndSplineSet
EndChar

StartChar: uni2079
Encoding: 8313 8313 525
Width: 535
VWidth: 2430
GlyphClass: 1
Flags: HW
LayerCount: 2
Fore
SplineSet
176 1229 m 0,0,1
 176 1069 176 1069 269 1069 c 0,2,3
 327 1069 327 1069 357 1101 c 1,4,5
 357 1284 357 1284 335 1345.5 c 128,-1,6
 313 1407 313 1407 265 1407 c 0,7,8
 223 1407 223 1407 199.5 1365.5 c 128,-1,9
 176 1324 176 1324 176 1229 c 0,0,1
238 584 m 0,10,11
 104 584 104 584 32 673 c 1,12,-1
 109 786 l 1,13,-1
 125 804 l 1,14,-1
 139 793 l 1,15,16
 141 774 141 774 152 761.5 c 128,-1,17
 163 749 163 749 192 726 c 1,18,19
 209 721 209 721 229 721 c 0,20,21
 282 721 282 721 312.5 787 c 128,-1,22
 343 853 343 853 352 962 c 1,23,24
 313 930 313 930 255 930 c 0,25,26
 162 930 162 930 97 1006.5 c 128,-1,27
 32 1083 32 1083 32 1232 c 0,28,29
 32 1385 32 1385 99.5 1465.5 c 128,-1,30
 167 1546 167 1546 267 1546 c 0,31,32
 388 1546 388 1546 445.5 1443.5 c 128,-1,33
 503 1341 503 1341 503 1127 c 0,34,35
 503 842 503 842 436.5 713 c 128,-1,36
 370 584 370 584 238 584 c 0,10,11
EndSplineSet
EndChar

StartChar: fraction
Encoding: 8260 8260 526
Width: 725
VWidth: 2430
GlyphClass: 1
Flags: HW
LayerCount: 2
Fore
SplineSet
151 -104 m 1,0,-1
 32 -42 l 1,1,-1
 571 1630 l 1,2,-1
 693 1563 l 1,3,-1
 151 -104 l 1,0,-1
EndSplineSet
EndChar

StartChar: onehalf
Encoding: 189 189 527
Width: 713
VWidth: 2430
GlyphClass: 1
Flags: HW
LayerCount: 2
Fore
SplineSet
382 -170 m 1,0,-1
 382 -72 l 1,1,2
 456 42 456 42 500.5 116 c 128,-1,3
 545 190 545 190 567 247 c 128,-1,4
 589 304 589 304 589 367 c 0,5,6
 589 404 589 404 576.5 429 c 128,-1,7
 564 454 564 454 537 454 c 0,8,9
 509 454 509 454 489.5 440.5 c 128,-1,10
 470 427 470 427 451 382 c 1,11,-1
 369 435 l 1,12,13
 397 500 397 500 437.5 540 c 128,-1,14
 478 580 478 580 541 580 c 0,15,16
 611 580 611 580 655.5 524.5 c 128,-1,17
 700 469 700 469 700 367 c 0,18,19
 700 292 700 292 681.5 231 c 128,-1,20
 663 170 663 170 627.5 106 c 128,-1,21
 592 42 592 42 539 -46 c 1,22,-1
 700 -46 l 1,23,-1
 700 -170 l 1,24,-1
 382 -170 l 1,0,-1
162 -104 m 1,25,-1
 59 -42 l 1,26,-1
 524 1630 l 1,27,-1
 629 1563 l 1,28,-1
 162 -104 l 1,25,-1
97 923 m 1,29,-1
 97 1497 l 1,30,-1
 20 1451 l 1,31,-1
 -4 1563 l 1,32,-1
 128 1667 l 1,33,-1
 212 1667 l 1,34,-1
 212 923 l 1,35,-1
 97 923 l 1,29,-1
EndSplineSet
EndChar

StartChar: onequarter
Encoding: 188 188 528
Width: 697
VWidth: 2430
GlyphClass: 1
Flags: HW
LayerCount: 2
Fore
SplineSet
453 116 m 1,0,-1
 534 116 l 1,1,-1
 534 297 l 1,2,-1
 453 116 l 1,0,-1
532 -170 m 1,3,-1
 532 -5 l 1,4,-1
 346 -5 l 1,5,-1
 346 100 l 1,6,-1
 561 573 l 1,7,-1
 639 573 l 1,8,-1
 639 116 l 1,9,-1
 692 116 l 1,10,-1
 692 -5 l 1,11,-1
 639 -5 l 1,12,-1
 639 -170 l 1,13,-1
 532 -170 l 1,3,-1
152 -104 m 1,14,-1
 51 -42 l 1,15,-1
 511 1630 l 1,16,-1
 615 1563 l 1,17,-1
 152 -104 l 1,14,-1
88 923 m 1,18,-1
 88 1497 l 1,19,-1
 11 1451 l 1,20,-1
 -12 1563 l 1,21,-1
 119 1667 l 1,22,-1
 202 1667 l 1,23,-1
 202 923 l 1,24,-1
 88 923 l 1,18,-1
EndSplineSet
EndChar

StartChar: threequarters
Encoding: 190 190 529
Width: 673
VWidth: 2430
GlyphClass: 1
Flags: HW
LayerCount: 2
Fore
SplineSet
515 116 m 1,0,-1
 515 297 l 1,1,-1
 437 116 l 1,2,-1
 515 116 l 1,0,-1
513 -5 m 1,3,-1
 333 -5 l 1,4,-1
 333 100 l 1,5,-1
 542 573 l 1,6,-1
 617 573 l 1,7,-1
 617 116 l 1,8,-1
 668 116 l 1,9,-1
 668 -5 l 1,10,-1
 617 -5 l 1,11,-1
 617 -170 l 1,12,-1
 513 -170 l 1,13,-1
 513 -5 l 1,3,-1
146 -104 m 1,14,-1
 48 -42 l 1,15,-1
 493 1630 l 1,16,-1
 594 1563 l 1,17,-1
 146 -104 l 1,14,-1
118 911 m 0,18,19
 16 911 16 911 -36 1004 c 1,20,-1
 22 1081 l 1,21,-1
 35 1096 l 1,22,-1
 46 1086 l 1,23,24
 42 1062 42 1062 72 1032 c 1,25,26
 88 1023 88 1023 110 1023 c 0,27,28
 138 1023 138 1023 155.5 1048.5 c 128,-1,29
 173 1074 173 1074 173 1132 c 0,30,31
 173 1210 173 1210 145.5 1235.5 c 128,-1,32
 125.173913043 1254.34782609 125.173913043 1254.34782609 88.1852551985 1254.34782609 c 0,0,0
 75.1304347826 1254.34782609 75.1304347826 1254.34782609 60 1252 c 1,33,-1
 60 1366 l 1,34,35
 63.9393939394 1365.87878788 63.9393939394 1365.87878788 67.709825528 1365.87878788 c 0,0,0
 126.151515152 1365.87878788 126.151515152 1365.87878788 144 1395 c 128,-1,36
 163 1426 163 1426 163 1475 c 0,37,38
 163 1560 163 1560 112 1560 c 0,39,40
 70 1560 70 1560 44 1509 c 1,41,-1
 -26 1577 l 1,42,43
 0 1626 0 1626 39 1650 c 128,-1,44
 78 1674 78 1674 118 1674 c 0,45,46
 180 1674 180 1674 223.5 1626.5 c 128,-1,47
 267 1579 267 1579 267 1484 c 0,48,49
 267 1423 267 1423 247.5 1380.5 c 128,-1,50
 228 1338 228 1338 200 1319 c 1,51,52
 232 1298 232 1298 256 1253 c 128,-1,53
 280 1208 280 1208 280 1127 c 0,54,55
 280 1025 280 1025 235 968 c 128,-1,56
 190 911 190 911 118 911 c 0,18,19
EndSplineSet
EndChar

StartChar: uni2070.ss02
Encoding: 65566 -1 533
Width: 565
VWidth: 2430
GlyphClass: 1
Flags: HW
LayerCount: 2
Fore
SplineSet
282 719 m 0,0,1
 338 719 338 719 362.5 801.5 c 128,-1,2
 387 884 387 884 387 1062 c 0,3,4
 387 1405 387 1405 282 1405 c 0,5,6
 178 1405 178 1405 178 1062 c 0,7,8
 178 884 178 884 204.5 801.5 c 128,-1,9
 231 719 231 719 282 719 c 0,0,1
282 580 m 128,-1,11
 170 580 170 580 101 694.5 c 128,-1,12
 32 809 32 809 32 1062 c 0,13,14
 32 1312 32 1312 101.5 1429 c 128,-1,15
 171 1546 171 1546 282 1546 c 0,16,17
 394 1546 394 1546 463.5 1429 c 128,-1,18
 533 1312 533 1312 533 1062 c 0,19,20
 533 807 533 807 463.5 693.5 c 128,-1,10
 394 580 394 580 282 580 c 128,-1,11
EndSplineSet
EndChar

StartChar: uni2070.zero
Encoding: 65570 -1 537
Width: 565
VWidth: 2430
GlyphClass: 1
Flags: HW
LayerCount: 2
Fore
SplineSet
287 1025 m 0,0,1
 257 1025 257 1025 238 1044.5 c 128,-1,2
 219 1064 219 1064 219 1094 c 128,-1,3
 219 1124 219 1124 239 1144 c 128,-1,4
 259 1164 259 1164 287 1164 c 0,5,6
 314 1164 314 1164 334 1143 c 128,-1,7
 354 1122 354 1122 354 1094 c 0,8,9
 354 1067 354 1067 334 1046 c 128,-1,10
 314 1025 314 1025 287 1025 c 0,0,1
282 719 m 0,11,12
 338 719 338 719 362.5 801.5 c 128,-1,13
 387 884 387 884 387 1062 c 0,14,15
 387 1405 387 1405 282 1405 c 0,16,17
 178 1405 178 1405 178 1062 c 0,18,19
 178 884 178 884 204.5 801.5 c 128,-1,20
 231 719 231 719 282 719 c 0,11,12
282 580 m 128,-1,22
 170 580 170 580 101 694.5 c 128,-1,23
 32 809 32 809 32 1062 c 0,24,25
 32 1312 32 1312 101.5 1429 c 128,-1,26
 171 1546 171 1546 282 1546 c 0,27,28
 394 1546 394 1546 463.5 1429 c 128,-1,29
 533 1312 533 1312 533 1062 c 0,30,31
 533 807 533 807 463.5 693.5 c 128,-1,21
 394 580 394 580 282 580 c 128,-1,22
EndSplineSet
EndChar

StartChar: period
Encoding: 46 46 538
Width: 354
VWidth: 2596
GlyphClass: 1
Flags: HW
LayerCount: 2
Fore
SplineSet
178 136 m 0,0,1
 117 136 117 136 74.5 180 c 128,-1,2
 32 224 32 224 32 287 c 0,3,4
 32 348 32 348 74.5 391.5 c 128,-1,5
 117 435 117 435 178 435 c 0,6,7
 236 435 236 435 279 392 c 128,-1,8
 322 349 322 349 322 287 c 0,9,10
 322 224 322 224 279 180 c 128,-1,11
 236 136 236 136 178 136 c 0,0,1
EndSplineSet
EndChar

StartChar: comma
Encoding: 44 44 539
Width: 400
VWidth: 2596
GlyphClass: 1
Flags: HW
LayerCount: 2
Fore
SplineSet
158 -245 m 1,0,-1
 32 -147 l 1,1,2
 85 -84 85 -84 116.5 -20.5 c 128,-1,3
 148 43 148 43 148 88 c 0,4,5
 148 122 148 122 129 150 c 128,-1,6
 110 178 110 178 89.5 211 c 128,-1,7
 69 244 69 244 69 292 c 0,8,9
 69 362 69 362 112 402 c 128,-1,10
 155 442 155 442 212 442 c 0,11,12
 277 442 277 442 322.5 393 c 128,-1,13
 368 344 368 344 368 247 c 0,14,15
 367 15 367 15 158 -245 c 1,0,-1
EndSplineSet
EndChar

StartChar: colon
Encoding: 58 58 540
Width: 358
VWidth: 2705
GlyphClass: 1
Flags: HW
LayerCount: 2
Fore
SplineSet
178 245 m 0,0,1
 117 245 117 245 74.5 289 c 128,-1,2
 32 333 32 333 32 394 c 128,-1,3
 32 455 32 455 76 501 c 128,-1,4
 120 547 120 547 178 547 c 128,-1,5
 236 547 236 547 281 502.5 c 128,-1,6
 326 458 326 458 326 394 c 0,7,8
 326 336 326 336 283.5 290.5 c 128,-1,9
 241 245 241 245 178 245 c 0,0,1
178 1014 m 0,10,11
 120 1014 120 1014 76 1058.5 c 128,-1,12
 32 1103 32 1103 32 1163 c 0,13,14
 32 1224 32 1224 76 1268 c 128,-1,15
 120 1312 120 1312 178 1312 c 128,-1,16
 236 1312 236 1312 281 1268.5 c 128,-1,17
 326 1225 326 1225 326 1163 c 0,18,19
 326 1105 326 1105 282.5 1059.5 c 128,-1,20
 239 1014 239 1014 178 1014 c 0,10,11
EndSplineSet
EndChar

StartChar: semicolon
Encoding: 59 59 541
Width: 399
VWidth: 2705
GlyphClass: 1
Flags: HW
LayerCount: 2
Fore
SplineSet
155 -136 m 1,0,-1
 32 -38 l 1,1,2
 85 25 85 25 116.5 88.5 c 128,-1,3
 148 152 148 152 148 197 c 0,4,5
 148 231 148 231 127.5 259 c 128,-1,6
 107 287 107 287 87.5 320 c 128,-1,7
 68 353 68 353 68 401 c 0,8,9
 68 471 68 471 111.5 511 c 128,-1,10
 155 551 155 551 211 551 c 0,11,12
 276 551 276 551 321.5 502 c 128,-1,13
 367 453 367 453 367 356 c 0,14,15
 366 124 366 124 155 -136 c 1,0,-1
199 1014 m 0,16,17
 141 1014 141 1014 97 1058.5 c 128,-1,18
 53 1103 53 1103 53 1163 c 0,19,20
 53 1224 53 1224 97 1268 c 128,-1,21
 141 1312 141 1312 199 1312 c 128,-1,22
 257 1312 257 1312 302.5 1268.5 c 128,-1,23
 348 1225 348 1225 348 1163 c 0,24,25
 348 1105 348 1105 304 1059.5 c 128,-1,26
 260 1014 260 1014 199 1014 c 0,16,17
EndSplineSet
EndChar

StartChar: ellipsis
Encoding: 8230 8230 542
Width: 713
VWidth: 2430
GlyphClass: 1
Flags: HW
LayerCount: 2
Fore
SplineSet
98 -24 m 0,0,1
 54 -24 54 -24 22.5 13.5 c 128,-1,2
 -9 51 -9 51 -9 107 c 0,3,4
 -9 160 -9 160 22.5 198 c 128,-1,5
 54 236 54 236 98 236 c 0,6,7
 140 236 140 236 171 198 c 128,-1,8
 202 160 202 160 202 107 c 0,9,10
 202 51 202 51 171 13.5 c 128,-1,11
 140 -24 140 -24 98 -24 c 0,0,1
343 -24 m 0,12,13
 299 -24 299 -24 268 13.5 c 128,-1,14
 237 51 237 51 237 107 c 0,15,16
 237 160 237 160 268 198 c 128,-1,17
 299 236 299 236 343 236 c 0,18,19
 385 236 385 236 416.5 198 c 128,-1,20
 448 160 448 160 448 107 c 0,21,22
 448 51 448 51 416.5 13.5 c 128,-1,23
 385 -24 385 -24 343 -24 c 0,12,13
591 -24 m 128,-1,25
 547 -24 547 -24 517 13.5 c 128,-1,26
 487 51 487 51 487 107 c 0,27,28
 487 160 487 160 517 198 c 128,-1,29
 547 236 547 236 591 236 c 128,-1,30
 635 236 635 236 665 198 c 128,-1,31
 695 160 695 160 695 107 c 0,32,33
 695 51 695 51 665 13.5 c 128,-1,24
 635 -24 635 -24 591 -24 c 128,-1,25
EndSplineSet
EndChar

StartChar: exclam
Encoding: 33 33 543
Width: 361
VWidth: 2430
GlyphClass: 1
Flags: HW
LayerCount: 2
Fore
SplineSet
180 -27 m 128,-1,1
 119 -27 119 -27 75.5 17 c 128,-1,2
 32 61 32 61 32 121 c 0,3,4
 32 182 32 182 76 227 c 128,-1,5
 120 272 120 272 180 272 c 0,6,7
 241 272 241 272 285 226 c 128,-1,8
 329 180 329 180 329 121 c 0,9,10
 329 60 329 60 285 16.5 c 128,-1,0
 241 -27 241 -27 180 -27 c 128,-1,1
106 486 m 1,11,-1
 46 1444 l 2,12,13
 45.8961038961 1448.67532468 45.8961038961 1448.67532468 45.8961038961 1453.23191095 c 0,14,15
 45.8961038961 1536.38961039 45.8961038961 1536.38961039 80.5 1580 c 0,16,17
 117 1626 117 1626 176 1626 c 0,18,19
 232 1626 232 1626 271 1579.5 c 0,20,21
 307.214285714 1536.32142857 307.214285714 1536.32142857 307.214285714 1440.97704082 c 0,22,23
 307.214285714 1433.64285714 307.214285714 1433.64285714 307 1426 c 1,24,-1
 243 486 l 1,25,-1
 106 486 l 1,11,-1
EndSplineSet
EndChar

StartChar: question
Encoding: 63 63 545
Width: 725
VWidth: 2430
GlyphClass: 1
Flags: HW
LayerCount: 2
Fore
SplineSet
387 -30 m 0,0,1
 326 -30 326 -30 283.5 14 c 128,-1,2
 241 58 241 58 241 121 c 0,3,4
 241 182 241 182 283.5 225.5 c 128,-1,5
 326 269 326 269 387 269 c 0,6,7
 445 269 445 269 487.5 226 c 128,-1,8
 530 183 530 183 530 121 c 0,9,10
 530 58 530 58 487.5 14 c 128,-1,11
 445 -30 445 -30 387 -30 c 0,0,1
287 561 m 2,12,13
 287 665 287 665 309 736 c 128,-1,14
 331 807 331 807 361.5 860.5 c 128,-1,15
 392 914 392 914 423 962.5 c 128,-1,16
 454 1011 454 1011 476 1072.5 c 128,-1,17
 498 1134 498 1134 498 1227 c 0,18,19
 498 1317 498 1317 459.5 1369 c 128,-1,20
 421 1421 421 1421 357 1421 c 0,21,22
 276 1421 276 1421 219 1349 c 1,23,24
 200 1315 200 1315 195 1297.5 c 128,-1,25
 190 1280 190 1280 195 1261 c 1,26,-1
 185 1245 l 1,27,-1
 166 1257 l 1,28,-1
 32 1366 l 1,29,30
 88 1487 88 1487 174.5 1554 c 128,-1,31
 261 1621 261 1621 382 1621 c 0,32,33
 523 1621 523 1621 608 1516.5 c 128,-1,34
 693 1412 693 1412 693 1222 c 0,35,36
 693 1110 693 1110 671 1037.5 c 128,-1,37
 649 965 649 965 617.5 912.5 c 128,-1,38
 586 860 586 860 553.5 812.5 c 128,-1,39
 521 765 521 765 499 707 c 128,-1,40
 477 649 477 649 477 561 c 2,41,-1
 477 452 l 1,42,-1
 287 452 l 1,43,-1
 287 561 l 2,12,13
EndSplineSet
EndChar

StartChar: periodcentered
Encoding: 183 183 547
Width: 356
VWidth: 2430
GlyphClass: 1
Flags: HW
LayerCount: 2
Fore
SplineSet
178 663 m 128,-1,1
 117 663 117 663 74.5 707 c 128,-1,2
 32 751 32 751 32 812 c 128,-1,3
 32 873 32 873 74.5 916.5 c 128,-1,4
 117 960 117 960 178 960 c 0,5,6
 236 960 236 960 280 916 c 128,-1,7
 324 872 324 872 324 812 c 0,8,9
 324 751 324 751 281.5 707 c 128,-1,0
 239 663 239 663 178 663 c 128,-1,1
EndSplineSet
Substitution2: "Single Substitution lookup 11 subtable" periodcentered.loclCAT
Substitution2: "Single Substitution lookup 10 subtable" periodcentered.loclCAT
Substitution2: "'aalt' Access All Alternates in Latin lookup 0 subtable" periodcentered.loclCAT
EndChar

StartChar: bullet
Encoding: 8226 8226 548
Width: 483
VWidth: 2430
GlyphClass: 1
Flags: HW
LayerCount: 2
Fore
SplineSet
241 505 m 0,0,1
 153 505 153 505 92.5 568 c 128,-1,2
 32 631 32 631 32 717 c 0,3,4
 32 807 32 807 95.5 868.5 c 128,-1,5
 159 930 159 930 241 930 c 0,6,7
 326 930 326 930 388.5 867 c 128,-1,8
 451 804 451 804 451 717 c 0,9,10
 451 632 451 632 388.5 568.5 c 128,-1,11
 326 505 326 505 241 505 c 0,0,1
EndSplineSet
EndChar

StartChar: asterisk
Encoding: 42 42 549
Width: 768
VWidth: 2430
GlyphClass: 1
Flags: HW
LayerCount: 2
Fore
SplineSet
234 267 m 1,0,-1
 73 420 l 1,1,-1
 273 758 l 1,2,-1
 32 851 l 1,3,-1
 100 1089 l 1,4,-1
 312 930 l 1,5,-1
 278 1317 l 1,6,-1
 501 1317 l 1,7,-1
 460 930 l 1,8,-1
 671 1076 l 1,9,-1
 736 848 l 1,10,-1
 488 758 l 1,11,-1
 686 422 l 1,12,-1
 526 267 l 1,13,-1
 382 617 l 1,14,-1
 234 267 l 1,0,-1
EndSplineSet
Substitution2: "'ss01' Style Set 1 in Latin lookup 35 subtable" asterisk.ss01
Substitution2: "'salt' Stylistic Alternatives in Latin lookup 34 subtable" asterisk.ss01
Substitution2: "'aalt' Access All Alternates in Latin lookup 0 subtable" asterisk.ss01
EndChar

StartChar: uni2E12
Encoding: 11794 11794 550
Width: 291
VWidth: 2194
GlyphClass: 1
Flags: HW
LayerCount: 2
Fore
SplineSet
32 -246 m 1,0,-1
 32 -106 l 1,1,2
 79 -106 79 -106 105 -61.5 c 128,-1,3
 131 -17 131 -17 131 49 c 0,4,5
 131 113 131 113 106.5 160 c 128,-1,6
 82 207 82 207 32 207 c 1,7,-1
 32 343 l 1,8,9
 133 343 133 343 196 269.5 c 128,-1,10
 259 196 259 196 259 47 c 0,11,12
 259 -97 259 -97 196 -171.5 c 128,-1,13
 133 -246 133 -246 32 -246 c 1,0,-1
EndSplineSet
EndChar

StartChar: numbersign
Encoding: 35 35 551
Width: 751
VWidth: 2430
GlyphClass: 1
Flags: HW
LayerCount: 2
Fore
SplineSet
303 603 m 1,0,-1
 423 603 l 1,1,-1
 451 955 l 1,2,-1
 329 955 l 1,3,-1
 303 603 l 1,0,-1
380 21 m 1,4,-1
 414 433 l 1,5,-1
 293 433 l 1,6,-1
 260 34 l 1,7,-1
 112 32 l 1,8,-1
 142 427 l 1,9,-1
 23 427 l 1,10,-1
 29 598 l 1,11,-1
 154 598 l 1,12,-1
 181 953 l 1,13,-1
 44 953 l 1,14,-1
 48 1125 l 1,15,-1
 190 1125 l 1,16,-1
 221 1516 l 1,17,-1
 372 1521 l 1,18,-1
 340 1130 l 1,19,-1
 462 1130 l 1,20,-1
 492 1512 l 1,21,-1
 646 1514 l 1,22,-1
 617 1134 l 1,23,-1
 727 1134 l 1,24,-1
 714 960 l 1,25,-1
 608 960 l 1,26,-1
 577 610 l 1,27,-1
 702 610 l 1,28,-1
 692 440 l 1,29,-1
 569 440 l 1,30,-1
 536 34 l 1,31,-1
 380 21 l 1,4,-1
EndSplineSet
EndChar

StartChar: slash
Encoding: 47 47 552
Width: 763
VWidth: 2430
GlyphClass: 1
Flags: HW
LayerCount: 2
Fore
SplineSet
230 -102 m 1,0,-1
 32 -32 l 1,1,-1
 532 1618 l 1,2,-1
 731 1535 l 1,3,-1
 230 -102 l 1,0,-1
EndSplineSet
Substitution2: "'frac' Diagonal Fractions in Latin lookup 23 subtable" fraction
Substitution2: "'aalt' Access All Alternates in Latin lookup 0 subtable" fraction
EndChar

StartChar: backslash
Encoding: 92 92 553
Width: 765
VWidth: 2430
GlyphClass: 1
Flags: HW
LayerCount: 2
Fore
SplineSet
534 -104 m 1,0,-1
 32 1538 l 1,1,-1
 230 1616 l 1,2,-1
 733 -32 l 1,3,-1
 534 -104 l 1,0,-1
EndSplineSet
EndChar

StartChar: asterisk.ss01
Encoding: 65572 -1 555
Width: 768
VWidth: 2430
GlyphClass: 1
Flags: HW
LayerCount: 2
Fore
SplineSet
234 413 m 1,0,-1
 73 566 l 1,1,-1
 273 904 l 1,2,-1
 32 997 l 1,3,-1
 100 1234 l 1,4,-1
 312 1076 l 1,5,-1
 278 1463 l 1,6,-1
 501 1463 l 1,7,-1
 460 1076 l 1,8,-1
 671 1222 l 1,9,-1
 736 994 l 1,10,-1
 488 904 l 1,11,-1
 686 568 l 1,12,-1
 526 413 l 1,13,-1
 382 763 l 1,14,-1
 234 413 l 1,0,-1
EndSplineSet
EndChar

StartChar: parenleft
Encoding: 40 40 556
Width: 646
VWidth: 2435
GlyphClass: 1
Flags: HW
LayerCount: 2
Fore
SplineSet
527 -246 m 1,0,1
 374 -149 374 -149 262 11 c 128,-1,2
 150 171 150 171 91 371 c 128,-1,3
 32 571 32 571 32 787 c 128,-1,4
 32 1003 32 1003 90 1198 c 128,-1,5
 148 1393 148 1393 257.5 1547 c 128,-1,6
 367 1701 367 1701 518 1799 c 1,7,-1
 609 1608 l 1,8,9
 444 1482 444 1482 343.5 1269.5 c 128,-1,10
 243 1057 243 1057 243 782 c 0,11,12
 243 602 243 602 288 440 c 128,-1,13
 333 278 333 278 416.5 147 c 128,-1,14
 500 16 500 16 614 -70 c 1,15,-1
 527 -246 l 1,0,1
EndSplineSet
EndChar

StartChar: parenright
Encoding: 41 41 557
Width: 647
VWidth: 2435
GlyphClass: 1
Flags: HW
LayerCount: 2
Fore
SplineSet
120 -246 m 1
 273 -149 273 -149 384 11 c 0
 495 171 495 171 554 371 c 0
 613 571 613 571 615 787 c 0
 615 1003 615 1003 556 1198 c 0
 498 1393 498 1393 389 1547 c 0
 280 1701 280 1701 129 1799 c 1
 37 1608 l 1
 202 1482 202 1482 302 1269 c 0
 403 1057 403 1057 403 782 c 0
 403 602 403 602 358 440 c 0
 313 278 313 278 230 147 c 0
 146 16 146 16 32 -70 c 1
 120 -246 l 1
EndSplineSet
EndChar

StartChar: braceleft
Encoding: 123 123 558
Width: 715
VWidth: 2475
GlyphClass: 1
Flags: HW
LayerCount: 2
Fore
SplineSet
609 -176 m 2,0,1
 488 -176 488 -176 396.5 -139.5 c 128,-1,2
 305 -103 305 -103 254 -9.5 c 128,-1,3
 207.553571429 75.6517857143 207.553571429 75.6517857143 207.553571429 224.252710459 c 0,0,0
 207.553571429 238.821428571 207.553571429 238.821428571 208 254 c 2,4,-1
 212 490 l 2,5,6
 212 590 212 590 196 639.5 c 128,-1,7
 180 689 180 689 151 704.5 c 128,-1,8
 122 720 122 720 78 720 c 2,9,-1
 32 720 l 1,10,-1
 32 922 l 1,11,-1
 78 922 l 2,12,13
 146 922 146 922 181.5 968 c 128,-1,14
 217 1014 217 1014 217 1144 c 2,15,-1
 212 1332 l 1,16,17
 212 1543 212 1543 310.5 1650.5 c 128,-1,18
 409 1758 409 1758 565 1758 c 2,19,-1
 683 1758 l 1,20,-1
 683 1569 l 1,21,-1
 555 1569 l 2,22,23
 492 1569 492 1569 456.5 1516.5 c 128,-1,24
 421 1464 421 1464 421 1357 c 2,25,-1
 424 1175 l 2,26,27
 424 1046 424 1046 385 957 c 128,-1,28
 346 868 346 868 278 822 c 1,29,30
 343 780 343 780 382 689.5 c 128,-1,31
 421 599 421 599 421 453 c 2,32,-1
 416 256 l 1,33,34
 418 122 418 122 459 66.5 c 128,-1,35
 500 11 500 11 586 11 c 2,36,-1
 681 11 l 1,37,-1
 681 -176 l 1,38,-1
 609 -176 l 2,0,1
EndSplineSet
EndChar

StartChar: braceright
Encoding: 125 125 559
Width: 715
VWidth: 2475
GlyphClass: 1
Flags: HW
LayerCount: 2
Fore
SplineSet
107 -176 m 2
 228 -176 228 -176 320 -140 c 0
 411 -103 411 -103 462 -10 c 0
 508.446428571 75.6071428571 508.446428571 75.6071428571 508.446428571 224.24872449 c 0,0,0
 508.446428571 238.821428571 508.446428571 238.821428571 508 254 c 2
 503 490 l 2
 503 590 503 590 518 639 c 0
 533 689 533 689 564 705 c 0
 594 720 594 720 637 720 c 2
 683 720 l 1
 683 922 l 1
 637 922 l 2
 569 922 569 922 534 968 c 0
 498 1014 498 1014 498 1144 c 2
 503 1332 l 1
 503 1543 503 1543 405 1652 c 0
 307.907407407 1758.00925926 307.907407407 1758.00925926 153.883916324 1758.00925926 c 0,0,0
 152.444444444 1758.00925926 152.444444444 1758.00925926 151 1758 c 2
 32 1758 l 1
 32 1569 l 1
 160 1569 l 2
 223 1569 223 1569 259 1516 c 0
 294.027027027 1465.40540541 294.027027027 1465.40540541 294.027027027 1362.74360847 c 0,0,0
 294.027027027 1359.89189189 294.027027027 1359.89189189 294 1357 c 2
 292 1175 l 2
 292 1046 292 1046 331 957 c 0
 370 868 370 868 438 822 c 1
 373 780 373 780 333 690 c 0
 294 599 294 599 294 453 c 2
 299 256 l 1
 297 122 297 122 256 66 c 0
 216.701754386 10.9824561404 216.701754386 10.9824561404 132.038165589 10.9824561404 c 0,0,0
 130.526315789 10.9824561404 130.526315789 10.9824561404 129 11 c 2
 34 11 l 1
 34 -176 l 1
 107 -176 l 2
EndSplineSet
EndChar

StartChar: bracketleft
Encoding: 91 91 560
Width: 605
VWidth: 2505
GlyphClass: 1
Flags: HW
LayerCount: 2
Fore
SplineSet
32 -141 m 1,0,-1
 32 1703 l 1,1,-1
 571 1703 l 1,2,-1
 571 1496 l 1,3,-1
 238 1496 l 1,4,-1
 238 58 l 1,5,-1
 573 58 l 1,6,-1
 573 -141 l 1,7,-1
 32 -141 l 1,0,-1
EndSplineSet
EndChar

StartChar: bracketright
Encoding: 93 93 561
Width: 606
VWidth: 2505
GlyphClass: 1
Flags: HW
LayerCount: 2
Fore
SplineSet
574 -141 m 1
 574 1703 l 1
 36 1703 l 1
 36 1496 l 1
 368 1496 l 1
 368 58 l 1
 32 58 l 1
 32 -141 l 1
 574 -141 l 1
EndSplineSet
EndChar

StartChar: hyphen
Encoding: 45 45 562
Width: 564
VWidth: 2430
GlyphClass: 1
Flags: HW
LayerCount: 2
Fore
SplineSet
32 670 m 1,0,-1
 32 877 l 1,1,-1
 532 877 l 1,2,-1
 532 670 l 1,3,-1
 32 670 l 1,0,-1
EndSplineSet
EndChar

StartChar: endash
Encoding: 8211 8211 564
Width: 701
VWidth: 2430
GlyphClass: 1
Flags: HW
LayerCount: 2
Fore
SplineSet
32 670 m 1,0,-1
 32 877 l 1,1,-1
 669 877 l 1,2,-1
 669 670 l 1,3,-1
 32 670 l 1,0,-1
EndSplineSet
EndChar

StartChar: emdash
Encoding: 8212 8212 565
Width: 713
VWidth: 2430
GlyphClass: 1
Flags: HW
LayerCount: 2
Fore
SplineSet
-4 670 m 1,0,-1
 -4 877 l 1,1,-1
 700 877 l 1,2,-1
 700 670 l 1,3,-1
 -4 670 l 1,0,-1
EndSplineSet
EndChar

StartChar: underscore
Encoding: 95 95 569
Width: 768
VWidth: 2430
GlyphClass: 1
Flags: HW
LayerCount: 2
Fore
SplineSet
32 -241 m 1,0,-1
 32 -39 l 1,1,-1
 736 -39 l 1,2,-1
 736 -241 l 1,3,-1
 32 -241 l 1,0,-1
EndSplineSet
EndChar

StartChar: quotedblleft
Encoding: 8220 8220 572
Width: 749
VWidth: 2430
GlyphClass: 1
Flags: HW
LayerCount: 2
Fore
SplineSet
241 1560 m 1,0,-1
 355 1463 l 1,1,2
 304 1400 304 1400 270 1335.5 c 128,-1,3
 236 1271 236 1271 236 1210 c 0,4,5
 236 1173 236 1173 257 1149 c 128,-1,6
 278 1125 278 1125 297 1097 c 128,-1,7
 316 1069 316 1069 316 1023 c 0,8,9
 316 958 316 958 277 915 c 128,-1,10
 238 872 238 872 180 872 c 0,11,12
 124 872 124 872 78 920.5 c 128,-1,13
 32 969 32 969 32 1055 c 0,14,15
 32 1167 32 1167 83 1289.5 c 128,-1,16
 134 1412 134 1412 241 1560 c 1,0,-1
603 1560 m 1,17,-1
 717 1463 l 1,18,19
 666 1400 666 1400 632 1335.5 c 128,-1,20
 598 1271 598 1271 598 1210 c 0,21,22
 598 1173 598 1173 619 1149 c 128,-1,23
 640 1125 640 1125 658.5 1097 c 128,-1,24
 677 1069 677 1069 677 1023 c 0,25,26
 677 958 677 958 638.5 915 c 128,-1,27
 600 872 600 872 542 872 c 0,28,29
 486 872 486 872 440 920.5 c 128,-1,30
 394 969 394 969 394 1055 c 0,31,32
 394 1167 394 1167 445 1289.5 c 128,-1,33
 496 1412 496 1412 603 1560 c 1,17,-1
EndSplineSet
EndChar

StartChar: quoteleft
Encoding: 8216 8216 574
Width: 400
VWidth: 2430
GlyphClass: 1
Flags: HW
LayerCount: 2
Fore
SplineSet
248 1560 m 1,0,-1
 368 1463 l 1,1,2
 315 1400 315 1400 279 1335.5 c 128,-1,3
 243 1271 243 1271 243 1210 c 0,4,5
 243 1173 243 1173 264 1149 c 128,-1,6
 285 1125 285 1125 305.5 1097 c 128,-1,7
 326 1069 326 1069 326 1023 c 0,8,9
 326 958 326 958 286 915 c 128,-1,10
 246 872 246 872 185 872 c 0,11,12
 127 872 127 872 79.5 920.5 c 128,-1,13
 32 969 32 969 32 1055 c 0,14,15
 32 1167 32 1167 84 1289.5 c 128,-1,16
 136 1412 136 1412 248 1560 c 1,0,-1
EndSplineSet
EndChar

StartChar: quoteright
Encoding: 8217 8217 575
Width: 400
VWidth: 2430
GlyphClass: 1
Flags: HW
LayerCount: 2
Fore
SplineSet
152 872 m 1,0,-1
 32 969 l 1,1,2
 85 1032 85 1032 119.5 1097 c 128,-1,3
 154 1162 154 1162 154 1220 c 0,4,5
 154 1259 154 1259 133.5 1283.5 c 128,-1,6
 113 1308 113 1308 93.5 1335.5 c 128,-1,7
 74 1363 74 1363 74 1410 c 0,8,9
 74 1475 74 1475 114 1517.5 c 128,-1,10
 154 1560 154 1560 212 1560 c 128,-1,11
 270 1560 270 1560 319 1511.5 c 128,-1,12
 368 1463 368 1463 368 1378 c 0,13,14
 368 1266 368 1266 316 1143 c 128,-1,15
 264 1020 264 1020 152 872 c 1,0,-1
EndSplineSet
EndChar

StartChar: guillemotleft
Encoding: 171 171 576
Width: 764
VWidth: 2430
GlyphClass: 1
Flags: HW
LayerCount: 2
Fore
SplineSet
617 114 m 1,0,-1
 336 552 l 1,1,-1
 336 631 l 1,2,-1
 610 1016 l 1,3,-1
 719 877 l 1,4,-1
 508 589 l 1,5,-1
 732 243 l 1,6,-1
 617 114 l 1,0,-1
316 114 m 1,7,-1
 32 552 l 1,8,-1
 32 631 l 1,9,-1
 311 1016 l 1,10,-1
 411 884 l 1,11,-1
 209 589 l 1,12,-1
 425 241 l 1,13,-1
 316 114 l 1,7,-1
EndSplineSet
EndChar

StartChar: guilsinglleft
Encoding: 8249 8249 578
Width: 477
VWidth: 2430
GlyphClass: 1
Flags: HW
LayerCount: 2
Fore
SplineSet
314 104 m 1,0,-1
 32 542 l 1,1,-1
 32 624 l 1,2,-1
 310 1011 l 1,3,-1
 438 856 l 1,4,-1
 241 580 l 1,5,-1
 445 260 l 1,6,-1
 314 104 l 1,0,-1
EndSplineSet
EndChar

StartChar: guilsinglright
Encoding: 8250 8250 579
Width: 477
VWidth: 2430
GlyphClass: 1
Flags: HW
LayerCount: 2
Fore
SplineSet
160 104 m 1,0,-1
 32 260 l 1,1,-1
 236 580 l 1,2,-1
 39 856 l 1,3,-1
 166 1011 l 1,4,-1
 445 624 l 1,5,-1
 445 542 l 1,6,-1
 160 104 l 1,0,-1
EndSplineSet
EndChar

StartChar: quotedbl
Encoding: 34 34 580
Width: 559
VWidth: 2430
GlyphClass: 1
Flags: HW
LayerCount: 2
Fore
SplineSet
32 1616 m 1
 230 1616 l 1
 230 1470 230 1470 228 1382 c 0
 226 1294 226 1294 219 1235 c 0
 213 1176 213 1176 208 1121 c 0
 202 1066 202 1066 192 990 c 1
 70 990 l 1
 61 1068 61 1068 55 1121 c 0
 49 1176 49 1176 43 1234 c 0
 37 1292 37 1292 34 1381 c 0
 32 1470 32 1470 32 1616 c 1
327 1616 m 1
 527 1616 l 1
 527 1470 527 1470 524 1382 c 0
 522 1294 522 1294 516 1235 c 0
 510 1176 510 1176 504 1121 c 0
 498 1066 498 1066 489 990 c 1
 367 990 l 1
 358 1068 358 1068 351 1121 c 0
 345 1176 345 1176 339 1234 c 0
 333 1292 333 1292 330 1381 c 0
 327 1470 327 1470 327 1616 c 1
EndSplineSet
Substitution2: "'ss03' Style Set 3 in Latin lookup 37 subtable" quotedbl.ss03
Substitution2: "'aalt' Access All Alternates in Latin lookup 0 subtable" quotedbl.ss03
EndChar

StartChar: quotesingle
Encoding: 39 39 581
Width: 263
VWidth: 2430
GlyphClass: 1
Flags: HW
LayerCount: 2
Fore
SplineSet
32 1616 m 1,0,-1
 231 1616 l 1,1,2
 231 1470 231 1470 229 1383 c 128,-1,3
 227 1296 227 1296 221 1236 c 128,-1,4
 215 1176 215 1176 209 1121.5 c 128,-1,5
 203 1067 203 1067 193 990 c 1,6,-1
 71 990 l 1,7,8
 62 1068 62 1068 56 1122 c 128,-1,9
 50 1176 50 1176 44 1234.5 c 128,-1,10
 38 1293 38 1293 35 1381.5 c 128,-1,11
 32 1470 32 1470 32 1616 c 1,0,-1
EndSplineSet
Substitution2: "'ss03' Style Set 3 in Latin lookup 37 subtable" quotesingle.ss03
Substitution2: "'aalt' Access All Alternates in Latin lookup 0 subtable" quotesingle.ss03
EndChar

StartChar: quotesingle.ss03
Encoding: 65574 -1 583
Width: 319
VWidth: 2430
GlyphClass: 1
Flags: HW
LayerCount: 2
Fore
SplineSet
185 977 m 1,0,-1
 32 1006 l 1,1,2
 59 1120 59 1120 66.5 1198 c 0,3,4
 72.75 1263 72.75 1263 72.75 1319.31944444 c 0,5,6
 72.75 1330.58333333 72.75 1330.58333333 72.5 1341.5 c 0,7,8
 71 1407 71 1407 71 1484 c 0,9,10
 71 1630 71 1630 178 1630 c 0,11,12
 227 1630 227 1630 257 1588 c 128,-1,13
 287 1546 287 1546 287 1468 c 0,14,15
 287 1383 287 1383 262.5 1276 c 128,-1,16
 238 1169 238 1169 185 977 c 1,0,-1
EndSplineSet
EndChar

StartChar: hyphen_greater.dlig
Encoding: 65575 -1 584
Width: 798
VWidth: 2430
GlyphClass: 1
Flags: HW
LayerCount: 2
Fore
SplineSet
31 675 m 1,0,-1
 31 879 l 1,1,-1
 471 879 l 1,2,-1
 471 675 l 1,3,-1
 31 675 l 1,0,-1
330 95 m 1,4,-1
 330 348 l 1,5,-1
 628 777 l 1,6,-1
 332 1164 l 1,7,-1
 332 1412 l 1,8,-1
 735 851 l 1,9,-1
 735 710 l 1,10,-1
 330 95 l 1,4,-1
EndSplineSet
Ligature2: "'dlig' Discretionary Ligatures in Latin lookup 32 subtable" hyphen greater
EndChar

StartChar: exclam_equal_equal.dlig
Encoding: 65576 -1 585
Width: 737
VWidth: 2400
GlyphClass: 1
Flags: HW
LayerCount: 2
Fore
SplineSet
12 33 m 1,0,-1
 12 227 l 1,1,-1
 300 227 l 1,2,-1
 324 479 l 1,3,-1
 97 479 l 1,4,-1
 97 682 l 1,5,-1
 344 682 l 1,6,-1
 369 935 l 1,7,-1
 12 935 l 1,8,-1
 12 1131 l 1,9,-1
 388 1131 l 1,10,-1
 417 1429 l 1,11,-1
 468 1367 l 1,12,-1
 445 1131 l 1,13,-1
 716 1131 l 1,14,-1
 716 935 l 1,15,-1
 425 935 l 1,16,-1
 401 682 l 1,17,-1
 631 682 l 1,18,-1
 631 479 l 1,19,-1
 381 479 l 1,20,-1
 357 227 l 1,21,-1
 716 227 l 1,22,-1
 716 33 l 1,23,-1
 337 33 l 1,24,-1
 310 -246 l 1,25,-1
 259 -189 l 1,26,-1
 281 33 l 1,27,-1
 12 33 l 1,0,-1
EndSplineSet
Ligature2: "'dlig' Discretionary Ligatures in Latin lookup 32 subtable" exclam equal equal
EndChar

StartChar: uni20B5
Encoding: 8373 8373 594
Width: 785
VWidth: 2430
GlyphClass: 2
Flags: HW
AnchorPoint: "Anchor-2" 419 0 basechar 0
AnchorPoint: "Anchor-0" 410 1514 basechar 0
LayerCount: 2
Fore
SplineSet
230 758 m 0,0,1
 230 527 230 527 268.5 392 c 128,-1,2
 307 257 307 257 367 211 c 1,3,-1
 367 1293 l 1,4,5
 309 1247 309 1247 269.5 1119.5 c 128,-1,6
 230 992 230 992 230 758 c 0,0,1
367 -172 m 1,7,-1
 367 -19 l 1,8,9
 275 -2 275 -2 199.5 79 c 128,-1,10
 124 160 124 160 79 323 c 128,-1,11
 34 486 34 486 32 749 c 0,12,13
 32 1025 32 1025 81.5 1187 c 128,-1,14
 131 1349 131 1349 208.5 1425.5 c 128,-1,15
 286 1502 286 1502 367 1521 c 1,16,-1
 367 1640 l 1,17,-1
 515 1640 l 1,18,-1
 515 1521 l 1,19,20
 594 1502 594 1502 649 1444.5 c 128,-1,21
 704 1387 704 1387 736 1303 c 1,22,-1
 639 1140 l 1,23,-1
 628 1120 l 1,24,-1
 614 1132 l 1,25,26
 610 1149 610 1149 610 1173.5 c 128,-1,27
 610 1198 610 1198 592 1234 c 1,28,29
 558 1285 558 1285 515 1308 c 1,30,-1
 515 199 l 1,31,32
 578 233 578 233 626 338 c 1,33,-1
 721 170 l 1,34,35
 640 17 640 17 515 -14 c 1,36,-1
 515 -172 l 1,37,-1
 367 -172 l 1,7,-1
EndSplineSet
EndChar

StartChar: cent
Encoding: 162 162 595
Width: 768
VWidth: 2430
GlyphClass: 2
Flags: HW
AnchorPoint: "Anchor-2" 425 104 basechar 0
AnchorPoint: "Anchor-0" 425 1236 basechar 0
LayerCount: 2
Fore
SplineSet
240 666 m 0,0,1
 240 543 240 543 263 461 c 128,-1,2
 286 379 286 379 323 336 c 1,3,-1
 388 1043 l 1,4,5
 329 1019 329 1019 284.5 932.5 c 128,-1,6
 240 846 240 846 240 666 c 0,0,1
443 -178 m 1,7,-1
 278 -178 l 1,8,-1
 302 100 l 1,9,10
 175 149 175 149 103.5 291 c 128,-1,11
 32 433 32 433 32 666 c 0,12,13
 32 958 32 958 141 1105 c 128,-1,14
 250 1252 250 1252 407 1261 c 1,15,-1
 431 1514 l 1,16,-1
 591 1514 l 1,17,-1
 566 1236 l 1,18,19
 675 1194 675 1194 736 1081 c 1,20,-1
 643 918 l 1,21,-1
 634 899 l 1,22,-1
 616 907 l 1,23,24
 611 926 611 926 609 947.5 c 128,-1,25
 607 969 607 969 584 999 c 0,26,27
 568 1016 568 1016 547 1028 c 1,28,-1
 483 280 l 1,29,30
 569 294 569 294 631 392 c 1,31,-1
 721 216 l 1,32,33
 673 153 673 153 605.5 118 c 128,-1,34
 538 83 538 83 464 78 c 1,35,-1
 443 -178 l 1,7,-1
EndSplineSet
EndChar

StartChar: colonmonetary
Encoding: 8353 8353 596
Width: 785
VWidth: 2430
GlyphClass: 2
Flags: HW
AnchorPoint: "Anchor-2" 419 0 basechar 0
AnchorPoint: "Anchor-0" 410 1514 basechar 0
LayerCount: 2
Fore
SplineSet
230 758 m 0,0,1
 230 661 230 661 237 582 c 128,-1,2
 244 503 244 503 257 440 c 1,3,-1
 392 1308 l 1,4,5
 325 1274 325 1274 277.5 1143.5 c 128,-1,6
 230 1013 230 1013 230 758 c 0,0,1
309 287 m 1,7,8
 327 253 327 253 349 229 c 1,9,-1
 515 1305 l 1,10,11
 495 1317 495 1317 468 1319 c 1,12,-1
 309 287 l 1,7,8
163 -172 m 1,13,-1
 201 75 l 1,14,15
 124 158 124 158 79 321 c 128,-1,16
 34 484 34 484 32 749 c 0,17,18
 32 983 32 983 68 1133 c 128,-1,19
 104 1283 104 1283 162.5 1369.5 c 128,-1,20
 221 1456 221 1456 290.5 1491 c 128,-1,21
 360 1526 360 1526 425 1528 c 1,22,-1
 444 1640 l 1,23,-1
 517 1640 l 1,24,-1
 500 1524 l 1,25,26
 525 1519 525 1519 549 1512 c 1,27,-1
 570 1640 l 1,28,-1
 644 1640 l 1,29,-1
 620 1473 l 1,30,31
 697 1415 697 1415 736 1303 c 1,32,-1
 639 1140 l 1,33,-1
 628 1120 l 1,34,-1
 614 1132 l 1,35,36
 610 1149 610 1149 610 1173.5 c 128,-1,37
 610 1198 610 1198 592 1234 c 0,38,39
 588 1241 588 1241 583 1247 c 1,40,-1
 416 185 l 1,41,42
 429 183 429 183 446 183 c 0,43,44
 502 183 502 183 547 224 c 128,-1,45
 592 265 592 265 626 338 c 1,46,-1
 721 170 l 1,47,48
 667 68 667 68 597 22 c 128,-1,49
 527 -24 527 -24 425 -24 c 0,50,51
 405 -24 405 -24 386 -21 c 1,52,-1
 363 -172 l 1,53,-1
 286 -172 l 1,54,-1
 313 -5 l 1,55,56
 288 4 288 4 266 19 c 1,57,-1
 236 -172 l 1,58,-1
 163 -172 l 1,13,-1
EndSplineSet
EndChar

StartChar: currency
Encoding: 164 164 597
Width: 746
VWidth: 2430
GlyphClass: 1
Flags: HW
LayerCount: 2
Fore
SplineSet
371 644 m 128,-1,1
 432 644 432 644 463 700 c 128,-1,2
 494 756 494 756 494 839 c 128,-1,3
 494 922 494 922 463.5 978.5 c 128,-1,4
 433 1035 433 1035 371 1035 c 0,5,6
 310 1035 310 1035 280 978 c 128,-1,7
 250 921 250 921 250 839 c 0,8,9
 250 756 250 756 280 700 c 128,-1,0
 310 644 310 644 371 644 c 128,-1,1
155 367 m 1,10,-1
 32 489 l 1,11,-1
 121 649 l 1,12,13
 80.9090909091 737.772727273 80.9090909091 737.772727273 80.9090909091 832.012396694 c 0,0,0
 80.9090909091 836.5 80.9090909091 836.5 81 841 c 0,14,15
 81 892 81 892 90.5 941 c 128,-1,16
 100 990 100 990 121 1035 c 1,17,-1
 32 1191 l 1,18,-1
 155 1315 l 1,19,-1
 236 1183 l 1,20,21
 304 1232 304 1232 374 1232 c 0,22,23
 442 1232 442 1232 508 1185 c 1,24,-1
 588 1315 l 1,25,-1
 714 1194 l 1,26,-1
 622 1041 l 1,27,28
 646 992 646 992 657 942 c 128,-1,29
 668 892 668 892 668 841 c 0,30,31
 668 737 668 737 624 644 c 1,32,-1
 714 489 l 1,33,-1
 588 367 l 1,34,-1
 510 496 l 1,35,36
 478 472 478 472 443 459.5 c 128,-1,37
 408 447 408 447 374 447 c 0,38,39
 296 447 296 447 234 498 c 1,40,-1
 155 367 l 1,10,-1
EndSplineSet
EndChar

StartChar: dollar
Encoding: 36 36 598
Width: 768
VWidth: 2430
GlyphClass: 1
Flags: HW
LayerCount: 2
Fore
SplineSet
464 216 m 1,0,1
 511 235 511 235 540 293.5 c 128,-1,2
 569 352 569 352 569 430 c 0,3,4
 569 511 569 511 540 559.5 c 128,-1,5
 511 608 511 608 464 629 c 1,6,-1
 464 216 l 1,0,1
317 909 m 1,7,-1
 317 1254 l 1,8,9
 277 1245 277 1245 248.5 1205.5 c 128,-1,10
 220 1166 220 1166 220 1099 c 0,11,12
 220 970 220 970 317 909 c 1,7,-1
319 -112 m 1,13,-1
 319 30 l 1,14,15
 236 39 236 39 160 79 c 128,-1,16
 84 119 84 119 32 192 c 1,17,-1
 129 379 l 1,18,19
 138 372 138 372 140.5 354 c 128,-1,20
 143 336 143 336 152 323 c 0,21,22
 175 284 175 284 218 254.5 c 128,-1,23
 261 225 261 225 317 211 c 1,24,-1
 317 691 l 1,25,26
 187 759 187 759 117.5 844.5 c 128,-1,27
 48 930 48 930 48 1083 c 0,28,29
 48 1250 48 1250 127 1332 c 128,-1,30
 206 1414 206 1414 319 1436 c 1,31,-1
 319 1582 l 1,32,-1
 466 1582 l 2,33,34
 471 1580 471 1580 472 1570 c 0,35,36
 472 1565 472 1565 466.5 1551.5 c 128,-1,37
 461 1538 461 1538 461 1519 c 2,38,-1
 461 1438 l 1,39,40
 534 1426 534 1426 593.5 1391 c 128,-1,41
 653 1356 653 1356 696 1287 c 1,42,-1
 608 1127 l 1,43,44
 594 1129 594 1129 591.5 1147.5 c 128,-1,45
 589 1166 589 1166 583 1178 c 0,46,47
 565 1212 565 1212 532 1232 c 128,-1,48
 499 1252 499 1252 464 1257 c 1,49,-1
 464 837 l 1,50,51
 559 791 559 791 619 741 c 128,-1,52
 679 691 679 691 707.5 620 c 128,-1,53
 736 549 736 549 736 440 c 0,54,55
 736 275 736 275 661.5 166.5 c 128,-1,56
 587 58 587 58 461 34 c 1,57,-1
 461 -112 l 1,58,-1
 319 -112 l 1,13,-1
EndSplineSet
EndChar

StartChar: dong
Encoding: 8363 8363 599
Width: 727
VWidth: 2430
GlyphClass: 2
Flags: HW
AnchorPoint: "Anchor-4" 479 1331 basechar 0
AnchorPoint: "Anchor-2" 329 265 basechar 0
AnchorPoint: "Anchor-1" 630 1152 basechar 0
AnchorPoint: "Anchor-0" 329 1152 basechar 0
LayerCount: 2
Fore
SplineSet
49 153 m 1,0,-1
 656 153 l 1,1,-1
 656 0 l 1,2,-1
 49 0 l 1,3,-1
 49 153 l 1,0,-1
317 403 m 0,4,5
 435.008333333 403 435.008333333 403 435.008333333 708.838263889 c 0,6,7
 435.008333333 711.408333333 435.008333333 711.408333333 435 714 c 0,8,9
 435 879 435 879 406 955.5 c 128,-1,10
 377 1032 377 1032 319 1032 c 128,-1,11
 261 1032 261 1032 229 964.5 c 128,-1,12
 197 897 197 897 197 731 c 0,13,14
 197 548 197 548 231.5 475.5 c 128,-1,15
 266 403 266 403 317 403 c 0,4,5
280 246 m 0,16,17
 212 246 212 246 156 286.5 c 128,-1,18
 100 327 100 327 66 431 c 128,-1,19
 32 535 32 535 32 714 c 0,20,21
 32 892 32 892 63.5 995.5 c 128,-1,22
 95 1099 95 1099 152.5 1142 c 128,-1,23
 210 1185 210 1185 282 1185 c 0,24,25
 401 1185 401 1185 438 1064 c 1,26,-1
 438 1247 l 1,27,-1
 227 1247 l 1,28,-1
 227 1419 l 1,29,-1
 438 1419 l 1,30,-1
 438 1556 l 1,31,-1
 623 1556 l 1,32,-1
 623 1538 l 1,33,34
 606 1521 606 1521 605 1468 c 2,35,-1
 605 1419 l 1,36,-1
 695 1419 l 1,37,-1
 695 1247 l 1,38,-1
 605 1247 l 1,39,-1
 605 396 l 2,40,41
 605 362 605 362 606 329.5 c 128,-1,42
 607 297 607 297 618 265 c 1,43,-1
 454 265 l 1,44,45
 437.944444444 306.555555556 437.944444444 306.555555556 437.944444444 360.598765432 c 0,46,47
 437.944444444 363.777777778 437.944444444 363.777777778 438 367 c 1,48,49
 411 309 411 309 368.5 277.5 c 128,-1,50
 326 246 326 246 280 246 c 0,16,17
EndSplineSet
EndChar

StartChar: Euro
Encoding: 8364 8364 600
Width: 769
VWidth: 2430
GlyphClass: 1
Flags: HW
LayerCount: 2
Fore
SplineSet
490 -32 m 0,0,1
 353 -32 353 -32 247.5 91 c 128,-1,2
 142 214 142 214 116 491 c 1,3,-1
 32 491 l 1,4,-1
 60 693 l 1,5,-1
 104 693 l 1,6,7
 102.666666667 713 102.666666667 713 102.666666667 736.777777778 c 0,0,0
 102.666666667 748.666666667 102.666666667 748.666666667 103 761.5 c 128,-1,8
 104 800 104 800 106 831 c 1,9,-1
 32 831 l 1,10,-1
 62 1032 l 1,11,-1
 127 1032 l 1,12,13
 152 1217 152 1217 211 1325 c 128,-1,14
 270 1433 270 1433 347.5 1480.5 c 128,-1,15
 425 1528 425 1528 503 1528 c 0,16,17
 657 1528 657 1528 736 1414 c 1,18,-1
 685 1217 l 1,19,20
 664 1226 664 1226 648.5 1253 c 128,-1,21
 633 1280 633 1280 603.5 1303.5 c 128,-1,22
 574 1327 574 1327 507 1327 c 0,23,24
 439 1327 439 1327 387 1256 c 128,-1,25
 335 1185 335 1185 316 1032 c 1,26,-1
 648 1032 l 1,27,-1
 597 831 l 1,28,-1
 295 831 l 1,29,30
 293 799 293 799 293 765 c 128,-1,31
 293 731 293 731 293 693 c 1,32,-1
 566 693 l 1,33,-1
 516 491 l 1,34,-1
 307 491 l 1,35,36
 320 343 320 343 370.5 261.5 c 128,-1,37
 421 180 421 180 507 180 c 0,38,39
 553 180 553 180 593 199 c 128,-1,40
 633 218 633 218 663 265 c 1,41,-1
 730 81 l 1,42,43
 679 20 679 20 618.5 -6 c 128,-1,44
 558 -32 558 -32 490 -32 c 0,0,1
EndSplineSet
EndChar

StartChar: florin
Encoding: 402 402 601
Width: 721
VWidth: 2360
GlyphClass: 1
Flags: HW
LayerCount: 2
Fore
SplineSet
145 -246 m 0,0,1
 105 -246 105 -246 67 -229.5 c 128,-1,2
 29 -213 29 -213 -1 -176 c 1,3,-1
 67 22 l 1,4,5
 75 20 75 20 78 5.5 c 128,-1,6
 81 -9 81 -9 92 -23.5 c 128,-1,7
 103 -38 103 -38 134 -38 c 0,8,9
 168 -38 168 -38 184 22 c 128,-1,10
 200 82 200 82 206 206 c 2,11,-1
 238 837 l 1,12,-1
 92 837 l 1,13,-1
 92 1021 l 1,14,-1
 244 1021 l 1,15,-1
 254 1201 l 2,16,17
 262 1368 262 1368 296 1463.5 c 128,-1,18
 330 1559 330 1559 387 1599.5 c 128,-1,19
 444 1640 444 1640 520 1640 c 0,20,21
 629 1640 629 1640 703 1536 c 1,22,-1
 644 1328 l 1,23,24
 634 1328 634 1328 628 1356 c 0,25,26
 609 1445 609 1445 537 1445 c 0,27,28
 497 1445 497 1445 473 1386.5 c 128,-1,29
 449 1328 449 1328 442 1176 c 2,30,-1
 433 1021 l 1,31,-1
 578 1021 l 1,32,-1
 578 837 l 1,33,-1
 423 837 l 1,34,-1
 389 199 l 2,35,36
 381 30 381 30 347 -67.5 c 128,-1,37
 313 -165 313 -165 260.5 -205.5 c 128,-1,38
 208 -246 208 -246 145 -246 c 0,0,1
EndSplineSet
EndChar

StartChar: uni20B2
Encoding: 8370 8370 603
Width: 768
VWidth: 2430
GlyphClass: 1
Flags: HW
LayerCount: 2
Fore
SplineSet
218 775 m 0,0,1
 218 557 218 557 250.5 414.5 c 128,-1,2
 283 272 283 272 336 211 c 1,3,-1
 336 1303 l 1,4,5
 285 1257 285 1257 251.5 1135 c 128,-1,6
 218 1013 218 1013 218 775 c 0,0,1
336 -172 m 1,7,-1
 336 -19 l 1,8,9
 190 27 190 27 111 222.5 c 128,-1,10
 32 418 32 418 32 746 c 0,11,12
 34 1020 34 1020 79 1183.5 c 128,-1,13
 124 1347 124 1347 192.5 1426 c 128,-1,14
 261 1505 261 1505 336 1526 c 1,15,-1
 336 1640 l 1,16,-1
 462 1640 l 1,17,-1
 462 1538 l 1,18,19
 565 1529 565 1529 630 1468 c 128,-1,20
 695 1407 695 1407 729 1319 c 1,21,-1
 646 1143 l 1,22,23
 633 1152 633 1152 618.5 1193 c 128,-1,24
 604 1234 604 1234 570.5 1276.5 c 128,-1,25
 537 1319 537 1319 462 1331 c 1,26,-1
 462 167 l 1,27,28
 520 179 520 179 570 243 c 1,29,-1
 570 554 l 1,30,-1
 509 554 l 1,31,-1
 509 761 l 1,32,-1
 736 761 l 1,33,-1
 736 132 l 1,34,35
 674 60 674 60 603.5 19.5 c 128,-1,36
 533 -21 533 -21 462 -30 c 1,37,-1
 462 -172 l 1,38,-1
 336 -172 l 1,7,-1
EndSplineSet
EndChar

StartChar: uni20AD
Encoding: 8365 8365 604
Width: 666
VWidth: 2430
GlyphClass: 1
Flags: HW
LayerCount: 2
Fore
SplineSet
256 656 m 1,0,-1
 210 559 l 1,1,-1
 212 0 l 1,2,-1
 35 0 l 1,3,-1
 35 772 l 1,4,-1
 -32 772 l 1,5,-1
 -32 941 l 1,6,-1
 35 941 l 1,7,-1
 35 1514 l 1,8,-1
 230 1514 l 1,9,-1
 230 1495 l 1,10,11
 218 1481 218 1481 215 1463.5 c 128,-1,12
 212 1446 212 1446 212 1405 c 2,13,-1
 212 918 l 1,14,-1
 466 1526 l 1,15,16
 493 1521 493 1521 533.5 1517.5 c 128,-1,17
 574 1514 574 1514 595 1514 c 2,18,-1
 651 1514 l 1,19,-1
 412 941 l 1,20,-1
 624 941 l 1,21,-1
 624 772 l 1,22,-1
 401 772 l 1,23,-1
 672 0 l 1,24,-1
 478 -9 l 1,25,-1
 256 656 l 1,0,-1
EndSplineSet
EndChar

StartChar: uni20BA
Encoding: 8378 8378 606
Width: 768
VWidth: 2430
GlyphClass: 1
Flags: HW
LayerCount: 2
Fore
SplineSet
145 0 m 1,0,-1
 145 666 l 1,1,-1
 32 603 l 1,2,-1
 32 758 l 1,3,-1
 145 821 l 1,4,-1
 145 950 l 1,5,-1
 32 888 l 1,6,-1
 32 1043 l 1,7,-1
 145 1106 l 1,8,-1
 145 1514 l 1,9,-1
 351 1514 l 1,10,11
 351 1490 351 1490 345 1481.5 c 128,-1,12
 339 1473 339 1473 337 1431 c 2,13,-1
 337 1210 l 1,14,-1
 562 1334 l 1,15,-1
 562 1178 l 1,16,-1
 337 1055 l 1,17,-1
 337 926 l 1,18,-1
 562 1050 l 1,19,-1
 562 895 l 1,20,-1
 337 770 l 1,21,-1
 337 206 l 1,22,23
 403 206 403 206 457 234 c 128,-1,24
 511 262 511 262 542.5 338.5 c 128,-1,25
 574 415 574 415 574 561 c 1,26,-1
 736 561 l 1,27,28
 736.039215686 555.235294118 736.039215686 555.235294118 736.039215686 549.532295271 c 0,0,0
 736.039215686 264.382352941 736.039215686 264.382352941 638 133.5 c 128,-1,29
 538 0 538 0 308 0 c 2,30,-1
 145 0 l 1,0,-1
EndSplineSet
EndChar

StartChar: uni20BC
Encoding: 8380 8380 607
Width: 768
VWidth: 2430
GlyphClass: 1
Flags: HW
LayerCount: 2
Fore
SplineSet
306 231 m 1,0,-1
 306 1236 l 1,1,2
 243 1209 243 1209 218.5 1125 c 128,-1,3
 194 1041 194 1041 194 897 c 2,4,-1
 194 81 l 2,5,6
 194 44 194 44 199.5 31.5 c 128,-1,7
 205 19 205 19 205 0 c 1,8,-1
 32 0 l 1,9,-1
 32 895 l 2,10,11
 32 1162 32 1162 103.5 1290.5 c 128,-1,12
 175 1419 175 1419 306 1444 c 1,13,-1
 306 1626 l 1,14,-1
 462 1626 l 1,15,-1
 462 1444 l 1,16,17
 586 1417 586 1417 661 1290.5 c 128,-1,18
 736 1164 736 1164 736 888 c 2,19,-1
 736 0 l 1,20,-1
 579 0 l 1,21,-1
 579 890 l 2,22,23
 579 1038 579 1038 553 1124 c 128,-1,24
 527 1210 527 1210 462 1239 c 1,25,-1
 462 231 l 1,26,-1
 306 231 l 1,0,-1
EndSplineSet
EndChar

StartChar: uni20A6
Encoding: 8358 8358 608
Width: 719
VWidth: 2430
GlyphClass: 2
Flags: HW
AnchorPoint: "Anchor-2" 349 0 basechar 0
AnchorPoint: "Anchor-0" 349 1514 basechar 0
LayerCount: 2
Fore
SplineSet
486 580 m 1,0,-1
 486 659 l 1,1,-1
 465 659 l 1,2,-1
 486 580 l 1,0,-1
216 999 m 1,3,-1
 216 809 l 1,4,-1
 269 809 l 1,5,-1
 216 999 l 1,3,-1
2 659 m 1,6,-1
 2 809 l 1,7,-1
 66 809 l 1,8,-1
 66 1514 l 1,9,-1
 227 1514 l 1,10,-1
 423 809 l 1,11,-1
 486 809 l 1,12,-1
 482 1514 l 1,13,-1
 647 1514 l 1,14,-1
 647 1495 l 1,15,16
 637 1481 637 1481 634 1463.5 c 128,-1,17
 631 1446 631 1446 631 1405 c 2,18,-1
 631 809 l 1,19,-1
 704 809 l 1,20,-1
 706 659 l 1,21,-1
 631 659 l 1,22,-1
 631 0 l 1,23,-1
 491 0 l 1,24,-1
 309 659 l 1,25,-1
 216 659 l 1,26,-1
 216 0 l 1,27,-1
 66 0 l 1,28,-1
 66 659 l 1,29,-1
 2 659 l 1,6,-1
EndSplineSet
EndChar

StartChar: peseta
Encoding: 8359 8359 609
Width: 748
VWidth: 2430
GlyphClass: 1
Flags: HW
LayerCount: 2
Fore
SplineSet
364 -30 m 0,0,1
 285 -30 285 -30 256.5 39.5 c 128,-1,2
 232.253731343 98.6268656716 232.253731343 98.6268656716 232.253731343 232.663844954 c 0,0,0
 232.253731343 256.179104478 232.253731343 256.179104478 233 282 c 2,3,-1
 242 491 l 1,4,-1
 178 491 l 1,5,-1
 187 631 l 1,6,-1
 246 631 l 1,7,-1
 246 742 l 1,8,-1
 353 765 l 1,9,-1
 375 770 l 1,10,-1
 380 751 l 1,11,12
 369 734 369 734 361 716 c 128,-1,13
 353 698 353 698 353 656 c 2,14,-1
 353 631 l 1,15,-1
 421 631 l 1,16,-1
 409 491 l 1,17,-1
 349 491 l 1,18,-1
 342 294 l 2,19,20
 340.72 259.76 340.72 259.76 340.72 232.3808 c 0,0,0
 340.72 174.2 340.72 174.2 346.5 147 c 128,-1,21
 355 107 355 107 388 107 c 0,22,23
 405 107 405 107 423 123 c 1,24,-1
 449 209 l 1,25,-1
 453 229 l 1,26,-1
 465 223 l 1,27,28
 471 209 471 209 471 190.5 c 128,-1,29
 471 172 471 172 484 148 c 0,30,31
 518.3 99.98 518.3 99.98 567.006 99.98 c 0,0,0
 568 99.98 568 99.98 569 100 c 0,32,33
 598 100 598 100 613 122 c 128,-1,34
 628 144 628 144 628 170 c 0,35,36
 628 197 628 197 615 219 c 128,-1,37
 602 241 602 241 561 262 c 0,38,39
 507 294 507 294 471.5 340.5 c 128,-1,40
 436 387 436 387 436 469 c 0,41,42
 436 552 436 552 476.5 598 c 128,-1,43
 517 644 517 644 578 644 c 0,44,45
 670 644 670 644 726 559 c 1,46,-1
 674 454 l 1,47,-1
 663 435 l 1,48,-1
 654 438 l 1,49,50
 654 455 654 455 653 468.5 c 128,-1,51
 652 482 652 482 636 496 c 0,52,53
 612 517 612 517 584 517 c 0,54,55
 557 517 557 517 546.5 503 c 128,-1,56
 536 489 536 489 536 466 c 0,57,58
 536 442 536 442 550.5 422.5 c 128,-1,59
 565 403 565 403 606 379 c 0,60,61
 676 337 676 337 703 293.5 c 128,-1,62
 730 250 730 250 730 180 c 0,63,64
 730 87 730 87 687.5 26.5 c 128,-1,65
 645 -34 645 -34 576 -34 c 0,66,67
 509 -34 509 -34 455 14 c 1,68,69
 414 -30 414 -30 364 -30 c 0,0,1
176 914 m 2,70,71
 298 914 298 914 299 1145 c 0,72,73
 299 1240 299 1240 271.5 1298 c 128,-1,74
 244 1356 244 1356 176 1356 c 2,75,-1
 157 1356 l 1,76,-1
 157 914 l 1,77,-1
 176 914 l 2,70,71
26 1514 m 1,78,-1
 176 1514 l 2,79,80
 265 1514 265 1514 324.5 1463 c 128,-1,81
 384 1412 384 1412 411 1329.5 c 128,-1,82
 438 1247 438 1247 438 1150 c 0,83,84
 438 985 438 985 372.5 875 c 128,-1,85
 307 765 307 765 183 765 c 2,86,-1
 157 765 l 1,87,-1
 157 0 l 1,88,-1
 26 0 l 1,89,-1
 26 1514 l 1,78,-1
EndSplineSet
EndChar

StartChar: uni20B1
Encoding: 8369 8369 610
Width: 689
VWidth: 2430
GlyphClass: 2
Flags: HW
AnchorPoint: "Anchor-2" 189 0 basechar 0
AnchorPoint: "Anchor-0" 327 1514 basechar 0
LayerCount: 2
Fore
SplineSet
218 839 m 1,0,-1
 327 839 l 2,1,2
 408 839 408 839 442 939 c 1,3,-1
 218 939 l 1,4,-1
 218 839 l 1,0,-1
462 1069 m 0,5,6
 462 1090 462 1090 460 1111 c 1,7,-1
 218 1111 l 1,8,-1
 218 1035 l 1,9,-1
 460 1035 l 1,10,11
 462 1052 462 1052 462 1069 c 0,5,6
218 1305 m 1,12,-1
 218 1208 l 1,13,-1
 442 1208 l 1,14,15
 409 1305 409 1305 327 1305 c 2,16,-1
 218 1305 l 1,12,-1
34 0 m 1,17,-1
 34 926 l 1,18,-1
 -14 926 l 1,19,-1
 -14 1035 l 1,20,-1
 34 1035 l 1,21,-1
 34 1101 l 1,22,-1
 -14 1101 l 1,23,-1
 -14 1208 l 1,24,-1
 34 1208 l 1,25,-1
 34 1514 l 1,26,-1
 333 1514 l 2,27,28
 461 1514 461 1514 538 1435 c 128,-1,29
 615 1356 615 1356 636 1208 c 1,30,-1
 690 1208 l 1,31,-1
 690 1101 l 1,32,-1
 647 1101 l 1,33,34
 647 1089 647 1089 647 1071 c 0,35,36
 647 1052 647 1052 647 1035 c 1,37,-1
 690 1035 l 1,38,-1
 690 926 l 1,39,-1
 633 926 l 1,40,41
 606 792 606 792 531 711.5 c 128,-1,42
 456 631 456 631 341 631 c 2,43,-1
 218 631 l 1,44,-1
 218 0 l 1,45,-1
 34 0 l 1,17,-1
EndSplineSet
EndChar

StartChar: uni20BD
Encoding: 8381 8381 611
Width: 753
VWidth: 2430
GlyphClass: 2
Flags: HW
AnchorPoint: "Anchor-2" 246 0 basechar 0
AnchorPoint: "Anchor-0" 392 1514 basechar 0
LayerCount: 2
Fore
SplineSet
276 839 m 1,0,-1
 392 839 l 2,1,2
 457 839 457 839 494.5 900.5 c 128,-1,3
 532 962 532 962 532 1069 c 0,4,5
 532 1185 532 1185 494 1245 c 128,-1,6
 456 1305 456 1305 392 1305 c 2,7,-1
 276 1305 l 1,8,-1
 276 839 l 1,0,-1
83 0 m 1,9,-1
 83 290 l 1,10,-1
 21 290 l 1,11,-1
 21 496 l 1,12,-1
 83 496 l 1,13,-1
 83 631 l 1,14,-1
 21 631 l 1,15,-1
 21 839 l 1,16,-1
 83 839 l 1,17,-1
 83 1514 l 1,18,-1
 398 1514 l 2,19,20
 563 1514 563 1514 644 1398.5 c 128,-1,21
 725 1283 725 1283 725 1071 c 0,22,23
 725 874 725 874 640.5 752.5 c 128,-1,24
 556 631 556 631 406 631 c 2,25,-1
 276 631 l 1,26,-1
 276 496 l 1,27,-1
 460 496 l 1,28,-1
 460 290 l 1,29,-1
 276 290 l 1,30,-1
 276 0 l 1,31,-1
 83 0 l 1,9,-1
EndSplineSet
EndChar

StartChar: uni20B9
Encoding: 8377 8377 612
Width: 746
VWidth: 2430
GlyphClass: 1
Flags: HW
LayerCount: 2
Fore
SplineSet
32 841 m 1,0,-1
 227 841 l 2,1,2
 297 841 297 841 336 877.5 c 128,-1,3
 375 914 375 914 389 979 c 1,4,-1
 32 979 l 1,5,-1
 32 1145 l 1,6,-1
 389 1145 l 1,7,8
 377 1215 377 1215 338 1255.5 c 128,-1,9
 299 1296 299 1296 227 1296 c 2,10,-1
 32 1296 l 1,11,-1
 32 1512 l 1,12,-1
 714 1512 l 1,13,-1
 714 1354 l 1,14,-1
 486 1354 l 1,15,16
 574 1276 574 1276 598 1145 c 1,17,-1
 714 1145 l 1,18,-1
 714 979 l 1,19,-1
 605 979 l 1,20,21
 593 865 593 865 535 781.5 c 128,-1,22
 477 698 477 698 396 663 c 1,23,-1
 644 0 l 1,24,-1
 415 0 l 1,25,-1
 197 629 l 1,26,-1
 32 629 l 1,27,-1
 32 841 l 1,0,-1
EndSplineSet
EndChar

StartChar: sterling
Encoding: 163 163 613
Width: 768
VWidth: 2430
GlyphClass: 1
Flags: HW
LayerCount: 2
Fore
SplineSet
97 -24 m 1,0,-1
 32 167 l 1,1,2
 95 211 95 211 128 255 c 128,-1,3
 161 299 161 299 173.5 364.5 c 128,-1,4
 186 430 186 430 186 542 c 0,5,6
 186 586 186 586 181.5 639.5 c 128,-1,7
 177 693 177 693 168 751 c 1,8,-1
 71 751 l 1,9,-1
 71 953 l 1,10,-1
 138 953 l 1,11,12
 136 985 136 985 133.5 1020 c 128,-1,13
 131 1055 131 1055 131 1086 c 0,14,15
 131 1304 131 1304 222 1410 c 128,-1,16
 313 1516 313 1516 438 1516 c 0,17,18
 499 1516 499 1516 558.5 1485 c 128,-1,19
 618 1454 618 1454 663 1387 c 1,20,-1
 570 1217 l 1,21,22
 548 1261 548 1261 520 1289 c 128,-1,23
 492 1317 492 1317 438 1317 c 0,24,25
 386 1317 386 1317 355 1256.5 c 128,-1,26
 324 1196 324 1196 324 1089 c 0,27,28
 324 1062 324 1062 326 1027 c 128,-1,29
 328 992 328 992 333 953 c 1,30,-1
 509 953 l 1,31,-1
 509 751 l 1,32,-1
 362 751 l 1,33,34
 369 695 369 695 373.5 644 c 128,-1,35
 378 593 378 593 378 547 c 0,36,37
 378 459 378 459 370 391 c 128,-1,38
 362 323 362 323 338 257 c 1,39,40
 348.561403509 258.719298246 348.561403509 258.719298246 358.760849492 258.719298246 c 0,41,42
 390.087719298 258.719298246 390.087719298 258.719298246 418 242.5 c 0,43,44
 455 221 455 221 490.5 196.5 c 128,-1,45
 526 172 526 172 568 172 c 0,46,47
 627 172 627 172 688 236 c 1,48,-1
 736 49 l 1,49,50
 654 -36 654 -36 559 -37 c 0,51,52
 514 -37 514 -37 465.5 -10 c 128,-1,53
 417 17 417 17 368 44.5 c 128,-1,54
 319 72 319 72 276 72 c 0,55,56
 235 72 235 72 194 47 c 128,-1,57
 153 22 153 22 97 -24 c 1,0,-1
EndSplineSet
EndChar

StartChar: uni20A9
Encoding: 8361 8361 614
Width: 719
VWidth: 2430
GlyphClass: 2
Flags: HW
AnchorPoint: "Anchor-2" 351 0 basechar 0
AnchorPoint: "Anchor-0" 360 1514 basechar 0
LayerCount: 2
Fore
SplineSet
500 629 m 1,0,-1
 502 702 l 1,1,-1
 489 702 l 1,2,-1
 500 629 l 1,0,-1
225 629 m 1,3,-1
 233 702 l 1,4,-1
 220 702 l 1,5,-1
 225 629 l 1,3,-1
355 839 m 1,6,-1
 353 823 l 1,7,-1
 358 823 l 1,8,-1
 355 839 l 1,6,-1
144 0 m 1,9,-1
 91 702 l 1,10,-1
 2 702 l 1,11,-1
 2 823 l 1,12,-1
 80 823 l 1,13,-1
 30 1514 l 1,14,-1
 171 1514 l 1,15,-1
 212 823 l 1,16,-1
 250 823 l 1,17,-1
 320 1347 l 1,18,-1
 403 1347 l 1,19,-1
 472 823 l 1,20,-1
 508 823 l 1,21,-1
 538 1514 l 1,22,-1
 673 1514 l 1,23,-1
 622 823 l 1,24,-1
 706 823 l 1,25,-1
 706 702 l 1,26,-1
 611 702 l 1,27,-1
 560 0 l 1,28,-1
 463 0 l 1,29,-1
 373 702 l 1,30,-1
 336 702 l 1,31,-1
 244 0 l 1,32,-1
 144 0 l 1,9,-1
EndSplineSet
EndChar

StartChar: yen
Encoding: 165 165 615
Width: 747
VWidth: 2430
GlyphClass: 1
Flags: HW
LayerCount: 2
Fore
SplineSet
477 0 m 1,0,-1
 289 0 l 1,1,-1
 289 269 l 1,2,-1
 104 269 l 1,3,-1
 104 430 l 1,4,-1
 289 430 l 1,5,-1
 289 552 l 1,6,-1
 104 552 l 1,7,-1
 104 714 l 1,8,-1
 282 714 l 1,9,-1
 19 1514 l 1,10,-1
 220 1514 l 1,11,-1
 382 955 l 1,12,-1
 535 1514 l 1,13,-1
 723 1514 l 1,14,-1
 479 714 l 1,15,-1
 652 714 l 1,16,-1
 652 552 l 1,17,-1
 477 552 l 1,18,-1
 477 430 l 1,19,-1
 652 430 l 1,20,-1
 652 269 l 1,21,-1
 477 269 l 1,22,-1
 477 0 l 1,0,-1
EndSplineSet
EndChar

StartChar: asteriskmath
Encoding: 8727 8727 616
Width: 768
VWidth: 2430
GlyphClass: 1
Flags: HW
LayerCount: 2
Fore
SplineSet
234 299 m 1,0,-1
 73 452 l 1,1,-1
 273 790 l 1,2,-1
 32 882 l 1,3,-1
 100 1120 l 1,4,-1
 312 962 l 1,5,-1
 278 1349 l 1,6,-1
 501 1349 l 1,7,-1
 460 962 l 1,8,-1
 671 1108 l 1,9,-1
 736 879 l 1,10,-1
 488 790 l 1,11,-1
 686 454 l 1,12,-1
 526 299 l 1,13,-1
 382 649 l 1,14,-1
 234 299 l 1,0,-1
EndSplineSet
EndChar

StartChar: uni2215
Encoding: 8725 8725 618
Width: 750
VWidth: 2398
GlyphClass: 1
Flags: HW
LayerCount: 2
Fore
SplineSet
188 -246 m 1,0,-1
 32 -207 l 1,1,-1
 563 1913 l 1,2,-1
 718 1871 l 1,3,-1
 188 -246 l 1,0,-1
EndSplineSet
EndChar

StartChar: element
Encoding: 8712 8712 619
Width: 768
VWidth: 2430
GlyphClass: 1
Flags: HW
LayerCount: 2
Fore
SplineSet
477 -19 m 2,0,1
 268 -19 268 -19 150 127.5 c 128,-1,2
 32 274 32 274 32 547 c 0,3,4
 32 819 32 819 152 974.5 c 128,-1,5
 272 1130 272 1130 475 1130 c 2,6,-1
 736 1130 l 1,7,-1
 736 974 l 1,8,-1
 501 974 l 2,9,10
 344 974 344 974 268.5 890.5 c 128,-1,11
 193 807 193 807 180 627 c 1,12,-1
 736 627 l 1,13,-1
 736 471 l 1,14,-1
 180 471 l 1,15,16
 192 291 192 291 264 213.5 c 128,-1,17
 336 136 336 136 501 136 c 2,18,-1
 736 136 l 1,19,-1
 736 -19 l 1,20,-1
 477 -19 l 2,0,1
EndSplineSet
EndChar

StartChar: plus
Encoding: 43 43 621
Width: 768
VWidth: 2430
GlyphClass: 1
Flags: HW
LayerCount: 2
Fore
SplineSet
297 253 m 1,0,-1
 297 680 l 1,1,-1
 32 680 l 1,2,-1
 32 888 l 1,3,-1
 297 888 l 1,4,-1
 297 1278 l 1,5,-1
 480 1278 l 1,6,-1
 480 888 l 1,7,-1
 736 888 l 1,8,-1
 736 680 l 1,9,-1
 480 680 l 1,10,-1
 480 253 l 1,11,-1
 297 253 l 1,0,-1
EndSplineSet
EndChar

StartChar: minus
Encoding: 8722 8722 622
Width: 768
VWidth: 2430
GlyphClass: 1
Flags: HW
LayerCount: 2
Fore
SplineSet
32 680 m 1,0,-1
 32 888 l 1,1,-1
 736 888 l 1,2,-1
 736 680 l 1,3,-1
 32 680 l 1,0,-1
EndSplineSet
Substitution2: "'sups' Superscript in Latin lookup 20 subtable" uni207B
Substitution2: "'aalt' Access All Alternates in Latin lookup 0 subtable" uni207B
EndChar

StartChar: multiply
Encoding: 215 215 623
Width: 706
VWidth: 2430
GlyphClass: 1
Flags: HW
LayerCount: 2
Fore
SplineSet
537 338 m 1,0,-1
 349 642 l 1,1,-1
 161 350 l 1,2,-1
 32 501 l 1,3,-1
 231 816 l 1,4,-1
 32 1140 l 1,5,-1
 168 1293 l 1,6,-1
 351 997 l 1,7,-1
 535 1290 l 1,8,-1
 674 1145 l 1,9,-1
 470 819 l 1,10,-1
 669 496 l 1,11,-1
 537 338 l 1,0,-1
EndSplineSet
EndChar

StartChar: divide
Encoding: 247 247 624
Width: 711
VWidth: 2430
GlyphClass: 1
Flags: HW
LayerCount: 2
Fore
SplineSet
361 246 m 0,0,1
 317 246 317 246 283.5 278.5 c 128,-1,2
 250 311 250 311 250 357 c 0,3,4
 250 406 250 406 284.5 439.5 c 128,-1,5
 319 473 319 473 361 473 c 0,6,7
 407 473 407 473 439.5 438 c 128,-1,8
 472 403 472 403 472 357 c 128,-1,9
 472 311 472 311 439.5 278.5 c 128,-1,10
 407 246 407 246 361 246 c 0,0,1
32 654 m 1,11,-1
 32 872 l 1,12,-1
 679 872 l 1,13,-1
 679 654 l 1,14,-1
 32 654 l 1,11,-1
361 1043 m 0,15,16
 317 1043 317 1043 283.5 1077 c 128,-1,17
 250 1111 250 1111 250 1157 c 128,-1,18
 250 1203 250 1203 284.5 1238 c 128,-1,19
 319 1273 319 1273 361 1273 c 0,20,21
 407 1273 407 1273 439.5 1238 c 128,-1,22
 472 1203 472 1203 472 1157 c 128,-1,23
 472 1111 472 1111 439.5 1077 c 128,-1,24
 407 1043 407 1043 361 1043 c 0,15,16
EndSplineSet
EndChar

StartChar: equal
Encoding: 61 61 625
Width: 768
VWidth: 2430
GlyphClass: 1
Flags: HW
LayerCount: 2
Fore
SplineSet
32 415 m 1,0,-1
 32 617 l 1,1,-1
 736 617 l 1,2,-1
 736 415 l 1,3,-1
 32 415 l 1,0,-1
32 921 m 1,4,-1
 32 1120 l 1,5,-1
 736 1120 l 1,6,-1
 736 921 l 1,7,-1
 32 921 l 1,4,-1
EndSplineSet
EndChar

StartChar: notequal
Encoding: 8800 8800 626
Width: 768
VWidth: 2430
GlyphClass: 1
Flags: HW
LayerCount: 2
Fore
SplineSet
32 415 m 1,0,-1
 32 617 l 1,1,-1
 245 617 l 1,2,-1
 360 921 l 1,3,-1
 32 921 l 1,4,-1
 32 1120 l 1,5,-1
 435 1120 l 1,6,-1
 570 1473 l 1,7,-1
 705 1403 l 1,8,-1
 599 1120 l 1,9,-1
 736 1120 l 1,10,-1
 736 921 l 1,11,-1
 522 921 l 1,12,-1
 406 617 l 1,13,-1
 736 617 l 1,14,-1
 736 415 l 1,15,-1
 329 415 l 1,16,-1
 197 65 l 1,17,-1
 59 132 l 1,18,-1
 167 415 l 1,19,-1
 32 415 l 1,0,-1
EndSplineSet
EndChar

StartChar: greater
Encoding: 62 62 627
Width: 768
VWidth: 2430
GlyphClass: 1
Flags: HW
LayerCount: 2
Fore
SplineSet
32 104 m 1,0,-1
 32 362 l 1,1,-1
 533 777 l 1,2,-1
 34 1145 l 1,3,-1
 34 1393 l 1,4,-1
 736 848 l 1,5,-1
 736 712 l 1,6,-1
 32 104 l 1,0,-1
EndSplineSet
EndChar

StartChar: less
Encoding: 60 60 628
Width: 768
VWidth: 2430
GlyphClass: 1
Flags: HW
LayerCount: 2
Fore
SplineSet
736 104 m 1,0,-1
 32 712 l 1,1,-1
 32 848 l 1,2,-1
 734 1393 l 1,3,-1
 734 1145 l 1,4,-1
 237 777 l 1,5,-1
 736 364 l 1,6,-1
 736 104 l 1,0,-1
EndSplineSet
EndChar

StartChar: lessequal
Encoding: 8804 8804 630
Width: 768
VWidth: 2430
GlyphClass: 1
Flags: HW
LayerCount: 2
Fore
SplineSet
52 56 m 1,0,-1
 52 250 l 1,1,-1
 736 250 l 1,2,-1
 736 56 l 1,3,-1
 52 56 l 1,0,-1
736 327 m 1,4,-1
 32 797 l 1,5,-1
 32 939 l 1,6,-1
 736 1412 l 1,7,-1
 736 1181 l 1,8,-1
 230 865 l 1,9,-1
 736 564 l 1,10,-1
 736 327 l 1,4,-1
EndSplineSet
EndChar

StartChar: plusminus
Encoding: 177 177 631
Width: 768
VWidth: 2430
GlyphClass: 1
Flags: HW
LayerCount: 2
Fore
SplineSet
32 9 m 1,0,-1
 32 225 l 1,1,-1
 736 225 l 1,2,-1
 736 9 l 1,3,-1
 32 9 l 1,0,-1
296 371 m 1,4,-1
 296 800 l 1,5,-1
 34 800 l 1,6,-1
 34 1009 l 1,7,-1
 296 1009 l 1,8,-1
 296 1398 l 1,9,-1
 484 1398 l 1,10,-1
 484 1009 l 1,11,-1
 736 1009 l 1,12,-1
 736 800 l 1,13,-1
 484 800 l 1,14,-1
 484 371 l 1,15,-1
 296 371 l 1,4,-1
EndSplineSet
EndChar

StartChar: asciitilde
Encoding: 126 126 633
Width: 764
VWidth: 2430
GlyphClass: 1
Flags: HW
LayerCount: 2
Fore
SplineSet
528 612 m 0,0,1
 470 612 470 612 428.5 645 c 128,-1,2
 387 678 387 678 354.5 711 c 128,-1,3
 322 744 322 744 285 744 c 0,4,5
 246 744 246 744 214.5 715 c 128,-1,6
 183 686 183 686 158 635 c 1,7,-1
 32 758 l 1,8,9
 64 830 64 830 123.5 892.5 c 128,-1,10
 183 955 183 955 260 955 c 0,11,12
 323 955 323 955 364.5 922.5 c 128,-1,13
 406 890 406 890 439 856.5 c 128,-1,14
 472 823 472 823 505 823 c 0,15,16
 542 823 542 823 567.5 856.5 c 128,-1,17
 593 890 593 890 623 939 c 1,18,-1
 732 795 l 1,19,20
 690 714 690 714 640.5 663 c 128,-1,21
 591 612 591 612 528 612 c 0,0,1
EndSplineSet
Substitution2: "'ss01' Style Set 1 in Latin lookup 35 subtable" asciitilde.ss01
Substitution2: "'salt' Stylistic Alternatives in Latin lookup 34 subtable" asciitilde.ss01
Substitution2: "'aalt' Access All Alternates in Latin lookup 0 subtable" asciitilde.ss01
EndChar

StartChar: logicalnot
Encoding: 172 172 634
Width: 647
VWidth: 2430
GlyphClass: 1
Flags: HW
LayerCount: 2
Fore
SplineSet
399 374 m 1,0,-1
 399 659 l 1,1,-1
 32 659 l 1,2,-1
 32 890 l 1,3,-1
 615 890 l 1,4,-1
 615 374 l 1,5,-1
 399 374 l 1,0,-1
EndSplineSet
EndChar

StartChar: asciicircum
Encoding: 94 94 635
Width: 664
VWidth: 2430
GlyphClass: 1
Flags: HW
LayerCount: 2
Fore
SplineSet
198 821 m 1,0,-1
 32 888 l 1,1,-1
 293 1514 l 1,2,-1
 400 1514 l 1,3,-1
 632 890 l 1,4,-1
 467 821 l 1,5,-1
 338 1159 l 1,6,-1
 198 821 l 1,0,-1
EndSplineSet
Substitution2: "'ss01' Style Set 1 in Latin lookup 35 subtable" asciicircum.ss01
Substitution2: "'salt' Stylistic Alternatives in Latin lookup 34 subtable" asciicircum.ss01
Substitution2: "'aalt' Access All Alternates in Latin lookup 0 subtable" asciicircum.ss01
EndChar

StartChar: infinity
Encoding: 8734 8734 636
Width: 711
VWidth: 2430
GlyphClass: 1
Flags: HW
LayerCount: 2
Fore
SplineSet
566 731 m 0,0,1
 566 780 566 780 549.5 813 c 128,-1,2
 533 846 533 846 503 846 c 0,3,4
 461 846 461 846 419 731 c 1,5,6
 459 610 459 610 505 610 c 0,7,8
 533 610 533 610 549.5 644 c 128,-1,9
 566 678 566 678 566 731 c 0,0,1
275 731 m 1,10,11
 241 850 241 850 195 851 c 0,12,13
 163 851 163 851 146 816.5 c 128,-1,14
 129 782 129 782 129 731 c 0,15,16
 129 685 129 685 146 650 c 128,-1,17
 163 615 163 615 195 615 c 0,18,19
 239 615 239 615 275 731 c 1,10,11
701 726 m 0,20,21
 701 597 701 597 649.5 504 c 128,-1,22
 598 411 598 411 518 411 c 0,23,24
 413 411 413 411 347 564 c 1,25,26
 311 496 311 496 269 454.5 c 128,-1,27
 227 413 227 413 185 413 c 0,28,29
 105 413 105 413 51 502 c 128,-1,30
 -3 591 -3 591 -3 731 c 0,31,32
 -3 865 -3 865 48.5 957.5 c 128,-1,33
 100 1050 100 1050 185 1050 c 0,34,35
 231 1050 231 1050 274 1014.5 c 128,-1,36
 317 979 317 979 350 897 c 1,37,38
 418 1048 418 1048 518 1048 c 0,39,40
 598 1048 598 1048 649.5 960 c 128,-1,41
 701 872 701 872 701 726 c 0,20,21
EndSplineSet
EndChar

StartChar: emptyset
Encoding: 8709 8709 637
Width: 727
VWidth: 2430
GlyphClass: 1
Flags: HW
LayerCount: 2
Fore
SplineSet
357 427 m 0,0,1
 438 427 438 427 492.5 532 c 128,-1,2
 547 637 547 637 547 793 c 0,3,4
 547 876 547 876 529 948 c 1,5,-1
 249 494 l 1,6,7
 296 427 296 427 357 427 c 0,0,1
170 793 m 0,8,9
 170 710 170 710 188 637 c 1,10,-1
 468 1089 l 1,11,12
 419 1152 419 1152 357 1152 c 0,13,14
 278 1152 278 1152 224 1049 c 128,-1,15
 170 946 170 946 170 793 c 0,8,9
98 253 m 1,16,-1
 6 345 l 1,17,-1
 89 478 l 1,18,19
 32 617 32 617 32 793 c 0,20,21
 32 941 32 941 73.5 1061 c 128,-1,22
 115 1181 115 1181 188 1252.5 c 128,-1,23
 261 1324 261 1324 357 1324 c 0,24,25
 414 1324 414 1324 464.5 1297.5 c 128,-1,26
 515 1271 515 1271 553 1225 c 1,27,-1
 621 1334 l 1,28,-1
 710 1239 l 1,29,-1
 627 1103 l 1,30,31
 686 967 686 967 687 793 c 0,32,33
 687 647 687 647 644.5 525 c 128,-1,34
 602 403 602 403 529 330 c 128,-1,35
 456 257 456 257 357 257 c 0,36,37
 302 257 302 257 252 284 c 128,-1,38
 202 311 202 311 164 357 c 1,39,-1
 98 253 l 1,16,-1
EndSplineSet
EndChar

StartChar: integral
Encoding: 8747 8747 638
Width: 635
VWidth: 2347
GlyphClass: 1
Flags: HW
LayerCount: 2
Fore
SplineSet
158 -246 m 0,0,1
 91 -246 91 -246 32 -208 c 1,2,-1
 32 -11 l 1,3,4
 58 -25 58 -25 81.5 -36 c 128,-1,5
 105 -47 105 -47 128 -47 c 0,6,7
 174 -47 174 -47 198 1 c 128,-1,8
 222 49 222 49 222 157 c 2,9,-1
 222 1456 l 2,10,11
 222 1661 222 1661 293 1753.5 c 128,-1,12
 364 1846 364 1846 482 1846 c 0,13,14
 518 1846 518 1846 548 1837 c 128,-1,15
 578 1828 578 1828 603 1812 c 1,16,-1
 603 1616 l 1,17,18
 580 1626 580 1626 553.5 1637 c 128,-1,19
 527 1648 527 1648 507 1648 c 0,20,21
 459 1648 459 1648 435.5 1602 c 128,-1,22
 412 1556 412 1556 412 1430 c 2,23,-1
 412 135 l 2,24,25
 412 -62 412 -62 339 -154 c 128,-1,26
 266 -246 266 -246 158 -246 c 0,0,1
EndSplineSet
EndChar

StartChar: uni2126
Encoding: 8486 8486 639
Width: 731
VWidth: 2430
GlyphClass: 1
Flags: HW
LayerCount: 2
Fore
SplineSet
366 1361 m 0,0,1
 282 1361 282 1361 241 1244 c 128,-1,2
 200 1127 200 1127 200 907 c 0,3,4
 200 472 200 472 321 323 c 1,5,-1
 321 0 l 1,6,-1
 12 0 l 1,7,-1
 12 262 l 1,8,-1
 159 262 l 1,9,10
 90 357 90 357 52 534.5 c 128,-1,11
 14 712 14 712 14 955 c 0,12,13
 14 1296 14 1296 107 1468 c 128,-1,14
 200 1640 200 1640 362 1640 c 0,15,16
 519 1640 519 1640 614.5 1471.5 c 128,-1,17
 710 1303 710 1303 710 955 c 0,18,19
 710 714 710 714 675 538 c 128,-1,20
 640 362 640 362 566 262 c 1,21,-1
 716 262 l 1,22,-1
 716 0 l 1,23,-1
 403 0 l 1,24,-1
 403 323 l 1,25,26
 474 404 474 404 501 551 c 128,-1,27
 528 698 528 698 528 909 c 0,28,29
 528.006097561 911.756097561 528.006097561 911.756097561 528.006097561 914.495389649 c 0,0,0
 528.006097561 1361 528.006097561 1361 366 1361 c 0,0,1
EndSplineSet
EndChar

StartChar: uni2206
Encoding: 8710 8710 640
Width: 768
VWidth: 2430
GlyphClass: 1
Flags: HW
LayerCount: 2
Fore
SplineSet
538 223 m 1,0,-1
 389 1331 l 1,1,-1
 385 1331 l 1,2,-1
 230 223 l 1,3,-1
 538 223 l 1,0,-1
498 1640 m 1,4,-1
 736 155 l 1,5,-1
 736 0 l 1,6,-1
 32 0 l 1,7,-1
 32 158 l 1,8,-1
 275 1640 l 1,9,-1
 498 1640 l 1,4,-1
EndSplineSet
EndChar

StartChar: product
Encoding: 8719 8719 641
Width: 708
VWidth: 2329
GlyphClass: 1
Flags: HW
LayerCount: 2
Fore
SplineSet
32 -246 m 1,0,-1
 32 1514 l 1,1,-1
 676 1514 l 1,2,3
 676 1495 676 1495 669 1485 c 128,-1,4
 662 1475 662 1475 660 1438 c 2,5,-1
 660 -246 l 1,6,-1
 472 -246 l 1,7,-1
 472 1334 l 1,8,-1
 223 1334 l 1,9,-1
 223 -246 l 1,10,-1
 32 -246 l 1,0,-1
EndSplineSet
EndChar

StartChar: summation
Encoding: 8721 8721 642
Width: 753
VWidth: 2362
GlyphClass: 1
Flags: HW
LayerCount: 2
Fore
SplineSet
23 -246 m 1,0,-1
 23 -70 l 1,1,-1
 329 690 l 1,2,-1
 34 1447 l 1,3,-1
 34 1623 l 1,4,-1
 706 1623 l 1,5,-1
 706 1423 l 1,6,-1
 253 1423 l 1,7,-1
 532 694 l 1,8,-1
 233 -46 l 1,9,-1
 727 -46 l 1,10,-1
 727 -246 l 1,11,-1
 23 -246 l 1,0,-1
EndSplineSet
EndChar

StartChar: radical
Encoding: 8730 8730 643
Width: 693
VWidth: 2430
GlyphClass: 1
Flags: HW
LayerCount: 2
Fore
SplineSet
232 -17 m 1,0,-1
 98 637 l 1,1,-1
 -14 637 l 1,2,-1
 -14 841 l 1,3,-1
 205 841 l 1,4,-1
 290 427 l 1,5,-1
 518 1640 l 1,6,-1
 690 1640 l 1,7,-1
 375 -17 l 1,8,-1
 232 -17 l 1,0,-1
EndSplineSet
EndChar

StartChar: uni00B5
Encoding: 181 181 644
Width: 703
VWidth: 2318
GlyphClass: 1
Flags: HW
LayerCount: 2
Fore
SplineSet
-6 -246 m 1,0,1
 -6 -161 -6 -161 8 46 c 128,-1,2
 22 253 22 253 22 550 c 2,3,-1
 22 1130 l 1,4,-1
 193 1130 l 1,5,-1
 193 503 l 2,6,7
 193 365 193 365 214 315 c 128,-1,8
 235 265 235 265 277 265 c 0,9,10
 365 265 365 265 365 499 c 2,11,-1
 365 1130 l 1,12,-1
 535 1130 l 1,13,-1
 535 374 l 2,14,15
 535 281 535 281 572 281 c 0,16,17
 586 281 586 281 602 301 c 128,-1,18
 618 321 618 321 626 345 c 2,19,-1
 637 378 l 1,20,-1
 698 202 l 1,21,22
 638 71 638 71 557 71 c 0,23,24
 519 71 519 71 491 104.5 c 128,-1,25
 463 138 463 138 451 185 c 1,26,27
 431 132 431 132 387 104 c 128,-1,28
 343 76 343 76 295 76 c 0,29,30
 255 76 255 76 215 105 c 128,-1,31
 175 134 175 134 157 192 c 1,32,33
 157 132 157 132 156 50.5 c 128,-1,34
 155 -31 155 -31 154 -109.5 c 128,-1,35
 153 -188 153 -188 153 -246 c 1,36,-1
 -6 -246 l 1,0,1
EndSplineSet
EndChar

StartChar: partialdiff
Encoding: 8706 8706 645
Width: 757
VWidth: 2430
GlyphClass: 1
Flags: HW
LayerCount: 2
Fore
SplineSet
347 170 m 0,0,1
 412 170 412 170 453.5 250.5 c 128,-1,2
 495 331 495 331 516 460 c 128,-1,3
 537 589 537 589 543 733 c 1,4,5
 486 911 486 911 391 911 c 0,6,7
 339 911 339 911 303.5 866 c 128,-1,8
 268 821 268 821 247 747 c 128,-1,9
 226 673 226 673 220 587 c 128,-1,10
 217 544 217 544 217 501 c 0,0,0
 217 458 217 458 220 415 c 0,11,12
 229 289 229 289 261 229.5 c 128,-1,13
 293 170 293 170 347 170 c 0,0,1
335 -27 m 0,14,15
 193 -27 193 -27 118 102 c 128,-1,16
 43 231 43 231 30 425 c 0,17,18
 26.625 470.375 26.625 470.375 26.625 515.609375 c 0,0,0
 26.625 591 26.625 591 36 666 c 128,-1,19
 51 786 51 786 90.5 883.5 c 128,-1,20
 130 981 130 981 194.5 1041 c 128,-1,21
 259 1101 259 1101 351 1101 c 0,22,23
 414 1101 414 1101 461 1069 c 128,-1,24
 508 1037 508 1037 541 981 c 1,25,26
 543 1002 543 1002 541 1025 c 128,-1,27
 539 1048 539 1048 537 1071 c 0,28,29
 526 1212 526 1212 484.5 1311 c 128,-1,30
 443 1410 443 1410 343 1410 c 0,31,32
 301 1410 301 1410 249.5 1392.5 c 128,-1,33
 198 1375 198 1375 157 1336 c 1,34,-1
 141 1543 l 1,35,36
 187 1575 187 1575 239.5 1591 c 128,-1,37
 292 1607 292 1607 345 1607 c 0,38,39
 476 1607 476 1607 554.5 1535 c 128,-1,40
 633 1463 633 1463 672.5 1327 c 128,-1,41
 712 1191 712 1191 724 997 c 0,42,43
 730.897959184 895.12244898 730.897959184 895.12244898 730.897959184 795.638067472 c 0,0,0
 730.897959184 707.632653061 730.897959184 707.632653061 725.5 621.5 c 128,-1,44
 714 438 714 438 669 292 c 128,-1,45
 624 146 624 146 543 59.5 c 128,-1,46
 462 -27 462 -27 335 -27 c 0,14,15
EndSplineSet
EndChar

StartChar: percent
Encoding: 37 37 646
Width: 733
VWidth: 2430
GlyphClass: 1
Flags: HW
LayerCount: 2
Fore
SplineSet
540 136 m 0,0,1
 566 136 566 136 581.5 177 c 128,-1,2
 597 218 597 218 597 287 c 0,3,4
 597 357 597 357 583 400 c 128,-1,5
 569 443 569 443 538 443 c 0,6,7
 483 443 483 443 483 292 c 0,8,9
 482.983050847 289.355932203 482.983050847 289.355932203 482.983050847 286.756679115 c 0,0,0
 482.983050847 136 482.983050847 136 540 136 c 0,0,1
540 -24 m 0,10,11
 463 -24 463 -24 411.5 60 c 128,-1,12
 360 144 360 144 360 290 c 128,-1,13
 360 436 360 436 412 520.5 c 128,-1,14
 464 605 464 605 540 605 c 0,15,16
 615 605 615 605 665.5 519 c 128,-1,17
 716 433 716 433 716 290 c 0,18,19
 716 142 716 142 665.5 59 c 128,-1,20
 615 -24 615 -24 540 -24 c 0,10,11
190 1071 m 0,21,22
 245 1071 245 1071 245 1225 c 0,23,24
 245 1378 245 1378 190 1378 c 0,25,26
 137 1378 137 1378 135 1225 c 0,27,28
 137 1071 137 1071 190 1071 c 0,21,22
31 0 m 1,29,-1
 554 1514 l 1,30,-1
 697 1514 l 1,31,-1
 172 0 l 1,32,-1
 31 0 l 1,29,-1
190 909 m 0,33,34
 117 909 117 909 64.5 992.5 c 128,-1,35
 12 1076 12 1076 12 1225 c 0,36,37
 12 1371 12 1371 64.5 1455.5 c 128,-1,38
 117 1540 117 1540 190 1540 c 0,39,40
 267 1540 267 1540 318.5 1454 c 128,-1,41
 370 1368 370 1368 370 1222 c 0,42,43
 370 1071 370 1071 320 990 c 128,-1,44
 270 909 270 909 190 909 c 0,33,34
EndSplineSet
EndChar

StartChar: perthousand
Encoding: 8240 8240 647
Width: 761
VWidth: 2430
GlyphClass: 1
Flags: HW
LayerCount: 2
Fore
SplineSet
561 126 m 128,-1,1
 582 126 582 126 598 164 c 128,-1,2
 614 202 614 202 614 269 c 0,3,4
 614 334 614 334 600 372.5 c 128,-1,5
 586 411 586 411 559 411 c 0,6,7
 538 411 538 411 522.5 376 c 128,-1,8
 507 341 507 341 507 272 c 0,9,10
 507 202 507 202 523.5 164 c 128,-1,0
 540 126 540 126 561 126 c 128,-1,1
194 126 m 0,11,12
 215 126 215 126 230.5 164 c 128,-1,13
 246 202 246 202 246 269 c 0,14,15
 246 334 246 334 232 372.5 c 128,-1,16
 218 411 218 411 191 411 c 0,17,18
 170 411 170 411 154.5 376 c 128,-1,19
 139 341 139 341 139 272 c 0,20,21
 139 202 139 202 154 164 c 128,-1,22
 169 126 169 126 194 126 c 0,11,12
561 -21 m 0,23,24
 496 -21 496 -21 448 54 c 128,-1,25
 400 129 400 129 400 269 c 0,26,27
 400 405 400 405 448 486.5 c 128,-1,28
 496 568 496 568 561 568 c 0,29,30
 628 568 628 568 675.5 489.5 c 128,-1,31
 723 411 723 411 723 269 c 0,32,33
 723 125 723 125 673.5 52 c 128,-1,34
 624 -21 624 -21 561 -21 c 0,23,24
194 -21 m 0,35,36
 129 -21 129 -21 80.5 54 c 128,-1,37
 32 129 32 129 32 269 c 0,38,39
 32 410 32 410 80 489 c 128,-1,40
 128 568 128 568 194 568 c 0,41,42
 261 568 261 568 308.5 488 c 128,-1,43
 356 408 356 408 356 269 c 0,44,45
 356 125 356 125 306.5 52 c 128,-1,46
 257 -21 257 -21 194 -21 c 0,35,36
28 542 m 1,47,-1
 28 710 l 1,48,-1
 732 1300 l 1,49,-1
 732 1132 l 1,50,-1
 28 542 l 1,47,-1
194 1103 m 0,51,52
 215 1103 215 1103 230.5 1139.5 c 128,-1,53
 246 1176 246 1176 246 1247 c 0,54,55
 246 1310 246 1310 232 1348.5 c 128,-1,56
 218 1387 218 1387 191 1387 c 0,57,58
 170 1387 170 1387 154.5 1352 c 128,-1,59
 139 1317 139 1317 139 1247 c 128,-1,60
 139 1177 139 1177 154 1140 c 128,-1,61
 169 1103 169 1103 194 1103 c 0,51,52
194 953 m 0,62,63
 129 953 129 953 80.5 1028 c 128,-1,64
 32 1103 32 1103 32 1247 c 0,65,66
 32 1388 32 1388 80 1465.5 c 128,-1,67
 128 1543 128 1543 194 1543 c 0,68,69
 261 1543 261 1543 308.5 1465 c 128,-1,70
 356 1387 356 1387 356 1247 c 0,71,72
 356 1103 356 1103 306.5 1028 c 128,-1,73
 257 953 257 953 194 953 c 0,62,63
EndSplineSet
EndChar

StartChar: circleplus
Encoding: 8853 8853 648
Width: 768
VWidth: 2430
GlyphClass: 1
Flags: HW
LayerCount: 2
Fore
SplineSet
329 438 m 1,0,-1
 329 691 l 1,1,-1
 192 691 l 1,2,-1
 192 821 l 1,3,-1
 329 821 l 1,4,-1
 329 1050 l 1,5,-1
 446 1050 l 1,6,-1
 446 821 l 1,7,-1
 578 821 l 1,8,-1
 578 691 l 1,9,-1
 446 691 l 1,10,-1
 446 438 l 1,11,-1
 329 438 l 1,0,-1
385 376 m 0,12,13
 483 376 483 376 550 482.5 c 128,-1,14
 617 589 617 589 617 749 c 128,-1,15
 617 909 617 909 550.5 1013.5 c 128,-1,16
 484 1118 484 1118 385 1118 c 0,17,18
 285 1118 285 1118 217.5 1013.5 c 128,-1,19
 150 909 150 909 150 749 c 128,-1,20
 150 589 150 589 217.5 482.5 c 128,-1,21
 285 376 285 376 385 376 c 0,12,13
385 243 m 0,22,23
 285 243 285 243 205.5 307 c 128,-1,24
 126 371 126 371 79 484.5 c 128,-1,25
 32 598 32 598 32 749 c 128,-1,26
 32 900 32 900 79 1012.5 c 128,-1,27
 126 1125 126 1125 205 1189.5 c 128,-1,28
 284 1254 284 1254 385 1254 c 0,29,30
 483 1254 483 1254 562.5 1189.5 c 128,-1,31
 642 1125 642 1125 689 1012 c 128,-1,32
 736 899 736 899 736 749 c 0,33,34
 736 598 736 598 689 484.5 c 128,-1,35
 642 371 642 371 562.5 307 c 128,-1,36
 483 243 483 243 385 243 c 0,22,23
EndSplineSet
EndChar

StartChar: arrowup
Encoding: 8593 8593 651
Width: 768
VWidth: 2430
GlyphClass: 1
Flags: HW
LayerCount: 2
Fore
SplineSet
288 0 m 1,0,-1
 288 981 l 1,1,-1
 164 753 l 1,2,-1
 32 916 l 1,3,-1
 338 1495 l 1,4,-1
 429 1495 l 1,5,-1
 736 916 l 1,6,-1
 606 753 l 1,7,-1
 482 979 l 1,8,-1
 482 0 l 1,9,-1
 288 0 l 1,0,-1
EndSplineSet
EndChar

StartChar: uni2197
Encoding: 8599 8599 652
Width: 790
VWidth: 2430
GlyphClass: 1
Flags: HW
LayerCount: 2
Fore
SplineSet
27 420 m 1,0,-1
 416 1115 l 1,1,-1
 184 1064 l 1,2,-1
 173 1283 l 1,3,-1
 664 1385 l 1,4,-1
 731 1280 l 1,5,-1
 680 584 l 1,6,-1
 509 600 l 1,7,-1
 541 953 l 1,8,-1
 164 292 l 1,9,-1
 27 420 l 1,0,-1
EndSplineSet
EndChar

StartChar: arrowright
Encoding: 8594 8594 653
Width: 749
VWidth: 2430
GlyphClass: 1
Flags: HW
LayerCount: 2
Fore
SplineSet
15 831 m 1,0,-1
 431 831 l 1,1,-1
 233 1130 l 1,2,-1
 360 1266 l 1,3,-1
 719 775 l 1,4,-1
 719 666 l 1,5,-1
 360 174 l 1,6,-1
 233 313 l 1,7,-1
 431 608 l 1,8,-1
 15 608 l 1,9,-1
 15 831 l 1,0,-1
EndSplineSet
EndChar

StartChar: arrowboth
Encoding: 8596 8596 659
Width: 713
VWidth: 2430
GlyphClass: 1
Flags: HW
LayerCount: 2
Fore
SplineSet
514 1191 m 1,0,-1
 700 770 l 1,1,-1
 700 659 l 1,2,-1
 512 248 l 1,3,-1
 384 348 l 1,4,-1
 487 608 l 1,5,-1
 208 608 l 1,6,-1
 313 348 l 1,7,-1
 183 248 l 1,8,-1
 -4 659 l 1,9,-1
 -4 770 l 1,10,-1
 183 1191 l 1,11,-1
 315 1101 l 1,12,-1
 206 831 l 1,13,-1
 489 831 l 1,14,-1
 384 1101 l 1,15,-1
 514 1191 l 1,0,-1
EndSplineSet
EndChar

StartChar: arrowupdn
Encoding: 8597 8597 660
Width: 749
VWidth: 2430
GlyphClass: 1
Flags: HW
LayerCount: 2
Fore
SplineSet
717 427 m 1,0,-1
 413 107 l 1,1,-1
 333 107 l 1,2,-1
 32 430 l 1,3,-1
 109 615 l 1,4,-1
 267 462 l 1,5,-1
 267 1037 l 1,6,-1
 109 879 l 1,7,-1
 34 1071 l 1,8,-1
 333 1389 l 1,9,-1
 413 1389 l 1,10,-1
 717 1069 l 1,11,-1
 644 877 l 1,12,-1
 481 1037 l 1,13,-1
 481 457 l 1,14,-1
 644 615 l 1,15,-1
 717 427 l 1,0,-1
EndSplineSet
EndChar

StartChar: uni21E7
Encoding: 8679 8679 661
Width: 768
VWidth: 2430
GlyphClass: 1
Flags: HW
LayerCount: 2
Fore
SplineSet
308 126 m 1,0,-1
 463 126 l 1,1,-1
 463 1016 l 1,2,-1
 586 1016 l 1,3,-1
 383 1349 l 1,4,-1
 189 1016 l 1,5,-1
 308 1016 l 1,6,-1
 308 126 l 1,0,-1
195 0 m 1,7,-1
 195 888 l 1,8,-1
 32 888 l 1,9,-1
 32 994 l 1,10,-1
 363 1546 l 1,11,-1
 407 1546 l 1,12,-1
 736 994 l 1,13,-1
 736 888 l 1,14,-1
 573 888 l 1,15,-1
 573 0 l 1,16,-1
 195 0 l 1,7,-1
EndSplineSet
EndChar

StartChar: uni21E8
Encoding: 8680 8680 662
Width: 713
VWidth: 2430
GlyphClass: 1
Flags: HW
LayerCount: 2
Fore
SplineSet
97 833 m 1,0,-1
 97 545 l 1,1,-1
 405 545 l 1,2,-1
 405 418 l 1,3,-1
 587 691 l 1,4,-1
 405 962 l 1,5,-1
 405 833 l 1,6,-1
 97 833 l 1,0,-1
-4 960 m 1,7,-1
 302 960 l 1,8,-1
 302 1217 l 1,9,-1
 367 1217 l 1,10,-1
 700 721 l 1,11,-1
 700 656 l 1,12,-1
 367 163 l 1,13,-1
 302 163 l 1,14,-1
 302 418 l 1,15,-1
 -4 418 l 1,16,-1
 -4 960 l 1,7,-1
EndSplineSet
EndChar

StartChar: uni2B06
Encoding: 11014 11014 665
Width: 768
VWidth: 2430
GlyphClass: 1
Flags: HW
LayerCount: 2
Fore
SplineSet
736 994 m 1,0,-1
 736 888 l 1,1,-1
 564 888 l 1,2,-1
 564 0 l 1,3,-1
 204 0 l 1,4,-1
 204 888 l 1,5,-1
 32 888 l 1,6,-1
 32 994 l 1,7,-1
 363 1546 l 1,8,-1
 407 1546 l 1,9,-1
 736 994 l 1,0,-1
EndSplineSet
EndChar

StartChar: uni2B05
Encoding: 11013 11013 668
Width: 713
VWidth: 2430
GlyphClass: 1
Flags: HW
LayerCount: 2
Fore
SplineSet
700 418 m 1,0,-1
 394 418 l 1,1,-1
 394 163 l 1,2,-1
 330 163 l 1,3,-1
 -4 656 l 1,4,-1
 -4 721 l 1,5,-1
 330 1217 l 1,6,-1
 394 1217 l 1,7,-1
 394 960 l 1,8,-1
 700 960 l 1,9,-1
 700 418 l 1,0,-1
EndSplineSet
EndChar

StartChar: dneighthblock
Encoding: 9601 9601 669
Width: -571
VWidth: 2429
GlyphClass: 1
Flags: HW
LayerCount: 2
Fore
SplineSet
0 -246 m 1,0,-1
 0 -547 l 1,1,-1
 -603 -547 l 1,2,-1
 -603 -246 l 1,3,-1
 0 -246 l 1,0,-1
EndSplineSet
EndChar

StartChar: dnquarterblock
Encoding: 9602 9602 670
Width: 91
VWidth: 252
GlyphClass: 1
Flags: HW
LayerCount: 2
Fore
SplineSet
-33 -246 m 1,0,-1
 -33 -121 l 1,1,-1
 92 -121 l 1,2,-1
 92 -246 l 1,3,-1
 -33 -246 l 1,0,-1
EndSplineSet
EndChar

StartChar: dnthreeeighthsblock
Encoding: 9603 9603 671
Width: 331
VWidth: 1219
GlyphClass: 1
Flags: HW
LayerCount: 2
Fore
SplineSet
-34 -246 m 1,0,-1
 -34 304 l 1,1,-1
 333 304 l 1,2,-1
 333 -246 l 1,3,-1
 -34 -246 l 1,0,-1
EndSplineSet
EndChar

StartChar: dnhalfblock
Encoding: 9604 9604 672
Width: 452
VWidth: 1702
GlyphClass: 1
Flags: HW
LayerCount: 2
Fore
SplineSet
-34 -246 m 1,0,-1
 -34 729 l 1,1,-1
 454 729 l 1,2,-1
 454 -246 l 1,3,-1
 -34 -246 l 1,0,-1
EndSplineSet
EndChar

StartChar: dnfiveeighthsblock
Encoding: 9605 9605 673
Width: 525
VWidth: 1993
GlyphClass: 1
Flags: HW
LayerCount: 2
Fore
SplineSet
-33 -246 m 1,0,-1
 -33 1155 l 1,1,-1
 527 1155 l 1,2,-1
 527 -246 l 1,3,-1
 -33 -246 l 1,0,-1
EndSplineSet
EndChar

StartChar: dnthreequartersblock
Encoding: 9606 9606 674
Width: 573
VWidth: 2187
GlyphClass: 1
Flags: HW
LayerCount: 2
Fore
SplineSet
-34 -246 m 1,0,-1
 -34 1579 l 1,1,-1
 575 1579 l 1,2,-1
 575 -246 l 1,3,-1
 -34 -246 l 1,0,-1
EndSplineSet
EndChar

StartChar: dnseveneighthsblock
Encoding: 9607 9607 675
Width: 608
VWidth: 2325
GlyphClass: 1
Flags: HW
LayerCount: 2
Fore
SplineSet
-33 -246 m 1,0,-1
 -33 2005 l 1,1,-1
 610 2005 l 1,2,-1
 610 -246 l 1,3,-1
 -33 -246 l 1,0,-1
EndSplineSet
EndChar

StartChar: fullblock
Encoding: 9608 9608 676
Width: 632
VWidth: 2430
GlyphClass: 1
Flags: HW
LayerCount: 2
Fore
SplineSet
-34 -246 m 1,0,-1
 -34 2430 l 1,1,-1
 635 2430 l 1,2,-1
 635 -246 l 1,3,-1
 -34 -246 l 1,0,-1
EndSplineSet
EndChar

StartChar: uphalfblock
Encoding: 9600 9600 677
Width: 668
VWidth: 2430
GlyphClass: 1
Flags: HW
LayerCount: 2
Fore
SplineSet
-34 729 m 1,0,-1
 -34 2430 l 1,1,-1
 670 2430 l 1,2,-1
 670 729 l 1,3,-1
 -34 729 l 1,0,-1
EndSplineSet
EndChar

StartChar: upeighthblock
Encoding: 9620 9620 678
Width: 668
VWidth: 2430
GlyphClass: 1
Flags: HW
LayerCount: 2
Fore
SplineSet
-34 2005 m 1,0,-1
 -34 2430 l 1,1,-1
 670 2430 l 1,2,-1
 670 2005 l 1,3,-1
 -34 2005 l 1,0,-1
EndSplineSet
EndChar

StartChar: lefteighthblock
Encoding: 9615 9615 679
Width: 116
VWidth: 2430
GlyphClass: 1
Flags: HW
LayerCount: 2
Fore
SplineSet
0 -246 m 1,0,-1
 0 2430 l 1,1,-1
 84 2430 l 1,2,-1
 84 -246 l 1,3,-1
 0 -246 l 1,0,-1
EndSplineSet
EndChar

StartChar: leftquarterblock
Encoding: 9614 9614 680
Width: 200
VWidth: 2430
GlyphClass: 1
Flags: HW
LayerCount: 2
Fore
SplineSet
0 -246 m 1,0,-1
 0 2430 l 1,1,-1
 168 2430 l 1,2,-1
 168 -246 l 1,3,-1
 0 -246 l 1,0,-1
EndSplineSet
EndChar

StartChar: leftthreeeighthsblock
Encoding: 9613 9613 681
Width: 284
VWidth: 2430
GlyphClass: 1
Flags: HW
LayerCount: 2
Fore
SplineSet
0 -246 m 1,0,-1
 0 2430 l 1,1,-1
 252 2430 l 1,2,-1
 252 -246 l 1,3,-1
 0 -246 l 1,0,-1
EndSplineSet
EndChar

StartChar: lefthalfblock
Encoding: 9612 9612 682
Width: 366
VWidth: 2430
GlyphClass: 1
Flags: HW
LayerCount: 2
Fore
SplineSet
0 -246 m 1,0,-1
 0 2430 l 1,1,-1
 334 2430 l 1,2,-1
 334 -246 l 1,3,-1
 0 -246 l 1,0,-1
EndSplineSet
EndChar

StartChar: leftfiveeighthsblock
Encoding: 9611 9611 683
Width: 451
VWidth: 2430
GlyphClass: 1
Flags: HW
LayerCount: 2
Fore
SplineSet
0 -246 m 1,0,-1
 0 2430 l 1,1,-1
 419 2430 l 1,2,-1
 419 -246 l 1,3,-1
 0 -246 l 1,0,-1
EndSplineSet
EndChar

StartChar: leftthreequartersblock
Encoding: 9610 9610 684
Width: 535
VWidth: 2430
GlyphClass: 1
Flags: HW
LayerCount: 2
Fore
SplineSet
0 -246 m 1,0,-1
 0 2430 l 1,1,-1
 503 2430 l 1,2,-1
 503 -246 l 1,3,-1
 0 -246 l 1,0,-1
EndSplineSet
EndChar

StartChar: leftseveneighthsblock
Encoding: 9609 9609 685
Width: 619
VWidth: 2430
GlyphClass: 1
Flags: HW
LayerCount: 2
Fore
SplineSet
0 -246 m 1,0,-1
 0 2430 l 1,1,-1
 587 2430 l 1,2,-1
 587 -246 l 1,3,-1
 0 -246 l 1,0,-1
EndSplineSet
EndChar

StartChar: righthalfblock
Encoding: 9616 9616 686
Width: 699
VWidth: 2430
GlyphClass: 1
Flags: HW
LayerCount: 2
Fore
SplineSet
32 -246 m 1,0,-1
 32 2430 l 1,1,-1
 367 2430 l 1,2,-1
 367 -246 l 1,3,-1
 32 -246 l 1,0,-1
EndSplineSet
EndChar

StartChar: righteighthblock
Encoding: 9621 9621 687
Width: 699
VWidth: 2430
GlyphClass: 1
Flags: HW
LayerCount: 2
Fore
SplineSet
32 -246 m 1,0,-1
 32 2430 l 1,1,-1
 114 2430 l 1,2,-1
 114 -246 l 1,3,-1
 32 -246 l 1,0,-1
EndSplineSet
EndChar

StartChar: dnleftquadrant
Encoding: 9622 9622 688
Width: 275
VWidth: 1702
GlyphClass: 1
Flags: HW
LayerCount: 2
Fore
SplineSet
0 -246 m 1,0,-1
 0 729 l 1,1,-1
 243 729 l 1,2,-1
 243 -246 l 1,3,-1
 0 -246 l 1,0,-1
EndSplineSet
EndChar

StartChar: dnrightquadrant
Encoding: 9623 9623 689
Width: 518
VWidth: 1702
GlyphClass: 1
Flags: HW
LayerCount: 2
Fore
SplineSet
32 -246 m 1,0,-1
 32 729 l 1,1,-1
 276 729 l 1,2,-1
 276 -246 l 1,3,-1
 32 -246 l 1,0,-1
EndSplineSet
EndChar

StartChar: upleftquadrant
Encoding: 9624 9624 690
Width: 457
VWidth: 2430
GlyphClass: 1
Flags: HW
LayerCount: 2
Fore
SplineSet
0 729 m 1,0,-1
 0 2430 l 1,1,-1
 425 2430 l 1,2,-1
 425 729 l 1,3,-1
 0 729 l 1,0,-1
EndSplineSet
EndChar

StartChar: upleftdnleftdnrightquadrant
Encoding: 9625 9625 691
Width: 632
VWidth: 2430
GlyphClass: 1
Flags: HW
LayerCount: 2
Fore
SplineSet
-34 -246 m 1,0,-1
 -34 2430 l 1,1,-1
 300 2430 l 1,2,-1
 300 1092 l 1,3,-1
 635 1092 l 1,4,-1
 635 -246 l 1,5,-1
 -34 -246 l 1,0,-1
EndSplineSet
EndChar

StartChar: upleftdnrightquadrant
Encoding: 9626 9626 692
Width: 632
VWidth: 2430
GlyphClass: 1
Flags: HW
LayerCount: 2
Fore
SplineSet
300 1092 m 1,0,-1
 635 1092 l 1,1,-1
 635 -246 l 1,2,-1
 300 -246 l 1,3,-1
 300 1092 l 1,0,-1
300 1092 m 1,4,-1
 -34 1092 l 1,5,-1
 -34 2430 l 1,6,-1
 300 2430 l 1,7,-1
 300 1092 l 1,4,-1
EndSplineSet
EndChar

StartChar: upleftuprightdnleftquadrant
Encoding: 9627 9627 693
Width: 632
VWidth: 2430
GlyphClass: 1
Flags: HW
LayerCount: 2
Fore
SplineSet
-34 -246 m 1,0,-1
 -34 2430 l 1,1,-1
 635 2430 l 1,2,-1
 635 1092 l 1,3,-1
 300 1092 l 1,4,-1
 300 -246 l 1,5,-1
 -34 -246 l 1,0,-1
EndSplineSet
EndChar

StartChar: upleftuprightdnrightquadrant
Encoding: 9628 9628 694
Width: 632
VWidth: 2430
GlyphClass: 1
Flags: HW
LayerCount: 2
Fore
SplineSet
300 -246 m 1,0,-1
 300 1092 l 1,1,-1
 -34 1092 l 1,2,-1
 -34 2430 l 1,3,-1
 635 2430 l 1,4,-1
 635 -246 l 1,5,-1
 300 -246 l 1,0,-1
EndSplineSet
EndChar

StartChar: uprightquadrant
Encoding: 9629 9629 695
Width: 881
VWidth: 2430
GlyphClass: 1
Flags: HW
LayerCount: 2
Fore
SplineSet
32 729 m 1,0,-1
 32 2430 l 1,1,-1
 458 2430 l 1,2,-1
 458 729 l 1,3,-1
 32 729 l 1,0,-1
EndSplineSet
EndChar

StartChar: uprightdnleftquadrant
Encoding: 9630 9630 696
Width: 632
VWidth: 2430
GlyphClass: 1
Flags: HW
LayerCount: 2
Fore
SplineSet
-34 -246 m 1,0,-1
 -34 1092 l 1,1,-1
 300 1092 l 1,2,-1
 300 -246 l 1,3,-1
 -34 -246 l 1,0,-1
300 1092 m 1,4,-1
 300 2430 l 1,5,-1
 635 2430 l 1,6,-1
 635 1092 l 1,7,-1
 300 1092 l 1,4,-1
EndSplineSet
EndChar

StartChar: uprightdnleftdnrightquadrant
Encoding: 9631 9631 697
Width: 632
VWidth: 2430
GlyphClass: 1
Flags: HW
LayerCount: 2
Fore
SplineSet
-34 -246 m 1,0,-1
 -34 1092 l 1,1,-1
 300 1092 l 1,2,-1
 300 2430 l 1,3,-1
 635 2430 l 1,4,-1
 635 -246 l 1,5,-1
 -34 -246 l 1,0,-1
EndSplineSet
EndChar

StartChar: lightshade
Encoding: 9617 9617 698
Width: 654
VWidth: 2419
GlyphClass: 1
Flags: HW
LayerCount: 2
Fore
SplineSet
-7 -246 m 1
 -7 -126 l 1
 78 -126 l 1
 78 -246 l 1
 -7 -246 l 1
220 -246 m 1
 220 -126 l 1
 304 -126 l 1
 304 -246 l 1
 220 -246 l 1
446 -246 m 1
 446 -126 l 1
 529 -126 l 1
 529 -246 l 1
 446 -246 l 1
107 -53 m 1
 107 66 l 1
 190 66 l 1
 190 -53 l 1
 107 -53 l 1
332 -53 m 1
 332 66 l 1
 417 66 l 1
 417 -53 l 1
 332 -53 l 1
557 -53 m 1
 557 66 l 1
 642 66 l 1
 642 -53 l 1
 557 -53 l 1
-7 140 m 1
 -7 259 l 1
 78 259 l 1
 78 140 l 1
 -7 140 l 1
220 140 m 1
 220 259 l 1
 304 259 l 1
 304 140 l 1
 220 140 l 1
446 140 m 1
 446 259 l 1
 529 259 l 1
 529 140 l 1
 446 140 l 1
557 333 m 1
 557 453 l 1
 642 453 l 1
 642 333 l 1
 557 333 l 1
332 333 m 1
 332 453 l 1
 417 453 l 1
 417 333 l 1
 332 333 l 1
107 333 m 1
 107 453 l 1
 190 453 l 1
 190 333 l 1
 107 333 l 1
-7 526 m 1
 -7 646 l 1
 78 646 l 1
 78 526 l 1
 -7 526 l 1
220 526 m 1
 220 646 l 1
 304 646 l 1
 304 526 l 1
 220 526 l 1
446 526 m 1
 446 646 l 1
 529 646 l 1
 529 526 l 1
 446 526 l 1
107 720 m 1
 107 839 l 1
 190 839 l 1
 190 720 l 1
 107 720 l 1
332 720 m 1
 332 839 l 1
 417 839 l 1
 417 720 l 1
 332 720 l 1
557 720 m 1
 557 839 l 1
 642 839 l 1
 642 720 l 1
 557 720 l 1
-7 913 m 1
 -7 1032 l 1
 78 1032 l 1
 78 913 l 1
 -7 913 l 1
220 913 m 1
 220 1032 l 1
 304 1032 l 1
 304 913 l 1
 220 913 l 1
446 913 m 1
 446 1032 l 1
 529 1032 l 1
 529 913 l 1
 446 913 l 1
107 1105 m 1
 107 1225 l 1
 190 1225 l 1
 190 1105 l 1
 107 1105 l 1
332 1105 m 1
 332 1225 l 1
 417 1225 l 1
 417 1105 l 1
 332 1105 l 1
557 1105 m 1
 557 1225 l 1
 642 1225 l 1
 642 1105 l 1
 557 1105 l 1
-7 1298 m 1
 -7 1418 l 1
 78 1418 l 1
 78 1298 l 1
 -7 1298 l 1
220 1298 m 1
 220 1418 l 1
 304 1418 l 1
 304 1298 l 1
 220 1298 l 1
446 1298 m 1
 446 1418 l 1
 529 1418 l 1
 529 1298 l 1
 446 1298 l 1
107 1492 m 1
 107 1612 l 1
 190 1612 l 1
 190 1492 l 1
 107 1492 l 1
332 1492 m 1
 332 1612 l 1
 417 1612 l 1
 417 1492 l 1
 332 1492 l 1
557 1492 m 1
 557 1612 l 1
 642 1612 l 1
 642 1492 l 1
 557 1492 l 1
446 1685 m 1
 446 1805 l 1
 529 1805 l 1
 529 1685 l 1
 446 1685 l 1
220 1685 m 1
 220 1805 l 1
 304 1805 l 1
 304 1685 l 1
 220 1685 l 1
-7 1685 m 1
 -7 1805 l 1
 78 1805 l 1
 78 1685 l 1
 -7 1685 l 1
107 1878 m 1
 107 1997 l 1
 190 1997 l 1
 190 1878 l 1
 107 1878 l 1
332 1878 m 1
 332 1997 l 1
 417 1997 l 1
 417 1878 l 1
 332 1878 l 1
557 1878 m 1
 557 1997 l 1
 642 1997 l 1
 642 1878 l 1
 557 1878 l 1
-7 2071 m 1
 -7 2190 l 1
 78 2190 l 1
 78 2071 l 1
 -7 2071 l 1
220 2071 m 1
 220 2190 l 1
 304 2190 l 1
 304 2071 l 1
 220 2071 l 1
446 2071 m 1
 446 2190 l 1
 529 2190 l 1
 529 2071 l 1
 446 2071 l 1
107 2264 m 1
 107 2384 l 1
 190 2384 l 1
 190 2264 l 1
 107 2264 l 1
332 2264 m 1
 332 2384 l 1
 417 2384 l 1
 417 2264 l 1
 332 2264 l 1
557 2264 m 1
 557 2384 l 1
 642 2384 l 1
 642 2264 l 1
 557 2264 l 1
EndSplineSet
EndChar

StartChar: mediumshade
Encoding: 9618 9618 699
Width: 638
VWidth: 2425
GlyphClass: 1
Flags: HW
LayerCount: 2
Fore
SplineSet
-30 -246 m 1
 -30 -81 l 1
 82 -81 l 1
 82 -246 l 1
 -30 -246 l 1
191 -246 m 1
 191 -81 l 1
 305 -81 l 1
 305 -246 l 1
 191 -246 l 1
415 -246 m 1
 415 -81 l 1
 530 -81 l 1
 530 -246 l 1
 415 -246 l 1
80 -54 m 1
 80 111 l 1
 195 111 l 1
 195 -54 l 1
 80 -54 l 1
302 -54 m 1
 302 111 l 1
 417 111 l 1
 417 -54 l 1
 302 -54 l 1
527 -54 m 1
 527 111 l 1
 638 111 l 1
 638 -54 l 1
 527 -54 l 1
-30 138 m 1
 -30 303 l 1
 82 303 l 1
 82 138 l 1
 -30 138 l 1
191 138 m 1
 191 303 l 1
 305 303 l 1
 305 138 l 1
 191 138 l 1
415 138 m 1
 415 303 l 1
 530 303 l 1
 530 138 l 1
 415 138 l 1
527 330 m 1
 527 495 l 1
 638 495 l 1
 638 330 l 1
 527 330 l 1
302 330 m 1
 302 495 l 1
 417 495 l 1
 417 330 l 1
 302 330 l 1
80 330 m 1
 80 495 l 1
 195 495 l 1
 195 330 l 1
 80 330 l 1
-30 521 m 1
 -30 686 l 1
 82 686 l 1
 82 521 l 1
 -30 521 l 1
191 521 m 1
 191 686 l 1
 305 686 l 1
 305 521 l 1
 191 521 l 1
415 521 m 1
 415 686 l 1
 530 686 l 1
 530 521 l 1
 415 521 l 1
80 713 m 1
 80 878 l 1
 195 878 l 1
 195 713 l 1
 80 713 l 1
302 713 m 1
 302 878 l 1
 417 878 l 1
 417 713 l 1
 302 713 l 1
527 713 m 1
 527 878 l 1
 638 878 l 1
 638 713 l 1
 527 713 l 1
-30 905 m 1
 -30 1070 l 1
 82 1070 l 1
 82 905 l 1
 -30 905 l 1
191 905 m 1
 191 1070 l 1
 305 1070 l 1
 305 905 l 1
 191 905 l 1
415 905 m 1
 415 1070 l 1
 530 1070 l 1
 530 905 l 1
 415 905 l 1
80 1097 m 1
 80 1262 l 1
 195 1262 l 1
 195 1097 l 1
 80 1097 l 1
302 1097 m 1
 302 1262 l 1
 417 1262 l 1
 417 1097 l 1
 302 1097 l 1
527 1097 m 1
 527 1262 l 1
 638 1262 l 1
 638 1097 l 1
 527 1097 l 1
-30 1289 m 1
 -30 1454 l 1
 82 1454 l 1
 82 1289 l 1
 -30 1289 l 1
191 1289 m 1
 191 1454 l 1
 305 1454 l 1
 305 1289 l 1
 191 1289 l 1
415 1289 m 1
 415 1454 l 1
 530 1454 l 1
 530 1289 l 1
 415 1289 l 1
80 1480 m 1
 80 1645 l 1
 195 1645 l 1
 195 1480 l 1
 80 1480 l 1
302 1480 m 1
 302 1645 l 1
 417 1645 l 1
 417 1480 l 1
 302 1480 l 1
527 1480 m 1
 527 1645 l 1
 638 1645 l 1
 638 1480 l 1
 527 1480 l 1
415 1672 m 1
 415 1837 l 1
 530 1837 l 1
 530 1672 l 1
 415 1672 l 1
191 1672 m 1
 191 1837 l 1
 305 1837 l 1
 305 1672 l 1
 191 1672 l 1
-30 1672 m 1
 -30 1837 l 1
 82 1837 l 1
 82 1672 l 1
 -30 1672 l 1
80 1865 m 1
 80 2029 l 1
 195 2029 l 1
 195 1865 l 1
 80 1865 l 1
302 1865 m 1
 302 2029 l 1
 417 2029 l 1
 417 1865 l 1
 302 1865 l 1
527 1865 m 1
 527 2029 l 1
 638 2029 l 1
 638 1865 l 1
 527 1865 l 1
-30 2057 m 1
 -30 2221 l 1
 82 2221 l 1
 82 2057 l 1
 -30 2057 l 1
191 2057 m 1
 191 2221 l 1
 305 2221 l 1
 305 2057 l 1
 191 2057 l 1
415 2057 m 1
 415 2221 l 1
 530 2221 l 1
 530 2057 l 1
 415 2057 l 1
80 2249 m 1
 80 2413 l 1
 195 2413 l 1
 195 2249 l 1
 80 2249 l 1
302 2249 m 1
 302 2413 l 1
 417 2413 l 1
 417 2249 l 1
 302 2249 l 1
527 2249 m 1
 527 2413 l 1
 638 2413 l 1
 638 2249 l 1
 527 2249 l 1
EndSplineSet
EndChar

StartChar: darkshade
Encoding: 9619 9619 700
Width: 632
VWidth: 2430
GlyphClass: 1
Flags: HW
LayerCount: 2
Fore
SplineSet
272 -30 m 1
 272 111 l 1
 218 111 l 1
 218 -30 l 1
 272 -30 l 1
495 -30 m 1
 495 111 l 1
 440 111 l 1
 440 -30 l 1
 495 -30 l 1
161 161 m 1
 161 303 l 1
 106 303 l 1
 106 161 l 1
 161 161 l 1
385 161 m 1
 385 303 l 1
 329 303 l 1
 329 161 l 1
 385 161 l 1
272 352 m 1
 272 493 l 1
 218 493 l 1
 218 352 l 1
 272 352 l 1
495 352 m 1
 495 493 l 1
 440 493 l 1
 440 352 l 1
 495 352 l 1
161 544 m 1
 161 685 l 1
 106 685 l 1
 106 544 l 1
 161 544 l 1
385 544 m 1
 385 685 l 1
 329 685 l 1
 329 544 l 1
 385 544 l 1
272 734 m 1
 272 876 l 1
 218 876 l 1
 218 734 l 1
 272 734 l 1
495 734 m 1
 495 876 l 1
 440 876 l 1
 440 734 l 1
 495 734 l 1
385 925 m 1
 385 1067 l 1
 329 1067 l 1
 329 925 l 1
 385 925 l 1
161 925 m 1
 161 1067 l 1
 106 1067 l 1
 106 925 l 1
 161 925 l 1
272 1117 m 1
 272 1259 l 1
 218 1259 l 1
 218 1117 l 1
 272 1117 l 1
495 1117 m 1
 495 1259 l 1
 440 1259 l 1
 440 1117 l 1
 495 1117 l 1
161 1308 m 1
 161 1449 l 1
 106 1449 l 1
 106 1308 l 1
 161 1308 l 1
385 1308 m 1
 385 1449 l 1
 329 1449 l 1
 329 1308 l 1
 385 1308 l 1
272 1499 m 1
 272 1640 l 1
 218 1640 l 1
 218 1499 l 1
 272 1499 l 1
495 1499 m 1
 495 1640 l 1
 440 1640 l 1
 440 1499 l 1
 495 1499 l 1
385 1690 m 1
 385 1832 l 1
 329 1832 l 1
 329 1690 l 1
 385 1690 l 1
161 1690 m 1
 161 1832 l 1
 106 1832 l 1
 106 1690 l 1
 161 1690 l 1
272 1881 m 1
 272 2023 l 1
 218 2023 l 1
 218 1881 l 1
 272 1881 l 1
495 1881 m 1
 495 2023 l 1
 440 2023 l 1
 440 1881 l 1
 495 1881 l 1
161 2073 m 1
 161 2214 l 1
 106 2214 l 1
 106 2073 l 1
 161 2073 l 1
385 2073 m 1
 385 2214 l 1
 329 2214 l 1
 329 2073 l 1
 385 2073 l 1
-34 -246 m 1
 -34 -30 l 1
 50 -30 l 1
 50 111 l 1
 -34 111 l 1
 -34 352 l 1
 50 352 l 1
 50 493 l 1
 -34 493 l 1
 -34 734 l 1
 50 734 l 1
 50 876 l 1
 -34 876 l 1
 -34 1117 l 1
 50 1117 l 1
 50 1259 l 1
 -34 1259 l 1
 -34 1499 l 1
 50 1499 l 1
 50 1640 l 1
 -34 1640 l 1
 -34 1881 l 1
 50 1881 l 1
 50 2023 l 1
 -34 2023 l 1
 -34 2264 l 1
 50 2264 l 1
 50 2430 l 1
 218 2430 l 1
 218 2264 l 1
 272 2264 l 1
 272 2430 l 1
 440 2430 l 1
 440 2264 l 1
 495 2264 l 1
 495 2430 l 1
 635 2430 l 1
 635 2214 l 1
 553 2214 l 1
 553 2073 l 1
 635 2073 l 1
 635 1832 l 1
 553 1832 l 1
 553 1690 l 1
 635 1690 l 1
 635 1449 l 1
 553 1449 l 1
 553 1308 l 1
 635 1308 l 1
 635 1067 l 1
 553 1067 l 1
 553 925 l 1
 635 925 l 1
 635 685 l 1
 553 685 l 1
 553 544 l 1
 635 544 l 1
 635 303 l 1
 553 303 l 1
 553 161 l 1
 635 161 l 1
 635 -80 l 1
 553 -80 l 1
 553 -246 l 1
 385 -246 l 1
 385 -80 l 1
 329 -80 l 1
 329 -246 l 1
 161 -246 l 1
 161 -80 l 1
 106 -80 l 1
 106 -246 l 1
 -34 -246 l 1
EndSplineSet
EndChar

StartChar: uni25CF
Encoding: 9679 9679 701
Width: 768
VWidth: 2430
GlyphClass: 1
Flags: HW
LayerCount: 2
Fore
SplineSet
382 241 m 0,0,1
 285 241 285 241 205.5 310 c 128,-1,2
 126 379 126 379 79 494.5 c 128,-1,3
 32 610 32 610 32 749 c 0,4,5
 32 890 32 890 79 1004 c 128,-1,6
 126 1118 126 1118 205.5 1187.5 c 128,-1,7
 285 1257 285 1257 382 1257 c 0,8,9
 481 1257 481 1257 560 1187.5 c 128,-1,10
 639 1118 639 1118 687.5 1004 c 128,-1,11
 736 890 736 890 736 749 c 0,12,13
 736 610 736 610 687.5 494.5 c 128,-1,14
 639 379 639 379 560 310 c 128,-1,15
 481 241 481 241 382 241 c 0,0,1
EndSplineSet
EndChar

